if (_typeface_js && _typeface_js.loadFace) _typeface_js.loadFace({"glyphs":{"S":{"x_min":20.078125,"x_max":842,"ha":862,"o":"m 782 1083 q 763 988 779 1057 q 749 892 749 928 q 726 829 733 871 q 710 762 716 775 q 590 822 612 811 q 460 851 518 851 q 373 830 413 851 l 361 810 q 571 671 424 671 q 659 630 581 671 q 842 329 842 535 q 821 208 842 271 q 759 105 797 131 q 616 26 729 56 q 446 0 523 0 q 20 127 234 0 q 60 297 24 195 l 79 294 q 90 352 80 297 q 121 391 98 393 q 169 364 144 378 q 212 341 205 341 q 222 348 218 341 q 234 351 227 355 l 234 348 q 436 279 354 279 q 499 290 462 279 q 545 322 545 303 q 532 360 545 323 q 448 429 513 413 q 336 449 391 439 q 135 630 212 491 q 53 895 72 746 q 102 947 59 911 q 104 980 104 950 q 129 1026 104 1025 q 143 1023 136 1023 q 189 1058 147 1023 q 295 1122 241 1099 q 468 1157 374 1157 q 782 1083 630 1157 m 471 1118 q 333 1096 393 1118 q 278 1066 317 1081 q 226 1039 239 1051 q 205 983 203 1019 l 198 1019 q 160 974 160 1019 q 162 947 160 966 q 164 921 164 928 q 159 895 164 905 q 156 983 157 908 l 156 1000 l 141 1000 q 129 938 129 977 q 136 875 129 906 q 129 860 129 869 q 133 846 129 856 q 138 831 138 837 l 133 820 q 103 902 126 849 q 169 653 110 759 q 357 483 236 532 q 416 529 395 494 q 396 559 415 545 q 369 588 373 578 l 373 591 q 441 562 387 572 l 390 594 q 377 616 390 604 q 357 634 358 633 l 360 637 q 463 581 415 591 q 474 642 468 601 q 354 763 396 676 q 319 931 319 837 q 330 955 319 946 l 332 936 l 335 937 q 347 931 344 937 q 337 916 337 927 q 340 903 337 916 q 357 911 364 911 q 360 908 360 911 l 343 892 q 347 871 343 876 q 441 890 390 890 q 588 856 496 890 q 675 822 680 822 q 688 836 685 822 q 693 859 691 858 q 617 897 665 884 q 535 914 577 905 q 557 918 539 918 q 629 902 590 918 q 698 875 664 888 q 700 888 697 879 q 703 900 703 897 q 663 923 691 910 q 623 950 635 937 l 633 952 q 676 937 649 952 q 716 921 703 923 l 720 957 q 643 983 695 969 q 664 988 654 988 q 694 980 675 988 q 723 972 713 972 l 723 978 q 731 1016 722 992 q 740 1053 740 1040 q 723 1066 740 1066 q 713 1073 716 1066 q 593 1102 654 1087 q 471 1118 523 1118 m 390 1083 q 362 1079 377 1082 q 340 1066 347 1076 q 362 1079 347 1076 q 390 1083 377 1082 m 332 1063 l 318 1053 l 332 1063 m 570 1048 l 554 1047 q 633 1038 587 1050 q 713 1020 674 1028 q 570 1048 614 1051 m 258 1041 l 261 1008 l 258 1041 m 376 1041 l 376 1040 q 367 1037 376 1037 l 360 1037 q 374 1041 367 1041 l 376 1041 m 402 1005 q 324 975 374 999 q 402 1005 367 1005 m 261 975 l 264 975 l 264 1001 l 261 1001 l 261 975 m 201 964 q 177 922 177 951 q 219 881 177 881 q 261 924 261 881 q 213 966 261 969 l 201 964 m 399 957 q 383 954 392 956 q 399 957 387 956 m 445 928 q 419 926 434 930 l 445 928 m 163 892 l 159 892 l 170 813 l 172 813 q 163 892 169 839 m 217 852 l 213 856 l 217 842 l 217 852 m 239 794 q 221 834 221 803 q 239 794 223 813 m 169 714 q 136 816 159 727 q 169 714 145 768 m 224 726 q 240 686 240 688 q 268 656 252 665 l 268 663 q 243 694 255 671 q 224 726 231 718 m 277 651 q 253 627 269 642 q 248 607 248 617 q 289 562 248 562 q 313 570 305 562 q 332 606 332 575 q 329 630 332 619 q 287 651 308 651 l 277 651 m 515 634 l 551 624 q 539 620 545 620 q 527 622 535 620 q 515 624 519 624 l 510 624 l 506 606 q 528 601 515 607 q 502 598 523 597 q 503 590 505 594 q 499 580 499 582 q 506 572 499 575 q 484 548 497 567 l 496 540 q 486 538 492 538 q 460 546 477 538 q 432 555 442 555 l 426 555 l 438 545 q 463 517 438 525 q 502 500 496 509 q 494 500 500 500 q 471 507 487 500 q 447 515 455 515 q 425 496 425 515 q 426 493 425 494 q 477 478 445 493 l 468 477 q 442 481 458 477 q 416 486 425 486 q 445 470 421 475 q 477 452 470 464 q 541 407 512 447 q 587 341 564 374 l 594 344 l 596 348 q 591 360 596 352 q 586 370 586 367 q 590 377 586 374 q 599 368 596 376 q 604 354 603 355 q 630 387 630 377 l 648 380 q 445 243 548 243 q 293 279 381 243 l 285 272 q 125 351 248 285 q 114 308 114 305 q 133 288 114 289 q 125 283 131 282 q 118 288 120 288 l 115 288 l 114 282 q 127 267 114 273 q 140 254 140 261 q 133 253 137 253 q 110 258 124 253 q 89 264 96 264 l 85 264 l 85 258 q 96 245 85 248 q 82 243 94 241 q 78 225 79 237 l 85 218 l 79 215 q 73 190 73 190 q 89 177 73 179 l 83 177 q 60 148 63 179 q 452 45 283 45 q 580 59 507 45 q 695 102 665 76 l 700 102 q 720 94 704 102 q 730 135 730 101 l 732 141 q 772 173 758 146 q 789 225 776 183 l 779 224 l 772 228 q 793 281 774 245 q 812 336 812 316 q 801 367 812 352 q 803 386 803 375 q 701 555 803 478 q 515 634 613 623 m 551 620 q 677 526 665 578 q 551 620 645 593 m 614 548 q 528 598 561 590 q 614 548 578 590 m 619 490 q 583 527 609 512 q 535 558 558 543 q 619 490 600 526 m 590 464 q 544 506 568 484 q 496 536 519 527 q 590 464 554 506 m 551 464 q 502 496 533 474 q 551 464 505 496 m 477 476 q 571 399 512 468 q 477 476 531 464 m 729 428 q 693 476 714 455 q 729 428 704 467 m 775 377 q 734 464 768 413 q 759 423 748 444 q 775 377 774 397 m 772 460 l 792 416 l 772 460 m 684 432 l 669 452 l 680 435 l 684 432 m 669 406 q 648 442 665 406 l 669 406 m 626 396 l 619 406 l 626 387 l 626 396 m 713 344 q 738 368 724 350 q 759 392 752 387 q 746 399 752 399 q 726 376 736 399 q 713 344 720 360 m 749 354 q 720 315 740 341 q 749 354 726 335 m 710 312 q 643 282 682 284 q 626 266 635 274 q 617 245 617 257 q 634 215 617 228 q 669 202 651 202 q 703 232 684 202 l 701 252 q 710 312 700 274 m 720 257 l 746 294 l 746 292 q 734 274 746 287 q 720 257 723 261 m 217 261 q 175 266 195 264 q 136 282 150 270 q 175 267 147 268 q 217 261 208 264 m 386 174 q 308 216 359 180 q 224 257 257 252 q 309 216 257 251 q 386 174 360 182 m 337 242 q 438 211 373 211 q 492 215 463 211 q 451 211 471 211 q 337 242 392 211 m 103 206 l 145 196 l 103 206 m 383 122 q 327 156 361 131 q 271 192 288 183 q 383 122 307 166 m 551 153 q 623 192 590 160 q 551 153 614 177 m 221 177 q 214 176 218 176 q 205 179 211 176 q 195 182 198 182 q 188 174 191 182 q 213 148 210 151 q 245 134 229 135 q 188 182 191 153 l 221 177 m 332 79 q 221 109 283 79 q 118 163 169 135 q 221 111 136 157 q 332 79 283 78 m 330 122 q 281 153 308 134 q 330 122 301 138 m 607 102 q 674 134 632 112 l 669 138 l 687 153 l 693 148 q 607 102 685 143 m 390 119 l 435 112 l 390 119 m 594 98 l 583 98 l 574 93 l 594 98 "},"a":{"x_min":24.875,"x_max":1001.515625,"ha":1026,"o":"m 506 610 q 499 583 503 594 q 506 610 500 596 m 516 659 q 519 669 517 667 l 516 659 m 156 208 q 138 169 140 169 q 138 170 138 169 l 156 208 m 480 586 l 476 583 l 480 597 l 480 586 m 483 631 q 481 648 481 636 l 483 631 m 520 652 q 530 668 526 655 q 538 683 533 680 l 541 670 q 535 671 539 673 q 506 610 516 631 q 516 660 513 644 l 520 652 m 525 683 q 519 670 525 678 l 525 683 m 253 508 q 256 500 256 503 q 250 484 256 493 l 253 508 m 245 460 q 244 467 244 464 q 250 484 244 474 l 245 460 m 257 515 q 282 628 261 561 q 316 739 313 728 q 283 628 312 720 q 257 515 261 561 m 164 144 q 176 175 167 157 l 164 144 m 481 652 q 502 713 481 684 q 481 648 483 676 l 481 652 m 464 389 q 528 403 489 389 q 590 424 572 421 q 449 376 496 393 q 520 612 474 474 q 542 652 545 629 l 542 652 q 594 502 574 551 q 630 515 600 503 q 669 524 653 524 q 619 499 645 518 q 574 467 580 470 q 523 451 568 464 q 480 424 491 442 q 552 444 507 425 q 625 467 603 464 q 550 438 599 461 q 476 408 502 415 l 464 389 m 538 545 q 536 524 542 535 q 531 508 531 513 q 535 497 531 502 l 546 502 l 546 509 q 538 545 546 513 m 461 678 l 457 675 l 461 690 l 461 678 m 243 450 q 235 427 243 450 q 234 424 234 424 q 235 427 234 424 l 237 432 q 243 453 240 445 l 243 450 m 721 733 l 725 733 l 725 720 l 720 720 l 721 733 m 721 761 l 718 761 l 718 775 l 720 775 l 721 761 m 708 568 q 708 562 710 565 q 708 568 708 565 m 731 668 q 736 652 736 657 l 736 651 q 735 657 735 654 l 731 668 m 817 534 q 819 557 817 550 q 774 678 791 605 q 746 804 759 741 q 781 665 749 759 q 817 534 814 570 m 706 542 q 712 552 706 547 l 709 563 q 719 555 710 555 q 727 557 722 555 q 735 557 733 557 q 788 579 769 573 q 793 552 787 568 q 800 528 800 535 q 799 518 800 525 q 798 508 799 512 q 784 510 790 510 q 762 505 775 510 q 743 497 749 499 q 772 510 746 500 q 793 531 793 519 q 780 563 793 532 q 706 538 726 551 l 706 542 m 739 842 q 744 813 745 823 l 739 842 m 528 935 q 496 812 510 852 q 520 935 512 893 l 528 935 m 687 994 l 682 994 l 683 1008 l 687 1008 l 687 994 m 601 678 q 606 664 606 668 l 606 662 q 604 667 604 664 l 601 678 m 594 716 q 599 693 599 694 l 599 693 q 593 710 593 693 q 594 716 593 713 m 483 765 q 496 812 487 784 q 483 765 490 786 m 594 723 l 590 723 l 590 739 l 594 739 l 594 723 m 670 363 q 628 410 628 386 q 647 444 628 434 q 674 457 655 457 q 718 438 700 457 q 721 415 721 426 q 706 376 721 387 q 666 357 700 371 l 670 363 m 646 920 l 643 920 l 643 939 l 646 939 l 646 920 m 625 820 l 620 820 l 620 835 l 625 835 l 625 820 m 432 728 q 442 757 436 752 q 432 728 441 745 m 626 341 q 620 341 623 341 l 626 341 m 672 267 q 680 262 680 267 q 680 250 680 248 q 672 267 677 256 m 448 274 l 449 276 l 449 274 l 448 274 m 682 245 q 680 250 680 247 l 682 245 m 526 305 q 463 283 490 290 q 526 305 483 293 m 448 274 q 444 274 445 274 q 448 274 444 274 m 599 334 q 526 305 575 318 q 599 334 588 330 m 457 282 l 463 283 l 457 279 l 457 282 m 682 245 q 684 241 684 243 q 682 245 682 244 m 630 344 l 638 344 l 627 341 l 626 341 l 630 344 m 820 402 l 827 379 q 820 402 826 386 m 201 234 q 176 175 186 193 q 201 234 189 214 m 817 415 l 820 402 l 817 415 m 884 523 q 879 500 879 510 q 903 434 879 473 q 936 367 932 386 q 972 269 942 341 q 1001 167 997 208 q 916 125 975 151 q 827 81 856 99 q 691 15 754 34 q 655 124 673 53 q 625 234 636 204 q 515 212 576 231 q 409 175 509 211 q 328 0 354 57 q 191 68 276 37 q 184 96 191 85 q 160 82 173 82 q 120 102 146 82 q 79 130 89 127 q 46 143 62 137 q 24 167 24 153 q 33 185 24 167 q 143 452 88 293 q 236 726 189 588 l 239 720 q 243 731 243 731 q 240 747 243 737 q 237 762 237 756 q 246 778 237 770 q 328 1119 301 914 q 363 1131 343 1131 q 396 1127 375 1131 q 428 1124 418 1124 l 435 1108 l 445 1128 q 554 1108 499 1108 q 691 1153 638 1108 q 757 1158 735 1142 q 755 1100 755 1129 q 794 807 755 965 q 884 523 820 706 m 665 1103 l 673 1078 l 673 1086 l 665 1103 m 601 852 q 590 864 590 856 l 590 868 l 599 871 q 623 998 617 955 q 583 849 587 861 l 587 852 l 590 842 q 572 818 578 835 q 561 787 567 801 q 567 777 567 783 q 557 762 567 772 q 548 742 548 751 l 549 739 q 555 741 552 741 q 564 722 565 741 l 564 716 q 575 741 572 726 q 575 770 575 745 q 580 797 575 788 l 572 790 l 567 797 q 587 813 574 813 l 590 813 q 601 852 597 839 m 813 251 q 865 139 849 178 q 964 178 956 176 q 901 370 924 308 q 842 510 842 413 q 843 552 842 528 q 721 1116 731 738 q 703 1120 709 1120 q 680 1085 680 1120 q 680 1039 680 1037 l 672 1050 q 650 982 662 1030 q 625 913 638 935 q 617 839 625 904 l 612 842 q 587 742 599 803 l 583 745 q 573 715 581 736 q 567 680 565 693 l 567 671 q 554 712 554 689 q 557 730 554 722 q 543 707 549 725 q 528 683 536 689 l 525 686 q 625 1083 594 895 l 617 1083 q 613 1076 616 1083 q 609 1068 610 1069 l 606 1079 l 589 1079 q 515 1074 539 1077 l 499 1076 q 558 1026 558 1065 q 549 998 558 1016 q 539 970 539 980 q 547 948 539 960 l 535 944 q 522 960 529 944 q 505 977 515 977 q 493 974 499 977 q 470 994 481 984 q 458 1021 458 1003 q 487 1079 458 1047 l 445 1083 q 390 889 427 944 l 383 896 q 406 1093 400 976 l 367 1093 q 326 925 361 1073 q 291 774 291 776 q 280 733 291 742 q 238 574 262 687 q 194 415 218 468 q 186 390 189 411 q 168 367 182 369 q 165 385 165 376 q 175 426 165 398 q 183 470 185 454 l 183 479 l 153 379 q 115 281 144 345 q 75 182 85 217 q 95 172 91 172 q 104 178 101 172 q 127 149 108 162 l 130 160 q 139 154 139 160 q 136 149 139 153 q 136 141 133 144 l 153 134 l 162 141 l 165 125 q 201 175 181 138 q 238 222 221 211 l 238 217 q 233 170 240 201 q 227 124 227 140 q 231 96 227 110 q 272 78 249 81 l 275 86 q 308 62 291 60 l 312 63 q 360 175 338 99 q 402 289 385 259 l 405 280 q 398 257 402 264 q 419 296 413 262 q 444 327 424 327 l 450 327 q 438 319 445 318 l 438 308 q 460 315 468 315 q 464 312 463 315 q 428 275 435 305 l 442 270 l 428 263 q 415 237 415 246 q 416 231 415 234 q 628 296 510 267 l 638 286 q 620 282 626 280 q 538 248 567 263 q 582 261 554 248 q 626 273 610 273 q 657 257 648 273 q 717 68 697 143 q 818 115 783 101 q 773 282 778 263 q 786 289 777 289 l 792 289 q 806 251 792 251 l 813 251 m 717 286 q 723 290 719 289 l 717 286 m 745 267 q 746 257 746 263 l 745 267 m 799 444 q 813 305 810 351 q 777 295 801 298 q 744 286 754 292 l 745 267 q 723 290 738 293 l 728 293 l 720 298 q 699 289 706 293 l 720 305 q 709 306 715 306 q 680 300 699 306 q 651 293 661 293 l 647 293 q 780 348 738 327 l 794 334 q 802 350 802 343 q 797 366 802 356 q 793 383 793 377 q 799 396 793 390 l 799 444 m 706 282 l 712 267 l 712 257 l 706 282 m 843 275 q 827 319 830 298 l 843 275 m 390 534 q 412 609 406 577 q 390 534 409 577 m 457 279 q 449 276 454 276 q 457 279 454 277 m 390 534 q 371 486 384 518 l 390 534 m 412 620 l 412 613 q 397 632 397 615 l 399 644 q 406 620 396 626 l 412 620 m 212 457 q 153 293 199 398 q 212 457 195 402 m 287 251 l 286 248 l 286 248 l 286 251 l 290 262 l 287 251 m 338 396 q 328 358 328 367 q 345 334 328 343 q 347 322 347 322 q 319 279 347 306 q 290 262 302 279 l 293 267 q 253 319 253 303 l 248 322 q 235 305 241 317 q 257 360 250 340 l 261 348 q 309 367 274 364 l 312 360 q 328 374 322 361 q 338 396 334 386 m 412 612 l 412 609 l 412 613 l 412 612 m 217 260 q 235 305 228 293 l 217 260 m 399 643 q 402 652 399 648 l 399 643 m 551 399 q 513 385 522 387 l 551 399 m 489 374 q 513 385 502 382 l 489 374 m 445 360 q 489 374 463 366 q 452 360 463 358 l 445 360 m 551 399 q 583 408 570 406 q 551 399 568 405 m 432 727 q 428 716 432 720 l 432 727 m 416 408 q 426 432 418 418 l 416 408 m 406 293 l 416 334 l 416 319 l 406 293 m 426 432 q 438 479 436 461 l 438 471 q 426 432 439 460 "},"T":{"x_min":22.5,"x_max":927.46875,"ha":949,"o":"m 865 1149 q 876 1158 868 1158 q 895 1158 897 1158 q 904 1005 899 1127 q 923 854 905 908 q 927 841 927 842 q 907 826 927 832 q 879 818 894 822 q 765 808 823 813 q 654 787 697 802 q 645 562 645 673 q 695 31 645 277 q 587 20 613 20 l 581 28 q 510 8 569 18 q 430 0 456 0 q 234 65 344 0 q 276 224 274 160 q 267 247 267 234 q 277 281 267 260 q 291 318 290 312 q 322 613 322 425 q 311 804 322 681 q 22 843 152 821 q 35 940 26 857 q 71 1027 41 1002 q 103 1158 83 1070 q 478 1114 268 1114 q 865 1149 671 1114 m 864 1110 q 455 1076 649 1076 q 128 1104 278 1076 l 122 1057 q 202 1050 163 1054 q 280 1030 273 1041 q 202 1038 254 1030 q 122 1047 150 1047 l 116 1047 l 116 1035 q 111 1021 111 1027 q 121 1010 111 1015 q 132 996 132 1005 q 131 991 132 993 q 76 963 76 995 q 77 952 76 963 q 179 938 116 942 q 280 933 276 933 l 280 930 q 219 926 251 926 q 71 941 154 926 l 71 910 q 143 902 96 910 q 213 895 190 895 l 213 891 l 190 890 q 69 899 186 890 l 64 871 q 184 855 102 863 q 303 838 262 847 l 303 834 q 346 831 314 831 q 385 824 374 831 l 378 815 q 358 820 369 820 l 333 818 q 381 813 350 818 l 386 562 l 381 562 l 383 601 q 380 702 383 640 q 376 804 376 779 l 351 804 q 360 555 360 627 q 352 396 360 485 q 319 251 340 268 q 331 210 331 235 q 322 144 331 189 q 300 86 310 89 q 295 115 297 90 q 290 100 295 109 q 285 86 285 90 q 306 73 285 77 q 330 64 328 69 l 346 118 q 354 102 354 111 q 346 79 354 93 q 339 60 339 66 q 374 43 339 43 q 401 72 407 43 q 406 45 406 68 l 430 45 l 443 131 q 443 45 450 86 q 456 42 450 42 q 469 63 466 42 q 476 95 470 91 q 476 276 476 86 q 485 432 476 367 l 496 423 q 500 52 494 299 l 521 52 l 526 185 q 531 117 532 161 q 535 52 530 72 l 567 52 l 569 212 l 578 212 l 593 67 l 605 67 q 613 79 603 75 l 620 67 l 624 67 q 636 76 625 67 q 610 428 612 229 q 609 785 609 447 l 551 785 q 551 748 551 788 q 548 721 551 732 q 544 784 545 730 l 542 795 q 600 803 555 804 q 647 824 637 803 l 645 827 l 653 834 q 747 844 682 836 q 843 852 808 852 q 877 896 877 852 q 873 938 877 899 q 876 979 872 964 q 665 961 805 970 l 665 969 q 767 986 698 978 q 870 1003 837 995 l 867 1038 q 786 1030 844 1036 q 704 1022 734 1022 q 656 1027 678 1022 q 775 1038 715 1032 q 870 1066 869 1048 q 826 1071 857 1075 q 782 1075 795 1067 l 864 1086 l 864 1110 m 419 986 q 454 947 419 967 q 491 903 489 926 q 489 916 489 909 q 503 951 489 929 q 518 988 518 973 q 504 1019 518 1005 q 471 1034 490 1034 q 419 986 419 1034 m 330 985 q 183 996 235 990 q 330 985 232 995 m 500 891 q 554 906 520 901 q 609 910 609 910 q 541 908 607 910 q 500 891 505 906 m 840 910 q 746 899 814 906 q 794 906 761 907 q 840 910 827 906 m 430 815 l 430 804 l 434 804 q 443 687 443 689 l 443 674 l 437 795 q 444 806 437 802 q 457 807 451 810 q 467 810 463 810 q 482 776 482 810 q 477 794 477 786 q 575 818 477 818 q 587 834 585 818 q 430 815 490 810 m 578 701 l 581 701 l 581 733 l 578 733 l 578 701 m 542 694 l 539 640 l 542 694 m 425 264 l 429 264 l 430 287 l 425 287 l 425 264 m 420 256 l 413 146 l 420 256 m 369 221 l 351 118 l 369 221 m 307 182 l 303 154 l 307 182 m 606 154 l 608 86 l 606 154 m 300 122 l 303 122 l 303 137 l 300 137 l 300 122 m 409 137 l 406 76 l 409 137 "},"N":{"x_min":24.0625,"x_max":982,"ha":1006,"o":"m 380 1110 l 441 1110 q 460 1002 451 1056 q 528 923 479 942 q 572 842 553 900 q 612 758 592 780 q 645 1121 615 801 q 798 1095 693 1105 l 813 1107 q 970 1121 876 1107 q 982 1080 982 1104 q 975 1004 982 1093 q 950 774 961 888 q 939 541 939 639 q 899 607 907 564 l 915 616 q 925 855 920 736 q 951 1088 933 1015 q 924 1083 937 1083 q 916 1083 921 1083 q 911 1083 911 1083 q 904 1069 904 1083 q 904 995 904 1099 l 895 995 q 893 1040 893 1005 q 879 1079 893 1067 q 849 1076 858 1075 q 812 965 823 1024 l 809 965 q 805 1019 805 978 q 792 1068 805 1052 q 757 1063 776 1063 q 713 1067 743 1063 q 669 1071 683 1071 q 659 903 659 1020 q 645 733 660 793 q 641 707 641 719 q 661 649 641 681 q 692 596 691 599 q 571 775 610 709 q 528 856 556 803 q 491 890 517 871 q 455 923 464 910 q 354 1095 398 1002 q 343 1107 350 1107 q 327 1099 337 1107 q 311 1091 317 1092 q 380 974 356 1030 l 311 1082 q 279 1088 308 1088 l 272 1079 q 303 1031 288 1065 l 299 1020 l 288 1020 l 283 1028 l 275 1024 l 275 1015 q 224 1053 246 1018 q 185 1106 192 1101 l 173 1095 l 217 1028 l 169 1095 q 154 1078 154 1088 q 167 1054 154 1069 q 182 1028 180 1038 q 221 965 196 1014 q 185 1023 214 974 q 143 1076 164 1059 q 125 1065 140 1072 q 109 1052 109 1058 l 109 1043 q 361 667 215 914 q 237 864 299 765 q 98 1052 161 981 l 88 1043 q 177 895 108 1004 q 263 745 237 804 q 241 765 251 749 q 224 793 225 791 q 230 589 224 791 q 224 704 224 612 q 185 851 224 809 q 197 657 197 686 q 187 557 197 597 q 197 641 197 596 q 186 758 197 683 q 173 875 174 841 l 157 890 q 166 699 166 793 q 137 395 166 558 q 79 101 108 248 q 91 92 82 92 q 109 94 98 92 q 162 312 140 163 q 115 93 160 245 q 133 88 122 95 q 148 80 143 80 l 157 80 q 173 122 170 93 q 182 167 177 157 l 166 81 q 217 54 183 59 q 252 247 252 103 q 263 306 252 283 l 271 306 q 252 225 252 277 q 251 140 251 146 q 236 94 246 118 q 230 50 235 79 q 263 42 240 46 q 296 191 296 163 q 291 231 296 212 l 302 267 q 299 185 299 254 q 272 47 299 167 q 298 39 304 39 q 308 42 298 39 q 333 130 320 86 q 345 220 345 180 q 342 259 345 240 q 346 222 346 241 q 332 132 346 192 q 319 42 319 72 q 335 53 325 39 q 400 471 377 218 q 354 565 385 502 q 347 538 344 547 l 346 548 q 342 596 347 564 l 347 600 q 637 59 472 406 q 654 68 638 60 q 666 78 666 74 q 567 285 666 92 q 448 505 472 469 q 566 296 505 429 q 669 78 651 110 q 696 98 677 84 q 645 243 695 152 q 687 183 655 219 q 661 249 684 208 q 634 312 638 290 q 697 214 652 292 q 770 125 734 150 l 792 128 q 777 170 790 146 q 758 211 761 201 q 783 166 764 205 q 817 128 796 137 q 817 108 817 134 q 822 92 817 92 q 834 93 825 92 q 845 93 842 95 q 848 146 846 98 l 849 156 l 856 86 l 876 86 q 881 111 881 96 q 878 137 881 119 q 876 163 876 154 q 907 206 876 193 q 887 273 907 231 q 868 318 868 315 q 868 438 868 318 q 874 353 869 431 q 900 273 875 301 l 895 486 q 878 510 878 489 q 885 549 878 516 l 888 552 q 903 526 896 548 q 926 502 909 503 q 937 402 928 479 q 943 301 943 340 q 938 231 943 263 q 924 244 930 233 q 915 259 918 256 l 914 250 q 920 223 914 241 q 927 195 927 205 l 939 206 l 946 53 q 910 41 931 41 q 868 48 895 41 q 829 55 842 55 q 783 30 800 55 q 706 31 784 31 q 612 0 641 31 q 432 387 553 157 q 402 199 418 334 q 366 11 386 71 q 212 20 315 12 q 24 75 147 43 q 121 735 121 422 q 109 937 121 838 q 64 995 87 966 q 28 1059 37 1030 q 173 1143 79 1084 q 217 1098 195 1131 q 256 1049 243 1059 q 258 1058 258 1053 q 244 1082 258 1066 q 233 1110 231 1098 q 257 1103 246 1103 q 309 1130 279 1103 q 348 1158 338 1158 q 380 1110 367 1158 m 419 1079 l 405 1079 l 425 1052 l 419 1079 m 260 1049 l 274 1028 l 260 1049 m 861 969 l 865 969 l 865 1028 l 860 1028 l 861 969 m 771 974 l 774 1024 q 771 974 774 981 m 252 939 q 269 902 252 913 q 302 887 282 887 q 335 902 322 887 q 349 937 349 917 q 298 984 349 984 q 252 939 252 984 m 731 969 q 699 890 730 939 q 667 812 669 841 q 689 861 669 832 q 714 907 709 891 l 720 907 q 731 961 731 959 l 731 969 m 506 742 q 354 965 414 867 l 506 742 m 765 965 q 754 914 760 940 q 734 867 747 884 q 678 696 678 796 q 686 655 678 661 q 684 689 684 671 q 720 827 684 752 q 765 965 760 910 m 856 951 q 854 929 854 939 q 891 843 854 896 q 867 887 879 864 q 855 930 855 910 q 856 951 855 940 m 798 907 l 801 907 l 801 937 l 798 937 l 798 907 m 414 839 q 366 917 403 852 q 414 839 386 893 m 798 896 q 792 871 792 882 q 823 806 792 848 q 855 723 855 765 q 825 615 855 686 q 798 505 795 544 l 798 493 q 827 607 796 537 q 859 716 859 678 q 825 812 859 775 q 791 868 791 849 q 798 896 791 881 m 350 890 q 511 639 399 819 q 354 890 473 719 l 350 890 m 762 811 q 726 769 743 798 q 709 719 709 740 q 720 674 709 701 q 734 630 731 642 q 747 612 740 627 q 763 596 754 596 q 773 600 763 596 q 802 752 802 717 q 800 781 802 766 q 762 811 790 798 m 759 800 q 720 710 720 746 q 734 652 720 688 q 770 607 751 612 q 798 776 792 665 q 767 803 780 803 q 759 800 767 803 m 759 758 q 742 719 742 745 q 753 658 742 704 q 771 726 771 681 l 771 736 q 765 749 766 739 q 759 758 765 758 m 758 745 q 749 709 749 733 q 753 671 749 690 q 759 699 753 681 q 766 725 766 716 q 758 745 766 736 m 269 725 q 276 616 276 677 q 269 502 276 554 q 272 697 282 571 l 283 706 q 277 720 280 712 q 269 725 274 728 m 742 577 l 739 513 l 742 577 m 342 490 l 348 490 l 347 513 l 342 513 l 342 490 m 618 463 q 655 389 628 434 q 698 318 691 331 l 698 325 q 618 463 671 372 m 798 463 l 792 438 q 785 451 783 450 l 773 451 q 809 387 785 438 q 852 332 830 345 q 831 412 843 358 l 833 399 q 828 387 833 399 q 806 416 818 400 q 798 442 795 431 l 801 442 q 801 458 801 442 q 798 463 801 461 m 528 460 l 534 442 l 528 460 m 593 325 q 547 424 576 357 q 593 325 564 392 m 690 274 q 739 230 690 230 q 782 277 782 230 q 736 322 782 322 q 690 274 690 322 m 840 159 q 792 231 825 183 l 840 159 m 924 195 l 885 167 q 885 141 887 157 q 883 115 883 118 q 904 86 883 89 q 911 143 912 99 q 924 195 909 182 m 695 171 q 735 69 695 171 l 735 77 q 720 127 736 99 q 695 171 697 167 m 803 114 q 797 103 800 108 q 789 101 794 98 l 792 75 q 809 98 809 75 q 803 114 809 104 m 770 105 q 762 91 762 102 q 762 66 762 66 l 778 66 l 778 72 q 770 105 778 99 m 751 89 l 751 66 q 755 82 755 70 l 751 89 "},"K":{"x_min":20.09375,"x_max":857.796875,"ha":878,"o":"m 389 914 l 400 914 q 598 1153 468 992 l 610 1153 q 655 1086 614 1148 q 716 1046 681 1046 q 724 1034 724 1042 q 718 1019 724 1029 q 713 1001 713 1010 q 721 997 717 997 q 732 1003 724 997 q 746 1008 740 1008 q 762 966 749 994 q 775 922 775 939 q 773 906 775 914 l 785 896 l 503 590 q 675 418 530 564 q 857 254 779 311 q 811 186 850 234 q 784 140 797 163 q 743 114 765 111 q 665 55 714 81 q 575 14 620 34 q 488 170 569 24 q 389 319 436 266 q 374 169 383 285 q 351 21 368 76 l 303 22 q 161 7 224 24 l 153 21 q 140 14 144 22 q 130 0 132 1 q 66 39 121 10 q 23 86 23 62 q 31 114 23 88 q 91 567 91 275 q 66 807 91 673 q 20 1043 43 926 q 63 1050 41 1047 q 92 1076 91 1056 q 213 1134 132 1095 q 244 1126 228 1126 q 332 1158 274 1126 q 389 914 377 1067 m 300 1101 q 278 1093 292 1101 q 255 1085 264 1085 l 274 1001 l 264 992 q 213 1088 250 1027 q 202 1072 202 1082 q 207 1053 202 1065 q 212 1033 212 1040 q 210 1023 212 1033 q 199 1062 196 1042 q 183 1071 193 1071 q 134 1050 181 1071 q 156 882 154 959 q 146 943 143 903 q 119 982 132 953 q 96 1020 106 1010 l 92 1001 q 83 1013 80 1013 l 77 1011 q 140 525 140 777 q 77 86 140 279 l 86 79 l 92 79 q 137 303 122 153 l 153 317 q 134 191 140 215 q 99 70 121 121 q 137 46 111 59 q 153 94 143 53 q 180 133 158 125 q 183 87 184 120 q 190 40 182 55 l 198 40 q 231 81 225 40 q 240 140 235 110 l 245 140 q 240 52 245 111 q 283 56 255 50 l 283 62 q 298 167 290 97 q 305 138 305 154 q 297 99 305 125 q 290 57 289 72 l 290 52 l 317 52 q 331 165 318 86 q 343 277 343 237 q 346 312 343 289 q 350 347 350 335 q 317 400 350 389 l 317 393 q 309 373 317 399 q 305 385 305 376 l 305 387 q 310 398 310 393 q 286 419 310 400 l 279 403 q 271 428 274 421 q 255 448 267 442 q 237 251 250 383 q 236 289 236 269 q 240 386 236 298 q 237 483 243 445 l 249 495 q 247 534 247 515 q 229 567 244 558 q 222 457 225 492 q 202 350 216 396 q 209 440 203 374 q 213 531 215 497 l 213 555 q 191 580 203 555 q 179 616 179 605 q 188 639 179 628 q 206 662 197 651 l 210 658 q 202 625 202 644 q 213 609 202 610 l 212 599 q 217 590 212 590 q 233 596 223 590 q 246 602 244 602 l 251 600 q 268 579 254 581 q 299 579 284 579 l 304 579 q 289 544 296 561 q 264 513 277 522 q 263 519 263 516 q 266 533 263 524 q 270 547 270 542 q 254 522 256 544 q 254 490 254 506 q 251 479 254 483 l 264 467 l 283 483 q 286 476 286 482 q 279 468 286 474 q 273 460 273 463 q 298 447 273 447 q 332 460 312 447 q 363 483 347 471 l 369 484 q 400 473 386 484 q 427 448 413 461 l 422 448 q 402 460 416 448 q 377 471 387 471 q 359 448 360 461 q 437 387 393 441 q 492 301 473 343 q 428 380 460 340 q 354 438 379 438 q 320 411 341 438 q 332 412 326 412 q 484 263 388 412 q 598 60 542 162 q 649 86 620 65 q 696 117 683 111 q 673 191 682 172 q 628 254 657 228 l 631 257 q 746 159 668 222 q 750 166 750 162 q 744 172 750 167 q 738 179 738 176 q 743 186 738 183 l 759 175 q 764 189 764 182 q 746 226 764 202 q 724 257 727 250 q 736 262 730 262 q 764 244 747 262 q 792 220 786 222 q 805 237 805 231 q 789 266 805 235 l 472 560 q 462 547 462 554 q 478 526 462 539 q 495 506 494 513 l 491 503 l 453 535 l 435 516 l 461 487 l 456 483 l 419 513 q 410 502 410 502 l 404 503 l 404 508 q 423 542 404 522 q 442 574 442 561 q 611 757 449 583 q 751 924 751 907 q 743 936 751 929 q 734 943 736 943 l 666 880 l 662 882 l 727 955 l 724 966 q 656 909 695 952 q 591 845 610 858 l 586 849 q 610 890 607 865 q 686 1023 659 926 l 652 1023 q 624 985 644 1008 l 621 990 q 643 1027 630 1001 q 639 1058 641 1043 q 621 1082 636 1074 q 586 1020 613 1047 l 584 1023 q 594 1043 585 1032 q 602 1063 595 1049 q 610 1084 610 1076 q 602 1092 610 1089 q 237 690 481 937 l 232 693 q 287 775 244 729 q 351 852 338 830 q 353 884 353 868 q 335 1004 353 919 q 300 1101 316 1101 m 302 1032 l 290 1055 l 302 1011 l 302 1032 m 168 1032 l 176 990 l 168 1032 m 221 971 l 213 1023 l 221 959 q 221 971 221 971 m 584 1020 q 529 964 577 1010 q 584 1020 548 982 m 115 914 q 96 1001 109 943 q 115 914 105 972 m 305 971 l 310 971 l 309 1001 l 305 1001 l 305 971 m 559 952 q 576 971 564 951 q 591 992 588 991 q 559 952 591 975 m 622 985 q 529 868 585 948 l 622 985 m 181 959 l 183 959 l 184 978 l 180 978 l 181 959 m 309 896 l 314 896 l 314 964 l 310 964 l 309 896 m 195 861 l 195 867 q 188 902 195 878 q 182 939 182 926 q 184 952 182 945 q 195 861 185 935 m 127 852 l 118 901 l 127 841 q 127 852 127 852 m 613 796 q 701 890 643 827 q 613 796 662 833 m 134 814 q 129 833 134 814 l 134 803 l 134 814 m 480 806 l 405 715 l 480 806 m 426 787 l 397 749 l 426 787 m 332 738 q 302 693 302 723 q 315 663 302 674 q 342 644 329 652 l 335 635 q 309 593 316 635 q 327 618 310 605 q 348 639 343 631 l 342 644 q 380 660 372 654 q 393 694 393 670 q 388 719 393 706 q 343 739 368 739 l 332 738 m 372 597 l 358 581 l 372 597 m 165 429 q 172 571 173 547 q 176 531 176 552 q 165 429 176 493 m 286 483 q 320 544 296 505 l 286 483 m 199 487 l 195 513 l 195 483 l 199 487 m 587 400 l 496 503 q 541 452 513 489 q 587 400 568 415 m 461 483 l 476 467 l 476 471 q 461 483 464 483 m 426 444 l 457 411 l 426 444 m 270 350 l 274 350 l 274 364 l 270 364 l 270 350 m 184 301 q 162 170 176 257 q 186 273 166 205 l 188 288 q 184 301 188 288 m 662 111 q 601 197 640 137 q 538 285 562 257 q 601 199 567 259 q 662 111 640 134 m 613 273 l 629 257 l 629 262 q 613 273 625 267 m 667 270 l 740 186 l 667 270 m 541 214 q 580 154 557 196 q 622 95 603 112 q 541 214 620 95 "},"d":{"x_min":24.109375,"x_max":938,"ha":962,"o":"m 404 183 q 397 111 401 144 q 404 183 398 137 m 408 332 q 412 280 412 308 q 404 183 412 250 q 408 332 409 260 m 408 387 q 399 431 399 409 q 409 493 399 438 l 408 387 m 408 1086 l 413 1086 l 412 1063 l 409 1063 l 408 1086 m 333 694 q 334 727 333 708 l 333 694 m 408 551 q 409 493 413 525 l 408 551 m 342 865 q 346 826 346 846 q 334 727 346 839 l 342 865 m 806 680 q 795 719 795 714 l 795 724 l 806 680 m 288 930 q 329 972 288 972 q 377 924 377 972 q 331 881 377 881 q 288 930 288 881 m 782 580 q 779 564 780 571 q 782 580 780 577 m 804 846 q 773 894 791 859 q 741 943 756 928 q 804 846 783 902 m 749 616 q 750 612 749 614 q 749 616 749 614 m 760 542 q 779 564 773 551 q 765 542 776 548 l 760 542 m 750 612 q 749 580 750 591 q 750 612 749 584 m 742 546 q 750 544 746 545 q 742 546 745 544 m 782 580 l 785 599 l 788 588 l 782 580 m 761 542 q 750 544 758 539 l 761 542 m 323 332 l 323 302 l 318 302 l 318 332 l 323 332 m 309 84 l 312 84 l 312 69 l 308 69 l 309 84 m 236 293 l 238 289 q 230 269 238 283 l 236 293 m 370 1001 l 367 1001 l 367 1025 l 368 1025 l 370 1001 m 228 264 l 228 264 l 228 264 l 228 266 l 230 269 l 228 264 m 333 1083 l 330 1083 l 330 1099 l 333 1099 l 333 1083 m 333 1072 q 339 1032 339 1032 l 339 1021 l 333 1072 m 233 998 q 236 966 237 978 l 233 998 m 156 1067 q 159 1047 160 1056 l 156 1067 m 217 329 q 204 277 213 305 l 217 329 m 204 278 q 150 111 179 187 q 204 278 186 223 m 275 519 l 272 519 l 272 542 l 275 542 l 275 519 m 291 406 q 287 334 291 403 q 268 266 284 287 l 245 186 l 244 195 q 262 302 243 238 q 291 406 288 393 m 242 302 q 245 324 240 313 l 242 302 m 309 865 l 308 752 l 295 876 l 309 865 m 265 219 q 305 254 265 254 q 348 216 348 254 q 337 184 348 198 q 310 170 326 170 q 265 219 265 170 m 762 620 q 770 609 769 620 l 760 620 l 762 620 m 253 858 l 256 858 l 256 843 l 253 843 l 253 858 m 245 939 l 242 939 l 242 959 l 244 959 l 245 939 m 245 931 l 253 881 q 253 869 253 881 l 245 931 m 694 321 q 760 448 743 396 q 733 385 749 406 q 710 341 730 372 q 691 297 691 311 l 691 291 l 679 321 l 663 314 l 682 324 q 661 343 677 343 q 630 333 650 343 q 602 321 611 323 q 540 297 582 307 q 478 275 494 284 l 465 256 q 462 262 465 256 q 454 266 458 268 l 450 259 l 442 272 q 435 202 435 249 q 426 132 435 155 q 435 444 435 273 q 430 749 435 545 q 426 1056 426 953 q 437 956 431 1018 q 449 999 437 957 q 452 984 449 992 q 463 977 456 976 l 453 970 l 456 950 q 487 947 466 947 q 517 943 507 947 l 517 948 q 504 975 517 967 q 516 987 513 975 q 536 1000 518 1000 q 566 994 546 1000 l 540 994 l 540 988 q 555 940 540 970 q 578 892 576 905 q 677 567 677 743 q 629 349 677 448 q 639 346 639 346 q 661 354 648 346 q 679 365 675 363 l 694 321 m 463 923 q 537 916 471 924 l 528 931 q 477 943 506 944 l 463 943 l 463 923 m 463 895 q 500 889 476 896 q 535 882 523 882 q 548 884 542 882 q 512 907 541 904 q 466 911 489 909 l 463 895 m 479 313 q 548 337 525 329 q 614 451 588 354 q 633 590 633 528 q 548 834 633 743 l 466 846 l 479 313 m 827 542 q 786 467 802 519 q 827 542 799 523 m 765 305 q 772 322 766 313 l 765 305 m 779 341 q 772 322 779 332 l 779 341 m 786 467 q 769 418 778 434 q 786 467 780 449 m 718 190 q 769 248 754 226 q 636 163 740 171 q 622 131 623 134 q 586 122 613 122 q 543 155 567 122 l 543 168 q 555 200 543 186 q 587 215 568 215 q 633 186 604 215 l 633 178 q 657 174 644 174 q 707 190 688 174 l 695 198 q 707 219 699 200 q 730 245 715 238 l 727 248 l 741 275 l 746 272 q 727 241 744 261 q 711 208 711 222 q 718 190 711 198 m 596 104 l 591 102 l 596 104 m 774 606 l 774 601 q 771 609 771 604 l 774 606 m 596 104 q 606 108 601 105 q 596 104 601 105 m 691 196 q 695 198 693 198 q 691 196 694 196 m 769 483 q 760 448 766 467 l 769 483 m 793 649 q 765 721 769 687 q 793 649 782 672 m 773 512 q 806 609 811 558 q 809 585 809 596 q 793 533 809 564 q 769 483 773 494 q 773 512 772 499 m 757 1060 q 894 827 845 976 q 938 558 938 697 q 881 283 938 412 q 702 77 816 139 q 633 41 708 58 q 538 28 573 28 q 461 31 512 28 q 384 35 410 35 q 342 17 359 35 q 316 0 326 0 q 264 15 309 0 q 215 34 219 30 q 199 26 192 26 l 190 26 q 128 52 179 40 q 59 69 67 65 q 96 139 79 91 q 121 217 108 178 q 172 614 172 344 q 163 784 172 700 q 132 770 151 784 q 102 756 113 756 q 90 760 96 756 q 77 857 92 818 q 97 867 80 859 q 109 885 110 873 q 103 886 106 886 q 93 883 100 886 q 83 881 86 881 l 74 881 q 24 1074 51 1015 q 109 1095 96 1086 q 102 1113 110 1106 l 113 1127 l 247 1127 q 257 1113 251 1113 q 272 1133 272 1113 q 350 1149 311 1140 q 426 1158 399 1158 q 513 1144 454 1158 q 602 1127 578 1128 q 618 1145 614 1145 q 628 1141 624 1145 q 702 1103 646 1118 q 757 1060 750 1090 m 65 1041 q 73 1031 73 1030 l 73 1028 q 101 1034 75 1028 q 122 1047 120 1037 l 112 1048 q 89 1045 104 1048 q 65 1041 70 1041 m 81 1025 q 73 1021 75 1024 q 81 1005 78 1009 q 109 1014 85 1009 q 128 1028 128 1018 l 121 1030 q 105 1027 115 1030 q 91 1024 95 1024 l 81 1025 m 112 826 q 138 836 114 827 q 156 853 156 842 l 156 858 q 108 846 127 858 l 112 826 m 141 865 l 151 869 l 152 886 q 143 902 148 896 l 142 902 l 136 901 l 141 865 m 159 816 q 159 827 159 814 q 156 834 159 833 q 131 823 146 823 q 115 814 115 823 q 120 795 115 818 l 159 816 m 749 139 q 895 587 895 320 q 848 855 895 729 q 694 1074 795 999 q 702 1051 702 1057 q 687 1025 702 1035 l 621 1111 l 586 1079 q 605 1048 585 1067 q 626 1018 626 1028 q 621 1005 626 1011 q 578 1013 608 1014 q 536 1017 548 1012 q 563 1025 542 1025 q 597 1025 598 1025 l 594 1032 l 505 1041 q 529 1048 512 1048 q 548 1047 533 1048 q 566 1047 559 1047 q 552 1072 552 1056 q 569 1100 552 1088 q 531 1103 556 1100 q 493 1107 506 1107 q 457 1099 471 1107 q 484 1094 466 1093 q 509 1090 502 1095 q 496 1083 503 1083 q 482 1085 492 1083 q 467 1087 473 1087 q 457 1086 463 1087 q 456 1074 456 1074 q 471 1062 456 1064 q 490 1053 487 1060 q 445 1047 460 1045 q 427 1127 441 1095 q 403 1099 412 1127 q 400 1108 402 1101 q 393 1115 398 1115 l 388 1114 l 385 1021 q 361 1114 383 1064 l 361 1032 q 358 1048 358 1040 q 334 1111 358 1111 l 330 1111 l 327 1099 q 317 1107 324 1107 q 300 1105 297 1107 l 291 1032 q 281 1050 285 1037 q 272 1067 278 1063 q 291 970 289 998 l 281 959 q 259 1029 279 984 q 236 1100 238 1075 q 214 1095 214 1098 q 217 1078 214 1089 q 221 1062 221 1067 q 217 1047 221 1053 l 202 1099 l 184 1095 q 192 1066 185 1087 q 198 1032 198 1045 q 194 1014 198 1022 q 168 1095 176 1067 q 153 1089 153 1095 q 150 1067 153 1070 l 141 1090 l 143 1014 q 86 989 97 1007 q 94 973 86 978 q 113 966 94 972 q 97 959 106 959 l 93 959 q 99 937 93 959 q 109 922 101 922 q 125 922 123 922 q 132 908 126 921 l 136 908 q 149 921 149 908 q 120 939 149 928 q 143 971 139 949 q 163 918 158 955 q 172 862 167 872 l 176 874 q 183 852 177 868 q 187 827 189 836 l 187 819 q 201 805 197 819 q 206 779 204 791 q 210 604 210 677 q 120 92 210 328 l 129 88 q 147 104 143 95 q 152 94 152 101 q 152 85 152 85 q 159 81 152 81 l 168 76 q 184 93 178 85 q 202 70 192 70 q 214 107 208 77 q 233 139 220 132 q 242 111 242 127 q 237 85 242 103 q 233 56 233 67 q 244 55 244 55 q 263 80 259 55 q 272 116 268 110 q 277 98 277 107 q 274 79 277 93 q 271 59 271 66 q 272 49 271 53 q 280 49 275 49 q 288 48 286 48 q 302 65 290 48 q 309 49 309 55 l 314 48 q 365 158 340 48 q 388 291 385 240 q 391 255 391 274 q 383 176 391 229 q 376 97 376 123 q 377 70 376 83 l 396 70 q 424 74 412 70 q 444 153 437 102 q 454 235 452 227 q 463 224 463 235 q 463 205 463 203 q 474 202 474 202 q 492 208 480 202 q 511 214 503 214 q 524 208 516 214 q 476 196 502 195 l 466 196 l 466 162 q 503 167 483 167 q 537 163 524 167 q 463 151 483 155 l 461 143 q 466 129 461 135 q 479 123 470 123 l 468 119 l 463 120 l 463 100 l 470 100 q 500 95 496 98 q 489 92 489 92 q 463 81 461 92 q 534 74 497 74 q 627 84 575 74 q 699 123 699 98 q 699 132 699 127 l 688 135 q 706 143 698 132 q 717 153 714 153 q 727 151 723 153 l 727 148 l 718 142 l 717 132 q 721 123 717 124 l 749 139 m 793 649 q 806 609 805 633 q 793 649 804 626 m 451 1025 q 450 1000 453 1010 q 451 1025 451 1024 m 498 975 q 472 978 489 972 l 498 975 m 464 978 q 471 978 467 978 l 464 978 m 449 258 q 451 251 451 256 l 449 258 m 785 600 l 785 599 l 784 601 l 785 600 m 753 830 q 785 765 782 785 q 753 830 762 817 m 779 620 l 780 613 l 776 623 l 779 620 m 694 895 q 737 862 726 876 q 746 844 740 854 q 694 895 723 881 m 727 606 q 733 581 733 581 l 733 567 l 727 606 m 776 600 l 779 604 q 757 567 776 571 q 749 580 752 570 q 760 570 754 571 q 773 601 773 575 l 776 600 m 779 606 l 779 604 l 779 604 l 779 606 m 780 613 l 783 601 l 779 604 l 780 613 m 750 643 q 776 623 767 643 q 752 640 762 640 q 741 636 746 640 l 730 616 l 728 619 q 736 635 728 626 q 750 643 743 643 m 718 1017 q 752 976 744 994 l 718 1017 m 734 957 q 722 923 734 940 q 692 907 709 907 q 660 920 685 907 q 639 959 639 950 q 655 989 639 976 q 689 1003 672 1003 q 733 971 717 1003 l 734 957 m 702 691 q 681 795 707 736 q 635 892 658 843 q 679 807 657 849 q 705 714 705 753 q 702 691 705 703 m 518 100 q 584 101 561 101 q 518 100 579 100 m 758 970 q 752 976 755 972 l 758 970 m 769 862 q 730 908 757 888 q 769 862 752 896 m 714 489 q 714 522 716 504 q 714 489 717 500 m 709 481 q 694 426 710 452 l 709 481 m 714 522 q 694 574 701 557 q 714 522 711 532 "},",":{"x_min":51,"x_max":390.40625,"ha":441,"o":"m 319 240 l 320 223 q 298 129 321 190 l 290 129 q 294 172 294 148 l 294 220 q 278 229 277 229 l 274 229 q 262 169 259 204 q 261 175 261 171 q 264 195 261 182 q 267 214 267 208 q 246 223 267 229 q 249 224 248 223 q 238 226 249 226 q 206 232 226 227 l 198 232 q 183 223 187 232 l 186 223 l 186 211 l 183 211 q 176 230 186 230 l 172 228 q 154 220 163 228 l 160 220 l 160 208 l 154 208 l 154 209 q 147 223 156 223 q 127 199 127 223 q 127 163 127 181 q 106 204 129 196 q 83 178 83 199 q 88 146 83 167 q 92 112 93 124 q 102 49 96 81 q 140 4 108 11 l 151 33 q 147 18 151 28 q 143 1 143 7 q 154 -11 143 -11 q 174 8 164 -11 l 174 13 q 184 21 174 20 q 195 27 195 23 q 219 72 202 43 q 208 5 213 39 q 186 -59 200 -34 l 182 -59 q 153 -88 160 -57 q 140 -134 144 -128 q 143 -146 141 -140 q 151 -150 145 -152 q 180 -139 154 -149 q 203 -118 198 -133 q 202 -114 202 -117 q 208 -109 202 -111 q 217 -104 213 -107 q 226 -90 221 -102 q 234 -75 231 -78 l 251 -23 q 241 -55 250 -28 q 234 -86 234 -73 l 234 -91 q 276 -31 263 -73 q 294 42 284 4 q 358 175 347 105 l 347 183 q 331 149 344 181 q 307 104 322 133 q 326 162 309 118 q 338 223 341 196 l 345 224 q 390 204 349 224 q 274 -118 364 94 q 154 -181 213 -181 q 113 -167 127 -181 q 111 -157 111 -162 q 120 -122 111 -146 q 127 -82 130 -98 q 131 -68 131 -79 q 134 -54 131 -57 q 149 -45 137 -50 q 160 -31 162 -40 q 123 -31 162 -31 q 68 47 89 -31 q 51 156 51 108 q 56 211 51 193 q 82 225 59 222 q 104 249 105 228 q 182 256 138 256 q 319 240 246 256 m 271 121 q 276 128 276 124 q 271 138 276 131 q 267 149 267 144 q 276 133 276 147 q 271 121 276 124 m 132 121 l 136 121 l 136 101 l 132 101 l 132 121 "},"Y":{"x_min":23.125,"x_max":1016.890625,"ha":1040,"o":"m 394 1045 q 458 932 415 1001 q 526 822 509 852 q 760 1139 626 971 q 844 1087 792 1128 q 924 1023 885 1055 q 963 978 934 1000 q 1009 940 1002 951 q 1016 930 1016 945 q 996 910 1016 917 q 702 483 838 755 q 718 261 711 409 q 734 39 726 113 q 715 19 726 29 q 694 9 704 9 q 684 11 694 9 q 660 116 663 58 q 670 84 668 107 q 684 52 672 61 q 700 94 700 66 q 695 134 700 108 q 689 171 690 160 q 680 285 684 227 q 660 399 675 353 q 645 322 645 369 q 648 268 645 304 q 652 215 652 233 q 649 189 652 201 q 645 269 644 217 q 642 346 646 321 q 625 309 620 325 q 605 305 618 311 l 605 299 l 595 324 q 630 362 615 328 q 648 415 640 388 q 783 680 748 619 q 958 922 861 819 q 916 956 945 935 l 904 945 l 916 959 q 892 979 909 972 q 870 995 876 987 q 880 1004 880 995 q 842 1050 880 1029 l 815 1014 q 839 1058 826 1027 q 824 1068 834 1059 q 806 1076 815 1078 q 575 758 725 974 q 689 922 618 826 q 806 1081 748 1001 q 796 1089 800 1079 q 789 1098 792 1098 q 779 1097 783 1098 q 601 875 654 946 q 444 639 506 749 l 437 639 q 444 657 444 647 q 436 678 444 664 q 428 697 429 692 l 444 674 q 471 720 463 686 l 416 806 q 444 764 423 800 q 479 732 459 736 q 490 758 490 742 q 471 790 490 774 q 494 764 490 773 q 510 794 504 771 q 378 1011 418 916 q 277 1111 322 1048 q 261 1095 261 1114 q 266 1081 261 1095 l 273 1072 q 247 1092 267 1092 q 227 1081 234 1092 q 266 1003 227 1063 q 316 926 299 946 l 312 922 q 219 1072 284 974 q 177 1045 205 1066 q 225 979 183 1032 q 254 910 257 940 l 254 901 q 141 1053 221 932 q 282 1158 180 1089 q 334 1097 295 1147 q 394 1045 365 1058 m 219 922 q 188 945 206 926 q 157 968 170 964 l 138 987 q 123 965 125 985 l 114 959 q 147 909 130 942 q 178 855 170 865 q 147 910 162 883 q 107 953 128 942 q 91 941 104 946 q 76 929 79 936 q 235 725 146 848 q 386 515 311 619 q 397 542 397 540 l 397 550 q 340 629 373 574 q 290 712 315 670 q 406 550 325 655 l 413 566 l 413 555 q 404 510 415 540 q 393 466 393 480 q 416 418 393 435 q 444 455 429 428 q 467 492 458 482 l 467 487 q 455 446 468 473 q 443 406 443 419 q 446 388 443 393 q 444 351 446 375 q 432 376 444 362 l 422 364 q 400 155 400 195 q 406 85 400 117 q 401 126 400 98 q 397 168 402 153 q 374 52 382 90 q 392 44 379 44 l 397 44 l 406 67 q 402 55 402 59 q 420 41 402 46 q 446 30 433 35 q 465 48 462 29 q 471 77 468 62 q 467 150 472 103 l 471 30 q 477 27 472 27 q 494 34 472 27 q 502 10 502 27 l 502 0 q 462 -7 487 -7 q 390 3 444 -7 q 324 12 337 13 q 331 30 324 25 q 382 399 361 153 q 367 473 364 417 q 198 707 305 566 q 23 940 55 897 q 56 965 21 961 q 131 1030 85 982 q 219 922 160 994 m 300 1026 l 321 998 l 300 1026 m 769 940 q 797 987 778 969 l 769 940 m 797 901 l 807 917 q 797 901 803 906 m 721 883 l 691 836 l 721 883 m 707 783 l 719 797 l 719 794 l 707 783 m 374 775 l 397 739 l 374 775 m 400 732 l 422 709 l 400 732 m 422 605 q 358 700 399 635 l 422 605 m 583 616 q 606 570 606 589 q 562 525 606 525 q 517 550 536 525 l 519 550 l 516 555 q 512 571 512 566 q 540 616 512 603 l 545 615 q 565 626 545 615 l 568 616 l 569 615 q 583 626 576 615 q 595 639 589 638 q 583 616 583 631 m 598 437 q 589 389 598 431 q 586 341 585 360 l 568 341 l 565 244 q 559 330 565 273 q 526 299 546 307 q 531 259 531 285 l 529 233 q 490 330 533 318 l 483 321 l 483 309 q 486 322 486 317 q 470 351 486 335 q 455 375 455 366 q 464 390 455 382 q 490 376 472 389 q 516 363 507 363 q 523 367 519 363 q 530 372 527 372 q 527 369 529 373 q 525 360 525 364 q 545 346 525 353 q 556 376 550 347 q 572 411 557 377 q 598 437 582 432 m 444 330 l 446 330 l 446 294 l 444 294 l 444 330 m 441 279 l 436 124 l 441 279 m 605 247 l 611 247 l 611 217 l 605 217 l 605 247 m 483 228 l 485 228 l 486 205 l 483 205 l 483 228 m 526 186 q 522 137 522 163 q 537 44 522 84 q 556 43 534 43 q 571 52 568 43 l 569 101 q 572 75 573 94 q 580 47 571 55 l 614 47 q 617 93 617 54 q 617 62 617 93 q 632 44 617 47 q 660 44 634 44 l 661 35 q 641 0 661 17 q 598 6 624 6 q 526 0 592 6 q 506 99 506 66 q 510 131 506 117 q 526 186 507 153 m 565 147 l 569 147 l 568 120 l 566 120 l 565 147 "},"E":{"x_min":19,"x_max":778.96875,"ha":798,"o":"m 778 1136 l 770 1129 q 747 897 747 989 q 748 843 747 869 q 755 834 755 836 l 753 829 q 587 823 695 818 q 419 820 471 827 q 418 795 418 808 q 424 733 418 775 q 430 667 431 691 q 548 695 512 688 q 670 708 615 706 l 668 659 q 673 459 671 591 l 673 414 q 479 426 573 427 l 438 426 q 433 381 437 411 q 430 334 430 350 q 434 302 430 317 q 606 337 503 312 q 778 381 691 359 q 769 186 781 315 q 748 175 753 185 q 729 0 748 159 q 567 24 665 14 q 403 39 415 38 q 396 3 394 8 q 234 21 331 18 q 72 24 153 22 l 63 32 l 66 37 q 41 55 65 38 q 26 82 26 67 l 27 87 q 42 105 39 93 q 43 127 45 112 q 40 149 40 146 q 49 167 40 162 q 30 188 30 180 q 34 205 30 195 q 37 220 37 215 q 60 233 45 228 q 85 241 82 240 q 116 567 116 411 q 79 877 116 738 q 26 922 26 897 q 49 956 26 930 q 19 1009 19 991 q 31 1030 19 1019 q 42 1051 43 1042 l 42 1056 l 37 1059 q 112 1074 46 1067 q 202 1101 177 1081 q 216 1065 205 1088 q 222 1084 224 1069 q 219 1104 219 1114 l 221 1110 l 257 1109 q 375 1123 327 1107 l 374 1114 q 398 1092 374 1092 q 585 1119 436 1092 q 773 1158 729 1144 q 778 1136 778 1153 m 388 1046 q 419 1042 399 1048 l 414 1042 q 394 1005 394 1043 l 393 992 q 368 1040 379 1007 q 349 1087 357 1074 l 349 1081 l 344 1072 l 340 1079 q 314 1075 331 1081 l 311 1065 q 303 1075 303 1068 l 292 1075 q 281 1050 281 1076 q 276 1035 281 1042 q 269 1068 268 1063 q 260 1075 266 1075 l 245 1072 q 239 1049 239 1066 q 247 1020 239 1030 q 238 1010 238 1017 q 243 993 238 1004 q 249 975 249 982 q 247 966 249 969 q 224 971 238 965 q 212 1017 217 1003 q 194 1059 205 1042 l 168 1049 q 176 1032 172 1043 l 172 1023 q 166 1035 169 1024 q 157 1046 163 1046 q 130 1023 136 1046 q 118 1037 131 1037 q 101 1034 118 1037 l 102 1029 l 98 1020 l 91 1030 l 75 1030 q 67 1018 73 1027 q 60 1001 60 1008 l 60 998 l 72 998 l 79 992 q 65 987 65 990 q 66 985 66 985 l 82 971 l 85 982 q 155 513 155 781 q 101 141 155 335 q 99 164 97 145 l 91 164 q 74 124 74 154 q 72 77 75 84 q 83 66 77 66 q 101 66 104 66 q 109 84 109 69 q 117 95 109 93 q 120 87 120 92 q 116 76 120 83 q 113 66 113 69 q 130 61 121 61 q 162 95 157 61 q 163 82 166 90 q 160 67 160 67 l 162 63 l 191 63 q 193 84 195 67 q 202 103 193 97 q 207 92 207 97 q 203 76 207 86 q 199 63 199 67 l 214 63 q 224 74 221 61 q 228 92 225 83 q 232 67 230 80 q 246 54 234 54 l 255 56 l 255 69 q 258 82 255 69 q 263 56 259 73 q 281 54 262 56 q 293 63 291 54 q 321 50 293 53 l 321 57 q 330 82 321 53 l 333 43 l 356 43 l 355 50 q 363 69 355 56 l 366 42 q 394 151 375 79 q 397 106 397 145 l 404 146 q 427 153 411 153 q 451 149 440 153 l 411 137 q 438 133 421 138 q 411 122 426 133 l 489 114 q 406 111 476 111 l 406 103 l 413 103 q 451 95 415 103 l 406 87 q 703 43 570 73 l 706 101 l 700 99 l 691 103 q 706 106 694 109 l 706 122 q 688 122 707 122 q 679 125 682 122 q 710 130 684 130 q 715 148 715 138 q 698 164 715 166 q 715 167 701 170 q 717 190 717 173 q 725 212 717 208 l 729 260 q 715 260 729 260 q 703 264 707 260 q 729 269 707 269 l 729 295 l 717 293 q 706 298 717 293 l 710 302 q 730 324 730 303 l 729 328 q 434 260 630 306 l 474 260 q 441 251 468 256 q 415 234 419 248 q 403 328 403 269 q 401 426 404 404 q 333 434 366 430 q 285 473 289 441 l 295 480 q 302 470 304 477 q 309 472 306 472 q 318 465 314 472 q 330 459 322 459 l 376 460 q 466 459 409 461 q 555 456 529 456 q 635 459 598 456 l 632 607 q 621 607 632 607 q 613 613 614 607 q 627 616 614 616 l 632 616 l 632 641 l 616 640 q 601 644 616 640 q 620 649 603 646 q 626 653 621 650 q 632 660 632 656 l 632 663 q 493 649 563 656 q 363 607 409 640 l 385 596 q 373 594 380 591 q 359 596 366 595 l 359 585 q 341 580 351 586 q 327 574 331 574 q 314 581 319 574 l 318 585 q 345 629 319 611 q 394 656 370 642 q 384 750 392 679 q 378 846 378 810 q 382 910 378 881 q 397 877 386 898 q 397 898 397 877 q 403 910 397 907 q 411 893 412 904 l 571 892 q 493 884 544 882 q 415 881 435 885 l 415 871 q 535 865 468 865 l 706 865 l 706 982 q 688 982 707 982 q 677 985 681 982 q 691 982 685 982 q 715 1020 715 982 q 715 1056 715 1061 q 697 1056 715 1056 q 687 1059 691 1056 q 721 1106 719 1064 q 419 1065 619 1097 q 388 1046 388 1056 m 314 1046 l 318 1046 l 318 1065 l 314 1065 l 314 1046 m 687 1056 q 675 1058 681 1058 q 649 1053 665 1058 q 622 1048 632 1048 q 610 1049 622 1048 q 687 1056 677 1058 m 512 1037 q 549 1042 525 1040 q 512 1037 536 1039 m 136 1023 l 139 1004 q 136 1023 140 1011 m 120 940 q 102 1020 104 981 l 120 940 m 186 974 l 186 971 q 194 937 186 960 q 199 899 202 914 q 244 868 215 868 q 276 883 263 868 q 290 917 290 898 q 276 947 290 934 q 244 961 263 961 q 199 928 216 961 q 190 952 192 936 q 186 974 189 969 m 82 935 l 82 940 l 72 934 l 82 935 m 85 926 l 66 926 q 85 910 71 914 l 85 926 m 406 922 l 502 922 q 447 926 476 926 q 406 922 418 926 m 300 835 q 296 873 300 835 l 299 825 l 300 835 m 250 855 q 258 734 258 827 l 258 717 l 258 705 q 270 821 272 772 l 270 852 q 259 858 265 858 q 250 855 259 858 m 236 814 q 231 838 236 814 l 236 801 l 236 814 m 239 762 l 244 670 l 239 762 m 239 622 l 245 622 l 245 663 l 239 663 l 239 622 m 366 549 l 366 530 q 403 478 363 478 q 448 496 429 478 q 453 515 453 505 q 413 565 453 565 q 366 549 398 565 m 264 549 l 264 521 q 287 501 271 519 q 318 486 302 483 l 308 484 l 300 489 l 300 495 l 302 505 q 292 518 301 510 l 300 522 l 292 522 q 281 539 281 531 l 285 550 l 349 544 q 295 549 330 542 q 285 559 294 559 q 264 549 278 559 m 531 505 l 515 505 l 505 499 l 531 505 m 356 269 l 359 269 l 359 335 l 356 335 l 356 269 m 162 305 l 157 279 l 162 305 m 120 101 l 153 264 q 120 101 141 211 m 337 111 l 337 121 q 344 185 337 143 q 352 250 352 228 l 351 260 q 337 111 349 211 m 698 260 q 648 250 690 259 q 597 246 617 244 l 578 247 q 698 260 619 248 m 264 247 l 258 222 l 231 227 q 199 188 199 217 q 203 155 199 176 q 208 124 208 134 q 205 103 208 112 l 209 103 l 209 114 l 204 114 q 208 125 207 117 q 216 133 209 133 q 233 121 231 133 q 231 101 231 127 l 231 111 q 250 127 241 128 q 262 127 258 127 q 270 121 270 127 q 265 106 270 116 q 261 90 261 96 q 264 82 261 90 q 268 120 265 101 q 288 148 271 140 q 296 172 296 160 q 277 210 296 186 q 264 247 259 234 m 101 208 q 76 192 87 192 q 66 193 71 192 q 101 208 81 208 m 99 189 q 66 183 87 189 q 75 170 75 172 l 99 170 l 99 189 m 303 114 l 307 114 l 307 133 l 302 133 l 303 114 m 333 82 l 337 82 l 337 103 l 333 103 l 333 82 m 299 101 l 296 63 l 299 101 "},"j":{"x_min":19.046875,"x_max":764.65625,"ha":783,"o":"m 579 1146 q 616 1122 587 1122 q 690 1127 642 1122 q 764 1134 749 1133 l 764 1075 q 757 756 766 865 q 735 519 735 557 q 752 283 735 399 q 739 201 747 269 q 714 127 730 147 q 599 37 674 75 q 460 0 525 0 q 392 9 425 0 q 330 -1 327 -1 q 295 9 309 -1 q 257 6 276 6 q 72 111 172 6 q 58 137 71 114 q 49 163 49 153 q 59 181 49 173 q 37 292 58 215 q 19 403 17 363 q 317 460 184 424 l 328 456 q 337 385 333 443 q 360 321 338 340 l 369 320 q 404 340 389 320 q 398 579 398 457 q 430 1158 398 920 q 486 1149 443 1156 q 542 1141 521 1141 q 579 1146 561 1141 m 513 1111 q 499 1114 504 1114 q 489 1107 490 1114 q 489 1090 487 1101 q 492 1074 492 1076 q 487 1059 492 1066 l 476 1108 q 437 653 437 887 q 464 343 437 405 l 468 350 q 477 349 473 349 q 494 378 497 349 q 506 350 497 367 q 419 302 484 308 q 382 284 412 291 q 354 260 353 278 l 354 256 q 364 256 356 256 q 379 252 374 256 l 354 240 q 363 226 354 229 q 382 221 372 223 q 369 216 379 218 q 360 210 360 214 q 363 203 361 207 q 351 198 356 198 q 338 203 347 198 q 320 310 330 236 q 298 415 309 379 q 274 407 286 412 q 263 388 262 402 q 260 404 257 392 q 232 401 256 401 q 211 385 213 401 l 207 392 l 203 392 q 181 385 200 392 l 177 385 q 135 373 150 388 l 94 369 q 94 359 94 370 q 91 350 94 353 q 82 369 81 366 l 78 370 q 64 362 78 370 q 94 224 87 249 q 162 93 124 111 l 153 100 l 158 111 l 177 93 q 213 117 195 106 q 235 152 235 135 q 211 184 235 187 q 208 195 211 188 q 204 205 204 201 q 211 214 204 210 q 246 158 246 197 q 223 90 246 139 l 230 90 q 250 100 245 88 q 253 127 255 111 l 260 127 q 289 108 272 108 q 320 116 301 108 q 350 123 340 123 q 370 116 362 123 q 309 74 351 97 q 364 82 367 82 l 373 81 q 286 62 343 69 q 199 46 224 54 l 221 46 q 291 52 246 44 q 359 59 335 60 l 363 59 q 330 49 351 52 q 295 43 301 44 q 324 37 308 37 q 374 46 341 37 q 422 55 406 55 q 445 52 435 55 q 427 47 442 49 q 408 36 411 44 l 416 27 q 704 214 646 27 q 709 237 709 231 q 701 272 709 250 q 691 302 693 294 l 699 294 q 705 369 705 369 q 699 463 705 401 q 693 557 693 525 q 699 657 693 611 q 726 1090 720 799 l 715 1090 l 707 1092 l 698 1082 l 695 1090 l 661 1090 l 663 1075 q 658 1063 663 1075 q 654 1090 655 1066 l 626 1092 l 621 1066 q 617 1090 617 1071 l 607 1090 q 567 916 593 1053 l 560 916 q 552 1011 551 946 q 545 1108 554 1076 l 525 1111 l 525 1100 l 522 1090 l 513 1111 m 525 1010 l 529 1010 l 529 1090 l 525 1090 l 525 1010 m 617 1045 l 621 1045 l 621 1066 l 617 1066 l 617 1045 m 487 1010 l 492 1010 l 492 1026 l 487 1026 l 487 1010 m 658 907 l 653 919 l 658 897 l 658 907 m 621 900 q 621 768 621 857 l 621 745 q 613 657 621 697 q 645 570 639 628 q 651 475 648 522 l 651 540 q 617 657 651 619 q 621 900 618 738 m 658 877 q 654 809 654 845 q 677 638 654 716 l 677 641 l 669 700 q 658 777 658 731 q 658 855 658 816 l 658 877 m 532 846 q 525 712 527 828 q 491 585 523 626 q 522 631 500 600 l 532 846 m 579 846 l 579 616 q 621 486 623 530 l 621 472 q 607 556 623 519 q 579 723 579 625 q 579 846 579 849 m 461 628 q 489 739 489 692 q 487 767 489 754 q 461 628 491 676 m 487 577 l 483 558 l 487 577 m 545 558 q 521 509 521 547 q 522 479 521 476 l 522 518 q 529 543 523 519 q 546 558 535 558 l 551 558 q 583 490 572 547 l 583 498 q 575 540 583 499 q 545 558 561 556 m 483 551 l 483 524 q 510 392 480 447 q 483 551 478 493 m 525 469 l 532 431 l 525 469 m 583 446 l 583 469 l 578 441 l 583 446 m 621 441 l 624 441 l 624 464 l 621 464 l 621 441 m 686 404 l 680 350 q 677 326 677 344 q 669 302 678 308 q 663 351 659 318 q 661 399 666 383 q 648 369 665 373 l 661 359 q 646 315 648 320 q 621 278 636 291 l 661 284 q 685 340 682 299 q 686 404 685 372 m 473 381 l 476 362 l 473 381 m 551 328 q 546 362 543 337 q 544 356 544 359 q 548 345 544 352 q 553 334 553 339 q 551 328 553 331 m 529 350 q 515 329 519 348 q 502 305 512 309 l 510 305 q 541 315 523 303 l 529 350 m 169 347 q 139 306 139 324 q 158 267 139 295 l 165 267 q 192 248 181 269 q 216 218 208 222 q 214 256 214 214 q 230 293 214 280 l 232 299 q 216 334 232 319 q 179 348 200 350 l 169 347 m 578 274 q 548 279 559 279 q 503 234 503 279 q 506 218 503 234 q 554 189 532 189 q 567 190 554 189 q 599 237 599 208 q 594 256 599 247 q 578 274 583 264 m 234 270 q 239 257 239 264 q 235 241 239 251 q 231 225 231 231 q 237 211 231 217 q 233 222 233 215 q 236 244 233 230 q 234 270 239 254 m 122 207 l 131 176 l 122 207 m 153 111 l 134 168 q 153 111 138 149 m 85 149 q 122 97 102 97 l 85 149 m 382 149 l 370 149 l 363 146 l 382 149 m 411 93 l 400 93 l 400 90 l 411 93 m 256 82 q 169 62 232 82 l 176 54 q 238 65 193 60 q 298 78 277 67 q 276 80 290 78 q 256 82 261 82 m 429 78 q 457 81 439 81 q 429 78 447 84 m 545 81 q 536 81 536 81 l 506 71 l 545 81 m 400 71 q 382 66 382 66 q 400 71 390 71 m 464 59 q 457 54 462 54 l 445 54 q 464 59 464 59 "},"y":{"x_min":23.125,"x_max":1016.890625,"ha":1040,"o":"m 394 1045 q 458 932 415 1001 q 526 822 509 852 q 760 1139 626 971 q 844 1087 792 1128 q 924 1023 885 1055 q 963 978 934 1000 q 1009 940 1002 951 q 1016 930 1016 945 q 996 910 1016 917 q 702 483 838 755 q 718 261 711 409 q 734 39 726 113 q 715 19 726 29 q 694 9 704 9 q 684 11 694 9 q 660 116 663 58 q 670 84 668 107 q 684 52 672 61 q 700 94 700 66 q 695 134 700 108 q 689 171 690 160 q 680 285 684 227 q 660 399 675 353 q 645 322 645 369 q 648 268 645 304 q 652 215 652 233 q 649 189 652 201 q 645 269 644 217 q 642 346 646 321 q 625 309 620 325 q 605 305 618 311 l 605 299 l 595 324 q 630 362 615 328 q 648 415 640 388 q 783 680 748 619 q 958 922 861 819 q 916 956 945 935 l 904 945 l 916 959 q 892 979 909 972 q 870 995 876 987 q 880 1004 880 995 q 842 1050 880 1029 l 815 1014 q 839 1058 826 1027 q 824 1068 834 1059 q 806 1076 815 1078 q 575 758 725 974 q 689 922 618 826 q 806 1081 748 1001 q 796 1089 800 1079 q 789 1098 792 1098 q 779 1097 783 1098 q 601 875 654 946 q 444 639 506 749 l 437 639 q 444 657 444 647 q 436 678 444 664 q 428 697 429 692 l 444 674 q 471 720 463 686 l 416 806 q 444 764 423 800 q 479 732 459 736 q 490 758 490 742 q 471 790 490 774 q 494 764 490 773 q 510 794 504 771 q 378 1011 418 916 q 277 1111 322 1048 q 261 1095 261 1114 q 266 1081 261 1095 l 273 1072 q 247 1092 267 1092 q 227 1081 234 1092 q 266 1003 227 1063 q 316 926 299 946 l 312 922 q 219 1072 284 974 q 177 1045 205 1066 q 225 979 183 1032 q 254 910 257 940 l 254 901 q 141 1053 221 932 q 282 1158 180 1089 q 334 1097 295 1147 q 394 1045 365 1058 m 219 922 q 188 945 206 926 q 157 968 170 964 l 138 987 q 123 965 125 985 l 114 959 q 147 909 130 942 q 178 855 170 865 q 147 910 162 883 q 107 953 128 942 q 91 941 104 946 q 76 929 79 936 q 235 725 146 848 q 386 515 311 619 q 397 542 397 540 l 397 550 q 340 629 373 574 q 290 712 315 670 q 406 550 325 655 l 413 566 l 413 555 q 404 510 415 540 q 393 466 393 480 q 416 418 393 435 q 444 455 429 428 q 467 492 458 482 l 467 487 q 455 446 468 473 q 443 406 443 419 q 446 388 443 393 q 444 351 446 375 q 432 376 444 362 l 422 364 q 400 155 400 195 q 406 85 400 117 q 401 126 400 98 q 397 168 402 153 q 374 52 382 90 q 392 44 379 44 l 397 44 l 406 67 q 402 55 402 59 q 420 41 402 46 q 446 30 433 35 q 465 48 462 29 q 471 77 468 62 q 467 150 472 103 l 471 30 q 477 27 472 27 q 494 34 472 27 q 502 10 502 27 l 502 0 q 462 -7 487 -7 q 390 3 444 -7 q 324 12 337 13 q 331 30 324 25 q 382 399 361 153 q 367 473 364 417 q 198 707 305 566 q 23 940 55 897 q 56 965 21 961 q 131 1030 85 982 q 219 922 160 994 m 300 1026 l 321 998 l 300 1026 m 769 940 q 797 987 778 969 l 769 940 m 797 901 l 807 917 q 797 901 803 906 m 721 883 l 691 836 l 721 883 m 707 783 l 719 797 l 719 794 l 707 783 m 374 775 l 397 739 l 374 775 m 400 732 l 422 709 l 400 732 m 422 605 q 358 700 399 635 l 422 605 m 583 616 q 606 570 606 589 q 562 525 606 525 q 517 550 536 525 l 519 550 l 516 555 q 512 571 512 566 q 540 616 512 603 l 545 615 q 565 626 545 615 l 568 616 l 569 615 q 583 626 576 615 q 595 639 589 638 q 583 616 583 631 m 598 437 q 589 389 598 431 q 586 341 585 360 l 568 341 l 565 244 q 559 330 565 273 q 526 299 546 307 q 531 259 531 285 l 529 233 q 490 330 533 318 l 483 321 l 483 309 q 486 322 486 317 q 470 351 486 335 q 455 375 455 366 q 464 390 455 382 q 490 376 472 389 q 516 363 507 363 q 523 367 519 363 q 530 372 527 372 q 527 369 529 373 q 525 360 525 364 q 545 346 525 353 q 556 376 550 347 q 572 411 557 377 q 598 437 582 432 m 444 330 l 446 330 l 446 294 l 444 294 l 444 330 m 441 279 l 436 124 l 441 279 m 605 247 l 611 247 l 611 217 l 605 217 l 605 247 m 483 228 l 485 228 l 486 205 l 483 205 l 483 228 m 526 186 q 522 137 522 163 q 537 44 522 84 q 556 43 534 43 q 571 52 568 43 l 569 101 q 572 75 573 94 q 580 47 571 55 l 614 47 q 617 93 617 54 q 617 62 617 93 q 632 44 617 47 q 660 44 634 44 l 661 35 q 641 0 661 17 q 598 6 624 6 q 526 0 592 6 q 506 99 506 66 q 510 131 506 117 q 526 186 507 153 m 565 147 l 569 147 l 568 120 l 566 120 l 565 147 "},"Z":{"x_min":20.296875,"x_max":822.453125,"ha":844,"o":"m 756 1146 q 770 982 766 1088 q 780 819 773 866 q 750 784 764 809 q 724 743 731 751 q 433 354 621 622 q 570 334 491 334 q 672 340 608 334 q 772 345 744 345 q 782 302 772 329 q 793 258 793 274 q 792 243 793 251 q 744 238 780 243 q 696 235 715 235 l 677 237 l 677 240 q 727 253 702 245 q 760 283 760 264 q 753 295 760 290 l 740 295 q 753 302 747 293 q 741 323 754 323 q 721 319 737 323 q 701 319 708 316 q 552 298 583 298 q 447 326 488 298 q 439 325 445 325 q 410 328 429 325 q 382 331 391 331 q 271 319 375 331 l 264 327 l 255 318 l 280 354 l 267 330 l 311 330 l 342 362 l 327 342 q 342 335 333 335 q 361 340 348 335 q 381 345 374 346 q 537 556 423 395 q 701 763 633 691 q 726 796 702 776 q 750 833 750 815 q 744 859 750 841 q 735 885 737 882 q 701 860 725 875 q 717 909 702 877 q 735 953 732 940 q 727 1011 731 963 q 708 1061 722 1048 l 717 1067 l 717 1074 q 701 1086 718 1079 q 715 1097 715 1090 q 714 1106 715 1102 l 705 1115 q 646 1116 676 1116 q 439 1099 576 1116 q 232 1081 301 1081 q 67 1102 165 1081 q 63 1061 65 1099 q 220 1039 142 1041 q 70 1058 131 1045 l 70 1015 l 294 1011 l 78 1006 q 74 983 76 1003 l 81 976 l 103 976 q 213 971 141 971 q 51 947 158 964 q 37 1051 39 984 q 28 1158 34 1130 q 269 1123 133 1123 q 481 1135 340 1123 q 693 1147 622 1147 q 756 1146 725 1147 m 552 1073 q 567 1079 567 1079 l 639 1079 l 552 1073 m 614 1047 l 616 1040 q 601 1011 616 1025 q 575 983 587 996 q 585 1024 575 986 q 591 1067 593 1047 q 601 1056 597 1067 q 614 1047 604 1044 m 701 1058 q 681 1054 693 1060 q 701 1039 682 1052 q 714 1021 714 1029 q 708 1006 714 1015 q 700 1003 706 1006 q 690 999 694 999 l 685 1000 q 674 1054 685 1039 q 701 1058 678 1058 m 633 1051 l 642 1054 l 653 1054 l 633 1051 m 555 1031 q 395 1020 502 1027 q 552 1034 448 1022 l 555 1031 m 513 976 q 443 889 478 932 q 381 798 403 839 q 351 729 371 773 q 75 336 261 557 q 72 327 72 331 q 82 311 72 313 q 126 344 105 320 q 161 389 144 366 l 106 316 l 165 316 l 207 363 q 186 321 199 345 l 204 315 q 172 304 191 307 q 135 299 152 300 q 97 276 116 287 q 70 243 75 260 q 84 237 76 237 q 105 243 92 237 q 126 249 119 249 q 72 221 72 243 q 87 201 72 212 l 99 201 q 81 185 81 202 q 84 163 81 177 q 88 141 88 148 l 115 141 q 85 108 85 144 q 85 93 85 103 q 86 79 86 83 q 81 59 86 64 l 139 59 q 440 47 287 60 q 473 34 453 34 q 504 38 483 34 q 534 43 524 43 l 776 43 q 783 63 783 48 q 783 89 783 90 l 771 102 q 713 98 750 98 l 679 98 q 627 94 647 98 q 703 97 647 98 q 780 105 753 95 q 756 120 776 115 q 735 134 737 124 q 780 144 753 147 q 784 163 784 153 q 764 204 784 186 l 753 204 q 770 217 755 205 q 789 225 780 225 q 799 224 789 225 q 809 112 805 192 q 822 3 812 42 q 705 0 767 0 q 454 8 621 0 q 203 17 287 17 q 43 11 117 17 q 43 89 43 11 q 24 251 43 199 q 20 264 20 261 q 31 283 20 272 q 42 301 42 294 q 31 317 42 307 q 82 401 42 349 q 145 482 145 482 q 333 807 277 676 q 82 775 231 807 q 67 925 73 837 q 82 932 75 924 q 95 940 90 940 q 102 932 97 940 l 100 927 q 108 903 100 916 q 115 880 115 889 l 141 880 l 135 882 q 115 869 122 882 l 118 830 l 136 830 q 261 840 186 828 q 387 857 368 856 l 433 905 q 406 908 427 911 q 436 917 420 912 q 456 935 452 922 q 413 940 436 940 q 356 936 394 940 q 300 933 319 933 l 472 947 q 501 983 485 957 l 437 983 q 491 989 465 989 q 513 986 503 989 l 513 976 m 421 980 q 402 976 413 976 q 421 980 402 976 m 655 899 q 630 857 655 870 q 614 850 625 850 q 598 854 609 850 q 583 859 587 857 q 559 896 578 860 q 604 946 559 946 q 655 899 655 946 m 334 893 q 358 901 358 901 l 374 901 l 334 893 m 205 889 q 183 885 196 885 l 157 885 q 178 887 164 883 q 196 890 192 890 l 205 889 m 528 763 l 528 768 q 520 782 528 778 l 489 763 q 528 782 520 782 l 528 763 m 434 716 q 481 759 447 733 l 434 716 m 421 693 l 415 677 l 421 693 m 169 402 l 202 444 q 169 402 190 425 m 374 405 l 363 389 l 374 405 m 708 288 q 674 282 704 284 q 708 288 685 286 m 591 270 q 607 276 607 276 l 633 276 l 591 270 m 221 256 q 154 252 215 254 l 160 252 q 221 256 189 252 m 296 169 q 272 125 296 144 q 237 127 254 125 q 208 144 215 130 q 201 166 201 151 q 244 219 201 201 q 296 169 296 208 m 745 201 q 669 195 720 199 l 681 195 q 733 202 698 199 l 745 201 "},"u":{"x_min":22,"x_max":895.828125,"ha":917,"o":"m 891 1158 q 874 841 882 998 q 864 522 864 652 q 895 100 864 282 q 780 59 868 94 q 662 32 709 32 q 612 37 636 32 q 603 84 602 66 q 567 68 589 82 q 531 46 536 49 q 337 0 424 0 q 214 41 277 0 q 62 222 102 115 q 26 461 34 296 l 41 469 l 41 480 q 22 508 22 484 q 58 829 22 634 q 110 1146 102 1081 q 186 1114 128 1140 q 265 1090 233 1092 q 274 1109 274 1096 q 443 1096 347 1085 q 406 958 435 1046 q 369 822 376 865 q 349 633 349 715 q 426 379 349 470 q 533 404 482 385 q 519 653 519 518 q 549 1099 519 970 q 558 1107 550 1107 q 592 1102 565 1107 q 633 1097 619 1097 q 891 1158 729 1097 m 796 960 q 793 1076 793 981 q 687 1053 721 1055 q 605 1045 617 1047 q 589 1058 604 1058 l 584 1056 q 570 858 577 958 q 561 658 561 737 q 584 410 561 522 l 589 410 q 529 348 584 367 q 437 329 527 348 q 452 308 444 319 q 473 299 460 297 q 454 291 454 291 q 424 326 434 291 q 416 328 419 328 q 406 316 409 328 q 402 301 403 304 q 310 627 310 426 q 388 1056 310 812 l 341 1056 q 331 1015 343 1040 q 327 1027 327 1021 q 330 1044 327 1032 q 334 1062 334 1056 q 309 1066 324 1066 l 288 1064 q 264 911 285 986 q 260 985 264 917 q 246 1056 257 1030 q 234 1062 240 1062 q 218 1034 225 1062 l 214 1037 q 215 1048 215 1044 q 187 1076 215 1065 l 174 1022 q 173 1069 173 1025 q 154 1090 173 1090 l 144 1090 q 97 795 101 824 q 73 499 73 627 q 214 86 73 192 q 175 168 176 138 q 206 118 185 163 q 247 80 224 80 l 254 80 q 257 93 257 86 q 245 122 257 103 q 234 152 233 141 l 234 157 l 241 148 q 250 151 246 151 q 273 129 260 151 q 301 108 286 108 q 311 111 305 108 q 295 137 304 118 l 298 145 l 306 138 q 325 116 309 122 q 344 102 340 110 l 363 103 q 380 99 372 103 q 325 83 359 99 q 276 65 292 67 q 302 53 285 53 q 327 57 311 53 q 353 62 344 62 l 314 42 q 351 38 333 38 q 496 81 408 38 q 633 133 590 128 l 633 130 q 668 147 640 133 q 705 157 689 157 l 710 157 l 710 111 l 703 141 q 687 131 687 141 q 689 118 687 127 q 692 107 692 109 l 688 95 q 684 117 684 98 q 672 127 684 127 q 662 112 666 127 q 656 95 659 104 l 649 111 l 641 102 q 644 86 647 99 q 652 66 652 66 q 656 68 655 66 l 661 99 q 669 68 669 72 l 688 68 l 686 81 q 691 92 686 81 q 707 68 694 81 q 714 79 716 72 q 710 94 711 87 l 716 103 q 726 77 718 94 q 746 100 734 77 l 749 87 l 756 87 q 740 188 753 95 q 788 225 787 224 q 814 275 814 249 q 821 244 816 267 q 827 210 827 222 q 823 187 827 197 q 814 222 813 216 q 784 194 803 215 l 779 184 q 774 186 778 186 q 765 175 766 186 l 759 178 l 759 160 q 769 125 765 154 q 787 102 772 102 l 793 102 l 791 115 q 796 126 791 115 l 803 111 q 827 131 827 111 q 824 152 827 138 q 821 173 821 165 q 827 190 821 183 q 842 122 828 167 l 845 126 q 819 461 819 270 q 831 779 819 574 q 845 1100 844 1002 q 797 1047 797 1100 q 798 1019 797 1039 q 800 991 800 999 q 796 960 800 972 m 172 1015 l 165 907 l 172 1015 m 322 991 l 318 972 l 322 991 m 746 939 l 749 939 l 749 957 l 746 957 l 746 939 m 703 949 l 700 949 l 700 837 l 702 837 q 665 782 697 824 q 641 722 641 749 q 670 591 641 652 l 665 659 q 660 638 665 646 l 656 638 l 656 648 q 651 690 657 662 q 645 733 645 719 q 653 769 645 753 q 707 892 707 804 q 703 949 707 918 m 202 920 l 208 920 l 208 944 l 202 944 l 202 920 m 311 944 l 307 926 l 311 944 m 661 881 l 663 881 l 664 914 l 660 914 l 661 881 m 141 772 l 160 895 q 141 772 155 853 m 230 872 l 234 872 l 234 892 l 230 892 l 230 872 m 295 868 l 298 868 l 298 884 l 295 884 l 295 868 m 292 861 l 288 830 l 292 861 m 284 807 l 288 807 l 288 821 l 284 821 l 284 807 m 784 777 q 753 816 774 791 l 784 777 m 264 677 q 272 734 273 694 q 279 791 270 774 q 272 734 270 774 q 264 677 273 694 m 214 764 l 218 764 l 218 784 l 214 784 l 214 764 m 623 677 l 626 677 l 626 772 l 623 772 l 623 677 m 792 738 l 792 738 q 787 756 787 738 l 787 761 q 792 738 792 739 m 749 707 l 749 710 q 719 754 749 735 q 675 726 697 751 l 670 693 q 710 754 674 754 q 749 707 742 754 m 796 646 l 800 646 l 800 717 l 796 717 l 796 646 m 730 661 q 724 687 727 674 q 707 703 720 701 l 699 695 q 697 700 697 698 q 702 703 697 703 q 721 694 713 703 q 730 675 730 685 q 729 669 730 674 q 730 661 729 664 m 753 698 l 756 680 q 753 698 758 688 m 700 638 l 703 638 l 703 680 l 700 680 l 700 638 m 650 533 q 626 668 627 596 l 626 659 q 636 596 624 635 q 650 533 648 552 m 737 564 l 749 584 l 740 564 q 716 583 729 567 q 703 610 703 600 l 703 630 q 737 564 703 584 m 756 619 l 753 594 l 756 619 m 784 568 l 777 538 l 784 568 m 598 545 l 603 545 l 603 561 l 598 561 l 598 545 m 688 548 l 694 529 l 688 548 m 603 533 l 606 503 q 603 533 607 515 m 772 510 l 777 510 l 777 529 l 772 529 l 772 510 m 107 499 l 114 403 l 107 499 m 626 432 q 611 491 619 452 l 611 496 l 626 432 m 254 487 q 298 315 254 407 q 383 157 341 236 q 437 179 416 160 q 327 267 367 193 q 276 406 304 309 q 268 451 269 416 q 254 487 268 481 m 691 471 l 694 452 q 691 471 695 461 m 765 415 q 781 406 781 406 q 802 420 792 406 q 811 445 811 434 q 806 464 811 455 l 804 464 q 779 445 790 465 q 765 415 766 416 m 649 406 q 622 354 619 386 l 623 338 q 668 313 637 313 q 698 329 685 313 q 711 361 711 344 q 696 394 711 381 q 662 408 681 408 l 649 406 m 119 354 l 123 354 l 123 376 l 118 376 l 119 354 m 165 368 l 169 329 l 165 368 m 793 333 q 733 289 769 322 q 675 245 697 257 l 679 241 q 772 291 711 255 l 780 275 l 780 296 q 803 310 780 296 q 806 295 807 306 q 811 280 806 284 q 811 291 811 284 q 810 303 810 300 q 813 323 810 310 q 816 343 816 336 l 814 356 q 793 333 798 352 m 172 171 q 140 257 156 213 q 123 345 123 306 q 172 171 127 293 m 183 291 q 172 317 172 300 l 172 322 q 214 194 182 278 q 204 218 212 199 q 198 241 198 231 q 199 249 198 241 l 211 241 l 221 242 q 267 206 253 245 q 295 145 286 154 l 295 152 q 276 189 295 158 q 257 235 257 219 q 260 249 257 235 q 275 281 275 261 q 261 314 275 300 q 228 328 247 328 q 201 315 209 328 q 183 291 192 303 m 556 287 q 514 274 543 277 q 473 264 484 271 q 515 273 486 270 q 556 283 543 277 l 556 287 m 526 237 l 519 237 l 513 234 l 526 237 m 218 187 l 230 157 l 218 187 m 784 168 l 787 168 l 787 184 l 784 184 l 784 168 m 737 126 q 729 165 729 151 l 730 171 l 737 126 m 445 160 q 407 147 432 158 q 369 132 382 135 q 445 160 393 145 m 787 152 q 793 135 790 138 l 793 137 q 787 152 793 142 m 487 138 q 467 129 477 126 q 487 138 477 126 m 402 108 l 390 108 l 383 102 l 402 108 m 372 65 q 405 74 377 70 q 443 86 432 78 q 409 73 432 76 q 372 65 380 69 "},"k":{"x_min":20.09375,"x_max":857.796875,"ha":878,"o":"m 389 914 l 400 914 q 598 1153 468 992 l 610 1153 q 655 1086 614 1148 q 716 1046 681 1046 q 724 1034 724 1042 q 718 1019 724 1029 q 713 1001 713 1010 q 721 997 717 997 q 732 1003 724 997 q 746 1008 740 1008 q 762 966 749 994 q 775 922 775 939 q 773 906 775 914 l 785 896 l 503 590 q 675 418 530 564 q 857 254 779 311 q 811 186 850 234 q 784 140 797 163 q 743 114 765 111 q 665 55 714 81 q 575 14 620 34 q 488 170 569 24 q 389 319 436 266 q 374 169 383 285 q 351 21 368 76 l 303 22 q 161 7 224 24 l 153 21 q 140 14 144 22 q 130 0 132 1 q 66 39 121 10 q 23 86 23 62 q 31 114 23 88 q 91 567 91 275 q 66 807 91 673 q 20 1043 43 926 q 63 1050 41 1047 q 92 1076 91 1056 q 213 1134 132 1095 q 244 1126 228 1126 q 332 1158 274 1126 q 389 914 377 1067 m 300 1101 q 278 1093 292 1101 q 255 1085 264 1085 l 274 1001 l 264 992 q 213 1088 250 1027 q 202 1072 202 1082 q 207 1053 202 1065 q 212 1033 212 1040 q 210 1023 212 1033 q 199 1062 196 1042 q 183 1071 193 1071 q 134 1050 181 1071 q 156 882 154 959 q 146 943 143 903 q 119 982 132 953 q 96 1020 106 1010 l 92 1001 q 83 1013 80 1013 l 77 1011 q 140 525 140 777 q 77 86 140 279 l 86 79 l 92 79 q 137 303 122 153 l 153 317 q 134 191 140 215 q 99 70 121 121 q 137 46 111 59 q 153 94 143 53 q 180 133 158 125 q 183 87 184 120 q 190 40 182 55 l 198 40 q 231 81 225 40 q 240 140 235 110 l 245 140 q 240 52 245 111 q 283 56 255 50 l 283 62 q 298 167 290 97 q 305 138 305 154 q 297 99 305 125 q 290 57 289 72 l 290 52 l 317 52 q 331 165 318 86 q 343 277 343 237 q 346 312 343 289 q 350 347 350 335 q 317 400 350 389 l 317 393 q 309 373 317 399 q 305 385 305 376 l 305 387 q 310 398 310 393 q 286 419 310 400 l 279 403 q 271 428 274 421 q 255 448 267 442 q 237 251 250 383 q 236 289 236 269 q 240 386 236 298 q 237 483 243 445 l 249 495 q 247 534 247 515 q 229 567 244 558 q 222 457 225 492 q 202 350 216 396 q 209 440 203 374 q 213 531 215 497 l 213 555 q 191 580 203 555 q 179 616 179 605 q 188 639 179 628 q 206 662 197 651 l 210 658 q 202 625 202 644 q 213 609 202 610 l 212 599 q 217 590 212 590 q 233 596 223 590 q 246 602 244 602 l 251 600 q 268 579 254 581 q 299 579 284 579 l 304 579 q 289 544 296 561 q 264 513 277 522 q 263 519 263 516 q 266 533 263 524 q 270 547 270 542 q 254 522 256 544 q 254 490 254 506 q 251 479 254 483 l 264 467 l 283 483 q 286 476 286 482 q 279 468 286 474 q 273 460 273 463 q 298 447 273 447 q 332 460 312 447 q 363 483 347 471 l 369 484 q 400 473 386 484 q 427 448 413 461 l 422 448 q 402 460 416 448 q 377 471 387 471 q 359 448 360 461 q 437 387 393 441 q 492 301 473 343 q 428 380 460 340 q 354 438 379 438 q 320 411 341 438 q 332 412 326 412 q 484 263 388 412 q 598 60 542 162 q 649 86 620 65 q 696 117 683 111 q 673 191 682 172 q 628 254 657 228 l 631 257 q 746 159 668 222 q 750 166 750 162 q 744 172 750 167 q 738 179 738 176 q 743 186 738 183 l 759 175 q 764 189 764 182 q 746 226 764 202 q 724 257 727 250 q 736 262 730 262 q 764 244 747 262 q 792 220 786 222 q 805 237 805 231 q 789 266 805 235 l 472 560 q 462 547 462 554 q 478 526 462 539 q 495 506 494 513 l 491 503 l 453 535 l 435 516 l 461 487 l 456 483 l 419 513 q 410 502 410 502 l 404 503 l 404 508 q 423 542 404 522 q 442 574 442 561 q 611 757 449 583 q 751 924 751 907 q 743 936 751 929 q 734 943 736 943 l 666 880 l 662 882 l 727 955 l 724 966 q 656 909 695 952 q 591 845 610 858 l 586 849 q 610 890 607 865 q 686 1023 659 926 l 652 1023 q 624 985 644 1008 l 621 990 q 643 1027 630 1001 q 639 1058 641 1043 q 621 1082 636 1074 q 586 1020 613 1047 l 584 1023 q 594 1043 585 1032 q 602 1063 595 1049 q 610 1084 610 1076 q 602 1092 610 1089 q 237 690 481 937 l 232 693 q 287 775 244 729 q 351 852 338 830 q 353 884 353 868 q 335 1004 353 919 q 300 1101 316 1101 m 302 1032 l 290 1055 l 302 1011 l 302 1032 m 168 1032 l 176 990 l 168 1032 m 221 971 l 213 1023 l 221 959 q 221 971 221 971 m 584 1020 q 529 964 577 1010 q 584 1020 548 982 m 115 914 q 96 1001 109 943 q 115 914 105 972 m 305 971 l 310 971 l 309 1001 l 305 1001 l 305 971 m 559 952 q 576 971 564 951 q 591 992 588 991 q 559 952 591 975 m 622 985 q 529 868 585 948 l 622 985 m 181 959 l 183 959 l 184 978 l 180 978 l 181 959 m 309 896 l 314 896 l 314 964 l 310 964 l 309 896 m 195 861 l 195 867 q 188 902 195 878 q 182 939 182 926 q 184 952 182 945 q 195 861 185 935 m 127 852 l 118 901 l 127 841 q 127 852 127 852 m 613 796 q 701 890 643 827 q 613 796 662 833 m 134 814 q 129 833 134 814 l 134 803 l 134 814 m 480 806 l 405 715 l 480 806 m 426 787 l 397 749 l 426 787 m 332 738 q 302 693 302 723 q 315 663 302 674 q 342 644 329 652 l 335 635 q 309 593 316 635 q 327 618 310 605 q 348 639 343 631 l 342 644 q 380 660 372 654 q 393 694 393 670 q 388 719 393 706 q 343 739 368 739 l 332 738 m 372 597 l 358 581 l 372 597 m 165 429 q 172 571 173 547 q 176 531 176 552 q 165 429 176 493 m 286 483 q 320 544 296 505 l 286 483 m 199 487 l 195 513 l 195 483 l 199 487 m 587 400 l 496 503 q 541 452 513 489 q 587 400 568 415 m 461 483 l 476 467 l 476 471 q 461 483 464 483 m 426 444 l 457 411 l 426 444 m 270 350 l 274 350 l 274 364 l 270 364 l 270 350 m 184 301 q 162 170 176 257 q 186 273 166 205 l 188 288 q 184 301 188 288 m 662 111 q 601 197 640 137 q 538 285 562 257 q 601 199 567 259 q 662 111 640 134 m 613 273 l 629 257 l 629 262 q 613 273 625 267 m 667 270 l 740 186 l 667 270 m 541 214 q 580 154 557 196 q 622 95 603 112 q 541 214 620 95 "},"g":{"x_min":20,"x_max":869.03125,"ha":890,"o":"m 501 1131 q 523 1137 510 1131 q 544 1143 536 1143 q 554 1139 547 1143 q 591 1110 564 1129 q 657 1076 624 1092 q 715 1032 699 1055 q 777 946 747 988 q 823 854 815 893 q 810 858 816 858 q 789 840 800 858 q 767 822 779 822 q 755 825 763 822 q 701 800 741 810 q 647 771 661 790 q 531 728 576 755 q 461 843 508 767 q 354 715 389 835 q 330 529 330 631 q 382 348 330 412 q 410 345 396 345 q 541 405 488 345 l 542 438 q 446 447 457 447 q 477 606 447 464 q 845 667 600 623 l 847 629 q 840 521 848 589 q 811 432 828 432 q 790 438 816 432 q 788 415 788 427 q 869 136 788 358 q 858 109 869 118 q 835 91 847 99 q 694 49 785 69 q 550 13 589 26 l 543 46 q 348 0 461 0 q 301 17 331 0 q 255 34 271 34 q 244 32 250 34 q 20 546 20 191 q 41 752 20 661 q 60 816 50 774 q 69 833 67 823 q 70 854 70 854 q 116 947 82 891 q 180 1032 151 1003 q 231 1059 200 1037 q 277 1087 262 1081 q 369 1130 323 1108 q 463 1158 431 1158 q 486 1144 478 1158 q 501 1131 494 1131 m 423 1098 q 326 1068 377 1096 q 241 1013 283 1040 q 267 981 241 997 q 238 956 258 969 l 230 962 q 231 972 231 966 q 218 981 231 979 q 199 985 201 985 q 84 652 102 872 l 71 657 q 65 547 65 599 q 108 292 65 417 q 252 82 160 146 q 260 94 260 92 l 259 98 q 216 159 222 129 q 245 126 225 153 q 277 101 263 104 q 296 124 290 106 q 305 121 301 121 q 327 139 316 121 l 318 146 l 322 155 l 329 147 l 344 155 q 357 136 345 149 l 333 127 q 331 119 331 124 q 341 101 331 106 q 335 98 338 98 q 327 100 332 98 q 319 103 322 103 q 315 101 316 103 l 315 82 q 401 64 348 64 q 454 69 429 64 q 401 56 432 56 q 341 61 381 56 q 306 78 329 69 l 296 72 q 374 38 322 38 q 432 43 396 38 q 490 53 475 52 q 494 59 494 56 q 491 67 494 62 q 487 75 487 72 q 511 91 487 88 q 541 101 535 94 q 536 120 541 110 q 528 116 533 120 q 520 113 523 113 q 514 117 516 113 q 555 133 536 133 q 554 165 554 132 q 562 188 554 181 q 579 61 565 179 l 581 64 q 589 62 584 62 q 596 75 595 62 q 601 91 598 88 q 604 72 605 88 l 608 71 q 619 76 612 71 q 631 81 626 81 q 636 79 635 81 q 668 104 665 79 q 666 150 666 91 q 670 169 666 163 q 694 127 686 160 q 711 82 701 94 q 798 101 759 105 l 801 169 q 815 150 811 168 q 819 124 818 127 l 828 136 q 786 278 818 179 q 748 419 756 367 q 743 440 746 429 q 730 450 741 451 l 737 457 l 743 454 q 787 468 759 479 q 801 562 787 479 l 791 565 l 801 570 l 804 596 l 798 594 q 791 600 792 594 l 810 606 q 804 626 811 615 q 655 594 742 606 q 501 577 578 586 l 501 565 l 536 562 q 498 551 523 560 q 517 539 497 547 l 495 532 q 490 513 495 529 l 501 510 l 490 502 q 482 484 487 496 l 487 476 q 655 457 488 476 l 629 444 l 628 298 q 622 438 620 419 l 604 438 l 602 415 q 604 372 601 399 q 608 327 608 340 q 600 279 608 299 l 591 438 l 582 438 q 570 320 582 322 l 565 256 q 562 282 562 259 q 559 298 562 282 q 561 283 561 292 q 556 244 561 272 q 551 207 551 215 l 546 207 q 544 221 545 208 l 544 226 l 514 228 q 533 239 523 233 q 543 252 543 244 q 541 260 543 252 q 522 252 535 256 l 514 256 q 533 269 523 262 q 543 293 543 276 q 540 318 543 302 q 537 341 537 334 q 419 298 491 293 l 423 292 l 423 285 q 416 270 423 275 q 441 269 419 267 l 451 263 q 420 259 438 259 l 394 260 q 399 267 399 262 l 397 273 q 298 532 298 341 q 390 853 298 751 q 389 859 389 856 q 410 873 389 873 l 419 872 l 419 869 l 423 868 q 442 876 423 868 q 438 881 439 881 q 430 876 435 881 q 423 871 426 871 l 419 872 l 416 879 q 436 891 436 894 l 435 895 l 432 895 q 381 866 381 895 q 355 842 367 865 q 334 808 341 814 q 330 827 330 817 q 340 865 330 840 q 350 904 350 889 q 312 914 350 927 q 297 949 295 926 l 297 959 l 315 959 l 308 952 q 332 944 318 944 q 354 947 340 944 q 376 950 368 950 l 386 949 l 341 933 q 360 911 345 924 l 360 917 q 435 943 386 923 q 422 954 433 952 q 409 959 410 957 q 422 972 422 960 q 417 989 422 978 q 413 1007 413 1001 q 416 1015 413 1007 q 432 986 425 1008 q 452 954 438 963 q 493 862 456 910 q 559 784 526 823 l 572 790 q 541 835 566 807 q 509 879 516 863 l 515 885 q 552 837 520 879 q 591 794 584 794 q 600 794 595 794 l 601 803 q 585 829 601 805 q 569 866 569 852 q 596 829 581 859 q 625 800 611 800 q 636 803 625 800 q 623 833 636 816 q 602 862 605 853 l 607 866 q 652 808 630 845 l 661 813 q 642 847 659 827 q 626 881 626 868 q 629 895 626 888 q 619 918 629 904 q 609 943 609 933 q 610 952 609 943 q 655 879 642 917 q 689 847 665 863 l 699 853 q 653 930 676 891 q 600 999 626 973 l 602 1004 q 708 858 654 956 l 718 858 q 692 907 711 884 l 696 917 l 737 866 l 753 866 l 756 876 l 764 869 l 772 888 q 664 1041 727 970 q 664 1028 664 1043 q 661 1022 664 1024 q 601 1072 630 1047 q 532 1101 565 1101 q 528 1085 528 1092 q 537 1065 528 1082 q 547 1032 547 1048 q 530 1004 547 1018 q 513 972 513 989 q 506 954 513 954 q 443 1038 443 1024 q 465 1080 443 1066 q 514 1089 487 1095 q 468 1110 503 1110 q 423 1098 441 1110 m 211 967 q 182 910 196 939 q 166 850 166 876 q 168 824 166 837 q 214 804 190 804 l 225 805 q 249 824 231 813 q 252 847 252 836 q 214 895 252 895 q 198 892 209 895 q 182 889 188 889 l 176 891 l 211 967 m 331 967 l 322 967 l 318 962 l 331 967 m 409 954 l 397 954 l 390 952 l 409 954 m 555 888 q 530 917 543 891 q 501 949 517 943 q 506 950 504 950 q 532 924 519 950 q 555 888 549 892 m 693 926 q 682 940 690 930 q 693 926 685 936 m 482 936 l 487 926 l 482 936 m 371 911 q 379 902 374 910 q 387 894 383 894 q 417 903 397 894 q 437 921 437 912 q 435 930 437 921 q 371 911 413 921 m 753 885 l 730 907 l 753 876 l 753 885 m 153 904 l 143 872 l 153 904 m 131 839 l 117 790 l 131 839 m 153 829 q 135 736 151 803 q 122 642 121 677 l 124 622 q 153 829 134 691 m 185 797 q 158 651 155 736 l 159 614 q 185 797 161 732 m 216 784 l 206 749 l 216 784 m 280 633 l 286 633 l 286 664 l 280 664 l 280 633 m 278 593 l 280 593 l 280 619 l 277 619 l 278 593 m 162 544 q 159 606 159 552 l 157 596 q 159 575 157 588 q 162 555 162 562 l 162 544 m 743 593 l 759 591 l 763 591 q 779 596 773 591 l 773 597 q 761 594 769 597 q 748 591 753 591 l 743 593 m 642 585 q 609 576 630 585 q 569 570 588 567 l 602 570 l 591 555 q 591 535 591 555 q 644 494 591 494 q 672 508 660 494 q 684 538 684 522 q 682 551 684 538 q 642 585 660 585 m 241 465 l 245 465 l 245 487 l 241 487 l 241 465 m 655 449 q 655 416 653 436 q 658 384 658 389 q 641 355 658 357 q 655 285 657 332 q 685 251 663 263 l 715 256 q 722 234 724 251 l 721 243 q 733 269 721 256 q 753 292 751 289 q 772 206 761 264 q 757 287 772 208 q 734 367 748 337 q 743 319 743 350 q 718 338 735 327 q 690 386 691 348 q 685 449 685 448 q 690 407 685 438 q 694 360 695 376 l 693 341 q 656 384 656 341 q 657 407 656 392 q 659 428 659 422 q 655 449 659 441 m 722 423 q 724 421 722 422 l 721 428 q 718 445 718 436 l 718 449 l 722 423 m 102 435 q 121 332 108 418 q 159 237 131 269 q 124 331 135 263 q 102 435 112 413 m 270 371 l 254 402 l 270 367 l 270 371 m 188 280 q 231 241 188 241 q 279 286 281 241 l 277 298 q 231 324 261 324 q 188 280 188 324 m 308 300 q 371 221 337 250 l 371 225 q 363 245 363 232 q 376 260 363 257 q 339 276 360 261 q 308 300 312 298 m 648 244 l 652 244 l 652 260 l 647 260 l 648 244 m 363 199 q 358 198 361 198 q 356 204 357 198 q 353 209 355 209 q 359 206 354 208 q 364 202 364 204 l 363 199 m 258 169 l 244 188 q 258 169 251 176 m 546 154 l 540 154 l 520 143 l 546 154 "},"t":{"x_min":22.5,"x_max":927.46875,"ha":949,"o":"m 865 1149 q 876 1158 868 1158 q 895 1158 897 1158 q 904 1005 899 1127 q 923 854 905 908 q 927 841 927 842 q 907 826 927 832 q 879 818 894 822 q 765 808 823 813 q 654 787 697 802 q 645 562 645 673 q 695 31 645 277 q 587 20 613 20 l 581 28 q 510 8 569 18 q 430 0 456 0 q 234 65 344 0 q 276 224 274 160 q 267 247 267 234 q 277 281 267 260 q 291 318 290 312 q 322 613 322 425 q 311 804 322 681 q 22 843 152 821 q 35 940 26 857 q 71 1027 41 1002 q 103 1158 83 1070 q 478 1114 268 1114 q 865 1149 671 1114 m 864 1110 q 455 1076 649 1076 q 128 1104 278 1076 l 122 1057 q 202 1050 163 1054 q 280 1030 273 1041 q 202 1038 254 1030 q 122 1047 150 1047 l 116 1047 l 116 1035 q 111 1021 111 1027 q 121 1010 111 1015 q 132 996 132 1005 q 131 991 132 993 q 76 963 76 995 q 77 952 76 963 q 179 938 116 942 q 280 933 276 933 l 280 930 q 219 926 251 926 q 71 941 154 926 l 71 910 q 143 902 96 910 q 213 895 190 895 l 213 891 l 190 890 q 69 899 186 890 l 64 871 q 184 855 102 863 q 303 838 262 847 l 303 834 q 346 831 314 831 q 385 824 374 831 l 378 815 q 358 820 369 820 l 333 818 q 381 813 350 818 l 386 562 l 381 562 l 383 601 q 380 702 383 640 q 376 804 376 779 l 351 804 q 360 555 360 627 q 352 396 360 485 q 319 251 340 268 q 331 210 331 235 q 322 144 331 189 q 300 86 310 89 q 295 115 297 90 q 290 100 295 109 q 285 86 285 90 q 306 73 285 77 q 330 64 328 69 l 346 118 q 354 102 354 111 q 346 79 354 93 q 339 60 339 66 q 374 43 339 43 q 401 72 407 43 q 406 45 406 68 l 430 45 l 443 131 q 443 45 450 86 q 456 42 450 42 q 469 63 466 42 q 476 95 470 91 q 476 276 476 86 q 485 432 476 367 l 496 423 q 500 52 494 299 l 521 52 l 526 185 q 531 117 532 161 q 535 52 530 72 l 567 52 l 569 212 l 578 212 l 593 67 l 605 67 q 613 79 603 75 l 620 67 l 624 67 q 636 76 625 67 q 610 428 612 229 q 609 785 609 447 l 551 785 q 551 748 551 788 q 548 721 551 732 q 544 784 545 730 l 542 795 q 600 803 555 804 q 647 824 637 803 l 645 827 l 653 834 q 747 844 682 836 q 843 852 808 852 q 877 896 877 852 q 873 938 877 899 q 876 979 872 964 q 665 961 805 970 l 665 969 q 767 986 698 978 q 870 1003 837 995 l 867 1038 q 786 1030 844 1036 q 704 1022 734 1022 q 656 1027 678 1022 q 775 1038 715 1032 q 870 1066 869 1048 q 826 1071 857 1075 q 782 1075 795 1067 l 864 1086 l 864 1110 m 419 986 q 454 947 419 967 q 491 903 489 926 q 489 916 489 909 q 503 951 489 929 q 518 988 518 973 q 504 1019 518 1005 q 471 1034 490 1034 q 419 986 419 1034 m 330 985 q 183 996 235 990 q 330 985 232 995 m 500 891 q 554 906 520 901 q 609 910 609 910 q 541 908 607 910 q 500 891 505 906 m 840 910 q 746 899 814 906 q 794 906 761 907 q 840 910 827 906 m 430 815 l 430 804 l 434 804 q 443 687 443 689 l 443 674 l 437 795 q 444 806 437 802 q 457 807 451 810 q 467 810 463 810 q 482 776 482 810 q 477 794 477 786 q 575 818 477 818 q 587 834 585 818 q 430 815 490 810 m 578 701 l 581 701 l 581 733 l 578 733 l 578 701 m 542 694 l 539 640 l 542 694 m 425 264 l 429 264 l 430 287 l 425 287 l 425 264 m 420 256 l 413 146 l 420 256 m 369 221 l 351 118 l 369 221 m 307 182 l 303 154 l 307 182 m 606 154 l 608 86 l 606 154 m 300 122 l 303 122 l 303 137 l 300 137 l 300 122 m 409 137 l 406 76 l 409 137 "},"e":{"x_min":19,"x_max":778.96875,"ha":798,"o":"m 778 1136 l 770 1129 q 747 897 747 989 q 748 843 747 869 q 755 834 755 836 l 753 829 q 587 823 695 818 q 419 820 471 827 q 418 795 418 808 q 424 733 418 775 q 430 667 431 691 q 548 695 512 688 q 670 708 615 706 l 668 659 q 673 459 671 591 l 673 414 q 479 426 573 427 l 438 426 q 433 381 437 411 q 430 334 430 350 q 434 302 430 317 q 606 337 503 312 q 778 381 691 359 q 769 186 781 315 q 748 175 753 185 q 729 0 748 159 q 567 24 665 14 q 403 39 415 38 q 396 3 394 8 q 234 21 331 18 q 72 24 153 22 l 63 32 l 66 37 q 41 55 65 38 q 26 82 26 67 l 27 87 q 42 105 39 93 q 43 127 45 112 q 40 149 40 146 q 49 167 40 162 q 30 188 30 180 q 34 205 30 195 q 37 220 37 215 q 60 233 45 228 q 85 241 82 240 q 116 567 116 411 q 79 877 116 738 q 26 922 26 897 q 49 956 26 930 q 19 1009 19 991 q 31 1030 19 1019 q 42 1051 43 1042 l 42 1056 l 37 1059 q 112 1074 46 1067 q 202 1101 177 1081 q 216 1065 205 1088 q 222 1084 224 1069 q 219 1104 219 1114 l 221 1110 l 257 1109 q 375 1123 327 1107 l 374 1114 q 398 1092 374 1092 q 585 1119 436 1092 q 773 1158 729 1144 q 778 1136 778 1153 m 388 1046 q 419 1042 399 1048 l 414 1042 q 394 1005 394 1043 l 393 992 q 368 1040 379 1007 q 349 1087 357 1074 l 349 1081 l 344 1072 l 340 1079 q 314 1075 331 1081 l 311 1065 q 303 1075 303 1068 l 292 1075 q 281 1050 281 1076 q 276 1035 281 1042 q 269 1068 268 1063 q 260 1075 266 1075 l 245 1072 q 239 1049 239 1066 q 247 1020 239 1030 q 238 1010 238 1017 q 243 993 238 1004 q 249 975 249 982 q 247 966 249 969 q 224 971 238 965 q 212 1017 217 1003 q 194 1059 205 1042 l 168 1049 q 176 1032 172 1043 l 172 1023 q 166 1035 169 1024 q 157 1046 163 1046 q 130 1023 136 1046 q 118 1037 131 1037 q 101 1034 118 1037 l 102 1029 l 98 1020 l 91 1030 l 75 1030 q 67 1018 73 1027 q 60 1001 60 1008 l 60 998 l 72 998 l 79 992 q 65 987 65 990 q 66 985 66 985 l 82 971 l 85 982 q 155 513 155 781 q 101 141 155 335 q 99 164 97 145 l 91 164 q 74 124 74 154 q 72 77 75 84 q 83 66 77 66 q 101 66 104 66 q 109 84 109 69 q 117 95 109 93 q 120 87 120 92 q 116 76 120 83 q 113 66 113 69 q 130 61 121 61 q 162 95 157 61 q 163 82 166 90 q 160 67 160 67 l 162 63 l 191 63 q 193 84 195 67 q 202 103 193 97 q 207 92 207 97 q 203 76 207 86 q 199 63 199 67 l 214 63 q 224 74 221 61 q 228 92 225 83 q 232 67 230 80 q 246 54 234 54 l 255 56 l 255 69 q 258 82 255 69 q 263 56 259 73 q 281 54 262 56 q 293 63 291 54 q 321 50 293 53 l 321 57 q 330 82 321 53 l 333 43 l 356 43 l 355 50 q 363 69 355 56 l 366 42 q 394 151 375 79 q 397 106 397 145 l 404 146 q 427 153 411 153 q 451 149 440 153 l 411 137 q 438 133 421 138 q 411 122 426 133 l 489 114 q 406 111 476 111 l 406 103 l 413 103 q 451 95 415 103 l 406 87 q 703 43 570 73 l 706 101 l 700 99 l 691 103 q 706 106 694 109 l 706 122 q 688 122 707 122 q 679 125 682 122 q 710 130 684 130 q 715 148 715 138 q 698 164 715 166 q 715 167 701 170 q 717 190 717 173 q 725 212 717 208 l 729 260 q 715 260 729 260 q 703 264 707 260 q 729 269 707 269 l 729 295 l 717 293 q 706 298 717 293 l 710 302 q 730 324 730 303 l 729 328 q 434 260 630 306 l 474 260 q 441 251 468 256 q 415 234 419 248 q 403 328 403 269 q 401 426 404 404 q 333 434 366 430 q 285 473 289 441 l 295 480 q 302 470 304 477 q 309 472 306 472 q 318 465 314 472 q 330 459 322 459 l 376 460 q 466 459 409 461 q 555 456 529 456 q 635 459 598 456 l 632 607 q 621 607 632 607 q 613 613 614 607 q 627 616 614 616 l 632 616 l 632 641 l 616 640 q 601 644 616 640 q 620 649 603 646 q 626 653 621 650 q 632 660 632 656 l 632 663 q 493 649 563 656 q 363 607 409 640 l 385 596 q 373 594 380 591 q 359 596 366 595 l 359 585 q 341 580 351 586 q 327 574 331 574 q 314 581 319 574 l 318 585 q 345 629 319 611 q 394 656 370 642 q 384 750 392 679 q 378 846 378 810 q 382 910 378 881 q 397 877 386 898 q 397 898 397 877 q 403 910 397 907 q 411 893 412 904 l 571 892 q 493 884 544 882 q 415 881 435 885 l 415 871 q 535 865 468 865 l 706 865 l 706 982 q 688 982 707 982 q 677 985 681 982 q 691 982 685 982 q 715 1020 715 982 q 715 1056 715 1061 q 697 1056 715 1056 q 687 1059 691 1056 q 721 1106 719 1064 q 419 1065 619 1097 q 388 1046 388 1056 m 314 1046 l 318 1046 l 318 1065 l 314 1065 l 314 1046 m 687 1056 q 675 1058 681 1058 q 649 1053 665 1058 q 622 1048 632 1048 q 610 1049 622 1048 q 687 1056 677 1058 m 512 1037 q 549 1042 525 1040 q 512 1037 536 1039 m 136 1023 l 139 1004 q 136 1023 140 1011 m 120 940 q 102 1020 104 981 l 120 940 m 186 974 l 186 971 q 194 937 186 960 q 199 899 202 914 q 244 868 215 868 q 276 883 263 868 q 290 917 290 898 q 276 947 290 934 q 244 961 263 961 q 199 928 216 961 q 190 952 192 936 q 186 974 189 969 m 82 935 l 82 940 l 72 934 l 82 935 m 85 926 l 66 926 q 85 910 71 914 l 85 926 m 406 922 l 502 922 q 447 926 476 926 q 406 922 418 926 m 300 835 q 296 873 300 835 l 299 825 l 300 835 m 250 855 q 258 734 258 827 l 258 717 l 258 705 q 270 821 272 772 l 270 852 q 259 858 265 858 q 250 855 259 858 m 236 814 q 231 838 236 814 l 236 801 l 236 814 m 239 762 l 244 670 l 239 762 m 239 622 l 245 622 l 245 663 l 239 663 l 239 622 m 366 549 l 366 530 q 403 478 363 478 q 448 496 429 478 q 453 515 453 505 q 413 565 453 565 q 366 549 398 565 m 264 549 l 264 521 q 287 501 271 519 q 318 486 302 483 l 308 484 l 300 489 l 300 495 l 302 505 q 292 518 301 510 l 300 522 l 292 522 q 281 539 281 531 l 285 550 l 349 544 q 295 549 330 542 q 285 559 294 559 q 264 549 278 559 m 531 505 l 515 505 l 505 499 l 531 505 m 356 269 l 359 269 l 359 335 l 356 335 l 356 269 m 162 305 l 157 279 l 162 305 m 120 101 l 153 264 q 120 101 141 211 m 337 111 l 337 121 q 344 185 337 143 q 352 250 352 228 l 351 260 q 337 111 349 211 m 698 260 q 648 250 690 259 q 597 246 617 244 l 578 247 q 698 260 619 248 m 264 247 l 258 222 l 231 227 q 199 188 199 217 q 203 155 199 176 q 208 124 208 134 q 205 103 208 112 l 209 103 l 209 114 l 204 114 q 208 125 207 117 q 216 133 209 133 q 233 121 231 133 q 231 101 231 127 l 231 111 q 250 127 241 128 q 262 127 258 127 q 270 121 270 127 q 265 106 270 116 q 261 90 261 96 q 264 82 261 90 q 268 120 265 101 q 288 148 271 140 q 296 172 296 160 q 277 210 296 186 q 264 247 259 234 m 101 208 q 76 192 87 192 q 66 193 71 192 q 101 208 81 208 m 99 189 q 66 183 87 189 q 75 170 75 172 l 99 170 l 99 189 m 303 114 l 307 114 l 307 133 l 302 133 l 303 114 m 333 82 l 337 82 l 337 103 l 333 103 l 333 82 m 299 101 l 296 63 l 299 101 "},"J":{"x_min":19.046875,"x_max":764.65625,"ha":783,"o":"m 579 1146 q 616 1122 587 1122 q 690 1127 642 1122 q 764 1134 749 1133 l 764 1075 q 757 756 766 865 q 735 519 735 557 q 752 283 735 399 q 739 201 747 269 q 714 127 730 147 q 599 37 674 75 q 460 0 525 0 q 392 9 425 0 q 330 -1 327 -1 q 295 9 309 -1 q 257 6 276 6 q 72 111 172 6 q 58 137 71 114 q 49 163 49 153 q 59 181 49 173 q 37 292 58 215 q 19 403 17 363 q 317 460 184 424 l 328 456 q 337 385 333 443 q 360 321 338 340 l 369 320 q 404 340 389 320 q 398 579 398 457 q 430 1158 398 920 q 486 1149 443 1156 q 542 1141 521 1141 q 579 1146 561 1141 m 513 1111 q 499 1114 504 1114 q 489 1107 490 1114 q 489 1090 487 1101 q 492 1074 492 1076 q 487 1059 492 1066 l 476 1108 q 437 653 437 887 q 464 343 437 405 l 468 350 q 477 349 473 349 q 494 378 497 349 q 506 350 497 367 q 419 302 484 308 q 382 284 412 291 q 354 260 353 278 l 354 256 q 364 256 356 256 q 379 252 374 256 l 354 240 q 363 226 354 229 q 382 221 372 223 q 369 216 379 218 q 360 210 360 214 q 363 203 361 207 q 351 198 356 198 q 338 203 347 198 q 320 310 330 236 q 298 415 309 379 q 274 407 286 412 q 263 388 262 402 q 260 404 257 392 q 232 401 256 401 q 211 385 213 401 l 207 392 l 203 392 q 181 385 200 392 l 177 385 q 135 373 150 388 l 94 369 q 94 359 94 370 q 91 350 94 353 q 82 369 81 366 l 78 370 q 64 362 78 370 q 94 224 87 249 q 162 93 124 111 l 153 100 l 158 111 l 177 93 q 213 117 195 106 q 235 152 235 135 q 211 184 235 187 q 208 195 211 188 q 204 205 204 201 q 211 214 204 210 q 246 158 246 197 q 223 90 246 139 l 230 90 q 250 100 245 88 q 253 127 255 111 l 260 127 q 289 108 272 108 q 320 116 301 108 q 350 123 340 123 q 370 116 362 123 q 309 74 351 97 q 364 82 367 82 l 373 81 q 286 62 343 69 q 199 46 224 54 l 221 46 q 291 52 246 44 q 359 59 335 60 l 363 59 q 330 49 351 52 q 295 43 301 44 q 324 37 308 37 q 374 46 341 37 q 422 55 406 55 q 445 52 435 55 q 427 47 442 49 q 408 36 411 44 l 416 27 q 704 214 646 27 q 709 237 709 231 q 701 272 709 250 q 691 302 693 294 l 699 294 q 705 369 705 369 q 699 463 705 401 q 693 557 693 525 q 699 657 693 611 q 726 1090 720 799 l 715 1090 l 707 1092 l 698 1082 l 695 1090 l 661 1090 l 663 1075 q 658 1063 663 1075 q 654 1090 655 1066 l 626 1092 l 621 1066 q 617 1090 617 1071 l 607 1090 q 567 916 593 1053 l 560 916 q 552 1011 551 946 q 545 1108 554 1076 l 525 1111 l 525 1100 l 522 1090 l 513 1111 m 525 1010 l 529 1010 l 529 1090 l 525 1090 l 525 1010 m 617 1045 l 621 1045 l 621 1066 l 617 1066 l 617 1045 m 487 1010 l 492 1010 l 492 1026 l 487 1026 l 487 1010 m 658 907 l 653 919 l 658 897 l 658 907 m 621 900 q 621 768 621 857 l 621 745 q 613 657 621 697 q 645 570 639 628 q 651 475 648 522 l 651 540 q 617 657 651 619 q 621 900 618 738 m 658 877 q 654 809 654 845 q 677 638 654 716 l 677 641 l 669 700 q 658 777 658 731 q 658 855 658 816 l 658 877 m 532 846 q 525 712 527 828 q 491 585 523 626 q 522 631 500 600 l 532 846 m 579 846 l 579 616 q 621 486 623 530 l 621 472 q 607 556 623 519 q 579 723 579 625 q 579 846 579 849 m 461 628 q 489 739 489 692 q 487 767 489 754 q 461 628 491 676 m 487 577 l 483 558 l 487 577 m 545 558 q 521 509 521 547 q 522 479 521 476 l 522 518 q 529 543 523 519 q 546 558 535 558 l 551 558 q 583 490 572 547 l 583 498 q 575 540 583 499 q 545 558 561 556 m 483 551 l 483 524 q 510 392 480 447 q 483 551 478 493 m 525 469 l 532 431 l 525 469 m 583 446 l 583 469 l 578 441 l 583 446 m 621 441 l 624 441 l 624 464 l 621 464 l 621 441 m 686 404 l 680 350 q 677 326 677 344 q 669 302 678 308 q 663 351 659 318 q 661 399 666 383 q 648 369 665 373 l 661 359 q 646 315 648 320 q 621 278 636 291 l 661 284 q 685 340 682 299 q 686 404 685 372 m 473 381 l 476 362 l 473 381 m 551 328 q 546 362 543 337 q 544 356 544 359 q 548 345 544 352 q 553 334 553 339 q 551 328 553 331 m 529 350 q 515 329 519 348 q 502 305 512 309 l 510 305 q 541 315 523 303 l 529 350 m 169 347 q 139 306 139 324 q 158 267 139 295 l 165 267 q 192 248 181 269 q 216 218 208 222 q 214 256 214 214 q 230 293 214 280 l 232 299 q 216 334 232 319 q 179 348 200 350 l 169 347 m 578 274 q 548 279 559 279 q 503 234 503 279 q 506 218 503 234 q 554 189 532 189 q 567 190 554 189 q 599 237 599 208 q 594 256 599 247 q 578 274 583 264 m 234 270 q 239 257 239 264 q 235 241 239 251 q 231 225 231 231 q 237 211 231 217 q 233 222 233 215 q 236 244 233 230 q 234 270 239 254 m 122 207 l 131 176 l 122 207 m 153 111 l 134 168 q 153 111 138 149 m 85 149 q 122 97 102 97 l 85 149 m 382 149 l 370 149 l 363 146 l 382 149 m 411 93 l 400 93 l 400 90 l 411 93 m 256 82 q 169 62 232 82 l 176 54 q 238 65 193 60 q 298 78 277 67 q 276 80 290 78 q 256 82 261 82 m 429 78 q 457 81 439 81 q 429 78 447 84 m 545 81 q 536 81 536 81 l 506 71 l 545 81 m 400 71 q 382 66 382 66 q 400 71 390 71 m 464 59 q 457 54 462 54 l 445 54 q 464 59 464 59 "},"W":{"x_min":36.4375,"x_max":1461.328125,"ha":1498,"o":"m 824 1139 q 866 1155 829 1143 q 897 1098 879 1143 q 936 1052 910 1060 q 957 952 943 1030 q 988 855 969 890 q 1040 1006 1012 913 q 1088 1158 1086 1153 q 1140 1130 1093 1156 q 1195 1113 1171 1113 q 1225 1118 1211 1113 q 1226 1114 1226 1117 q 1224 1102 1226 1110 q 1221 1091 1221 1094 q 1231 1079 1221 1079 l 1224 1055 l 1228 1046 q 1244 1092 1232 1052 l 1303 1104 q 1329 1097 1305 1097 q 1364 1092 1331 1097 q 1400 1095 1384 1091 q 1404 1079 1404 1088 q 1401 1058 1404 1072 q 1397 1037 1397 1045 l 1461 1030 q 1310 603 1386 816 q 1198 199 1198 272 q 1203 154 1198 183 q 1209 111 1209 125 q 1151 60 1209 66 q 1068 36 1081 53 q 1052 40 1062 40 q 1022 34 1042 40 q 993 27 1003 27 q 978 34 982 27 q 978 50 977 40 q 980 66 980 66 q 960 94 980 81 q 940 134 940 108 q 929 179 940 160 l 936 188 q 983 101 966 151 q 968 208 983 146 q 943 312 956 260 q 972 189 956 270 q 998 66 988 104 q 1015 63 1007 63 q 1057 73 1033 63 q 1049 130 1054 92 q 1064 78 1051 101 q 1115 91 1080 94 l 1115 105 l 1131 85 q 1147 85 1140 85 q 1159 94 1156 86 q 1150 133 1150 134 l 1152 140 q 1156 111 1153 127 q 1170 94 1159 95 q 1173 111 1173 101 q 1165 166 1173 127 q 1152 325 1157 205 q 1127 479 1147 425 l 1134 484 q 1146 460 1135 474 q 1172 552 1150 487 q 1194 648 1191 612 q 1171 549 1191 615 q 1152 447 1152 483 q 1159 398 1152 421 q 1248 710 1167 403 q 1200 535 1242 687 q 1161 358 1172 429 q 1179 312 1164 343 q 1403 991 1284 703 q 1377 1000 1377 1000 l 1370 998 q 1347 939 1368 998 q 1315 885 1334 901 q 1328 965 1323 906 q 1345 1037 1331 1020 q 1351 1036 1347 1037 q 1358 1034 1355 1034 q 1370 1040 1367 1034 l 1370 1058 q 1310 1065 1309 1065 q 1283 1060 1296 1065 q 1239 936 1270 1019 l 1228 943 l 1264 1046 q 1254 1053 1255 1053 l 1248 1052 q 1206 936 1235 1013 l 1200 964 q 1186 913 1200 962 q 1205 998 1189 939 q 1221 1085 1221 1053 q 1188 988 1211 1063 q 1166 897 1166 913 l 1161 897 q 1177 987 1163 930 q 1198 1076 1195 1050 q 1154 1085 1187 1082 q 1115 1104 1127 1089 q 1063 958 1098 1076 q 1021 803 1028 846 l 1034 791 l 1057 855 q 1047 824 1057 846 q 1037 790 1037 801 q 1060 757 1037 767 l 1076 788 q 1064 754 1064 777 q 1079 686 1064 732 q 1087 697 1080 690 q 1094 707 1094 704 q 1092 713 1094 710 q 1079 658 1086 696 q 1054 713 1070 661 q 1010 772 1037 765 l 1010 761 q 990 782 999 765 q 975 803 981 799 q 984 765 975 788 q 998 730 997 736 q 965 809 985 752 q 928 885 946 861 q 915 869 920 881 q 904 846 910 858 l 921 819 q 908 834 923 826 q 894 856 894 842 q 910 909 894 864 q 926 981 926 955 q 904 1049 926 1021 q 869 1033 894 1042 l 862 1040 q 833 1006 855 1026 q 800 971 807 982 l 784 975 q 802 1037 791 990 q 828 1095 810 1078 l 828 1107 l 816 1108 q 757 1072 778 1111 q 739 994 739 1040 q 741 966 739 979 q 706 901 722 949 l 706 906 q 713 920 706 907 q 719 940 719 933 q 653 974 653 951 q 653 978 653 975 q 653 982 653 981 q 648 998 653 993 l 637 985 q 683 1113 657 1026 q 676 1115 680 1115 l 664 1115 q 593 965 626 1063 q 540 807 548 829 q 535 790 535 799 q 554 741 535 772 q 593 846 589 800 q 575 777 592 823 q 558 703 558 730 q 480 822 537 745 q 470 817 474 817 q 461 828 466 817 q 453 842 457 839 l 453 858 q 373 978 383 964 q 285 1092 325 1046 q 262 1066 262 1082 q 301 992 262 1062 q 351 904 340 922 q 346 909 350 904 q 304 985 343 913 q 255 1052 276 1036 l 250 1007 l 234 1019 q 230 1014 230 1017 q 234 1007 230 1011 q 237 998 237 1003 q 262 991 243 990 q 266 959 266 977 l 266 927 q 246 954 256 933 q 231 979 236 975 l 172 1052 q 142 1014 142 1036 q 175 958 142 998 q 218 894 213 911 q 250 827 220 888 q 198 922 224 874 q 137 1010 166 975 q 106 971 104 987 q 294 636 260 786 q 103 971 252 783 l 82 955 q 207 722 127 879 q 386 94 340 412 q 409 86 393 88 q 430 82 424 85 l 430 99 q 411 230 431 152 q 379 358 382 344 q 415 221 396 290 q 441 82 437 139 q 456 73 453 75 l 464 73 q 477 108 477 86 q 475 132 477 117 q 473 152 473 147 q 440 209 440 183 q 447 228 440 220 q 453 248 454 237 q 467 254 459 254 q 487 250 474 254 q 508 246 501 246 q 519 257 516 246 l 554 66 q 605 85 571 72 l 597 163 q 609 82 602 136 q 640 169 640 140 q 634 202 640 186 q 628 227 628 206 q 644 160 631 204 q 653 188 653 170 q 656 218 654 212 l 695 351 q 676 285 693 330 q 660 217 660 241 q 671 172 660 192 q 722 379 697 275 q 791 558 762 534 q 809 605 791 560 q 835 644 819 633 q 894 495 852 593 q 862 564 878 518 q 835 636 845 616 q 816 573 816 579 q 828 542 816 560 q 829 539 829 539 q 816 564 820 539 q 804 519 794 557 l 800 522 q 790 484 790 503 q 810 414 790 460 q 830 343 830 369 q 866 205 852 293 q 894 66 884 98 q 917 89 917 73 q 913 101 917 94 q 908 108 908 104 l 910 118 q 924 73 911 102 q 932 75 927 75 q 952 61 943 75 q 968 36 960 47 l 968 27 q 949 28 959 28 q 855 0 916 28 q 820 204 854 2 q 764 400 800 327 q 723 232 749 353 q 679 66 699 124 q 673 64 676 64 q 658 67 669 64 q 643 70 648 70 q 634 54 634 70 q 587 32 610 44 q 547 4 560 19 q 526 28 542 6 q 503 43 515 43 q 484 36 496 43 q 463 30 473 30 q 420 37 448 30 q 376 44 392 44 q 350 77 353 44 q 340 129 344 122 q 36 952 273 581 l 36 963 q 157 1095 79 1004 q 197 1057 178 1089 q 231 1013 218 1021 q 233 1023 233 1018 q 227 1046 233 1031 q 221 1069 221 1060 q 223 1079 221 1069 l 293 1152 q 500 846 421 988 l 503 846 q 560 1004 521 911 q 625 1158 592 1081 q 751 1127 688 1127 q 824 1139 788 1127 m 658 1021 q 687 1038 664 1032 q 710 1058 709 1045 q 738 1021 710 1040 q 758 1072 742 1039 q 748 1105 755 1105 q 729 1093 734 1105 q 719 1068 723 1081 q 708 1107 719 1107 q 676 1072 693 1107 q 658 1021 660 1037 m 858 1040 l 839 1095 q 851 1069 839 1094 q 858 1040 858 1053 m 843 1052 l 839 1037 l 846 1037 l 848 1045 l 843 1052 m 1221 1026 l 1212 994 l 1221 1026 m 309 791 q 199 991 266 872 q 309 791 254 922 m 1064 881 l 1060 869 l 1064 881 m 321 874 q 363 780 340 841 q 345 829 360 784 q 321 874 335 858 m 924 807 l 932 788 l 924 807 m 882 803 l 901 761 l 882 803 m 613 764 l 604 730 l 613 764 m 877 722 l 867 745 l 877 713 l 877 722 m 600 722 l 581 664 l 600 722 m 855 678 l 843 694 l 858 655 l 855 678 m 600 584 q 627 675 610 615 l 627 670 q 617 626 629 654 q 600 584 609 606 m 713 658 l 699 620 l 713 658 m 1112 639 l 1104 605 l 1112 639 m 874 616 l 877 605 l 874 616 m 1115 550 q 1127 605 1115 570 l 1115 550 m 695 519 q 713 584 702 544 q 695 519 713 581 m 616 539 l 609 531 q 625 445 611 526 q 609 421 624 434 l 609 393 q 635 332 625 373 q 655 269 645 285 q 660 280 660 273 q 657 293 660 285 q 654 306 654 302 q 706 484 654 308 q 682 402 695 463 q 653 324 671 350 q 643 354 643 337 q 657 403 643 373 q 671 448 671 434 l 658 425 q 644 457 644 437 q 649 490 644 471 q 658 522 658 519 q 640 479 657 499 q 616 539 616 524 m 692 506 l 676 460 l 692 506 m 376 379 q 367 406 376 379 l 376 367 l 376 379 m 1104 373 l 1096 382 l 1104 363 l 1104 373 m 1112 343 l 1107 354 l 1112 335 l 1112 343 m 452 273 l 436 340 l 452 257 q 452 273 452 273 m 1115 312 l 1120 312 l 1120 328 l 1115 328 l 1115 312 m 1007 321 l 1010 301 q 1007 321 1011 308 m 507 312 l 512 293 q 507 312 513 301 m 1120 303 l 1124 282 q 1120 303 1125 293 m 625 246 l 609 282 l 625 234 l 625 246 m 593 172 q 581 262 593 156 l 593 172 m 987 201 q 1015 154 987 165 q 1046 137 1044 143 l 1049 137 l 1049 149 l 1046 149 q 1060 157 1057 157 q 1081 193 1081 169 q 1065 227 1081 212 q 1028 243 1049 243 q 1000 230 1013 243 q 987 201 987 218 m 1140 207 l 1143 188 l 1140 207 m 894 199 l 901 151 l 894 199 m 528 179 q 476 157 503 151 l 474 147 q 480 121 474 137 q 487 96 486 105 q 497 98 491 98 q 546 73 517 98 q 528 179 544 110 m 1146 149 l 1151 149 l 1152 163 l 1146 163 l 1146 149 m 1112 118 l 1104 151 q 1102 144 1102 149 q 1108 133 1102 140 q 1114 123 1114 127 l 1112 118 "},"v":{"x_min":24.921875,"x_max":1027.109375,"ha":1052,"o":"m 1027 1046 q 966 894 1009 991 q 901 741 917 786 q 860 605 889 690 q 817 470 827 509 q 762 282 817 467 q 717 91 729 169 q 693 74 713 82 q 668 58 674 65 q 607 42 642 58 q 548 22 564 24 q 536 33 548 33 q 519 30 526 35 q 445 0 468 -1 q 437 21 448 17 q 406 23 426 24 q 377 22 385 20 q 338 145 366 68 q 297 266 307 231 q 303 281 297 272 q 310 295 310 291 q 301 305 310 301 q 281 357 298 315 q 268 409 268 388 q 270 431 268 421 q 220 540 237 467 q 186 657 195 638 q 24 1024 108 868 q 244 1120 158 1066 q 265 1100 256 1118 q 280 1082 273 1082 q 296 1089 288 1082 q 313 1056 309 1066 q 324 1020 322 1037 q 310 1034 316 1021 q 300 1050 303 1047 q 282 1034 287 1056 l 285 1005 q 269 1046 286 1024 q 244 1081 247 1072 q 238 1066 238 1076 q 238 1050 238 1050 q 231 1069 238 1069 q 225 1065 227 1069 l 198 1050 q 201 1034 201 1049 q 193 1050 203 1040 l 151 1027 l 160 990 q 151 1020 157 1000 q 141 1021 147 1021 q 115 1012 131 1021 q 89 1000 98 1003 q 114 948 85 988 q 277 477 201 764 q 309 444 283 466 q 329 412 329 425 q 319 386 329 401 l 303 386 q 342 250 319 341 q 363 204 344 246 q 374 156 377 175 l 365 163 q 407 71 377 90 l 412 103 q 428 77 420 97 q 442 49 435 56 q 490 62 449 56 q 523 85 523 66 q 519 107 523 94 l 529 114 q 564 64 537 94 q 594 85 594 59 q 591 111 594 90 q 591 136 588 129 q 580 250 575 195 q 603 84 582 147 q 638 91 633 84 q 629 179 629 172 q 643 87 626 111 l 657 87 q 664 139 664 110 q 661 198 664 152 q 660 256 658 234 q 668 231 668 250 q 676 207 668 213 q 685 237 683 215 q 690 266 687 259 q 683 218 690 250 q 676 171 676 187 q 687 129 676 147 q 709 194 699 152 q 725 259 722 247 q 839 642 814 566 q 975 1016 907 858 q 963 1024 971 1023 q 948 1027 955 1026 q 904 943 930 1001 q 939 1027 919 971 q 885 1046 921 1033 q 866 1016 872 1034 l 878 1046 q 825 1065 853 1063 l 813 1043 q 820 1071 820 1050 q 780 1085 807 1076 q 725 962 748 1032 q 771 1085 742 1003 q 756 1092 767 1085 q 739 1100 745 1100 q 728 1089 732 1100 q 639 865 684 977 q 576 631 591 733 q 581 618 578 628 q 591 610 583 609 q 621 680 604 634 q 604 633 624 665 q 584 580 584 600 q 594 550 584 564 q 596 537 599 545 q 602 527 592 529 q 621 566 602 527 q 602 499 602 514 q 613 466 602 480 q 591 503 597 473 q 575 550 582 540 q 563 554 574 554 q 488 761 550 631 q 407 966 423 897 q 352 1104 388 1011 q 335 1108 346 1108 q 310 1105 328 1108 q 287 1101 293 1101 q 266 1136 263 1101 q 302 1140 276 1144 q 342 1143 329 1136 q 359 1147 348 1140 q 373 1155 370 1155 q 380 1143 377 1155 q 548 715 430 998 q 714 1158 574 775 q 1027 1046 905 1076 m 250 980 l 247 1020 l 250 994 l 250 980 m 798 1005 q 805 1015 800 1011 l 798 1005 m 855 985 l 863 1008 l 858 989 l 855 985 m 852 978 l 836 940 l 852 978 m 217 970 l 219 936 l 217 970 m 255 970 l 259 970 l 259 943 l 254 943 l 255 970 m 678 852 l 721 956 q 678 852 720 947 m 774 940 l 768 912 l 774 940 m 901 936 l 885 897 l 901 936 m 259 928 l 263 863 l 259 928 m 365 901 l 368 891 l 365 901 m 259 852 l 263 852 l 263 798 l 259 798 l 259 852 m 393 671 q 348 746 380 701 q 297 820 298 818 l 291 733 l 291 840 q 340 756 299 808 q 393 671 381 704 m 255 768 l 259 768 l 259 749 l 255 749 l 255 768 m 285 721 l 282 690 l 285 721 m 368 640 q 355 671 360 664 q 331 695 345 688 q 309 686 318 697 q 294 665 301 675 l 294 614 q 296 664 294 638 q 319 698 299 690 q 351 678 341 697 q 368 640 361 659 m 277 680 l 282 680 l 282 645 l 277 645 l 277 680 m 352 622 l 352 603 q 348 630 355 616 q 328 643 341 643 q 320 633 323 643 q 316 622 317 623 q 343 561 323 577 l 352 572 q 340 561 348 559 q 317 619 317 594 q 324 645 317 633 q 332 646 328 646 q 345 638 340 646 q 352 622 350 629 m 755 640 l 740 596 l 755 640 m 384 584 l 374 633 l 384 596 l 384 584 m 644 622 l 633 587 l 644 622 m 277 614 l 282 614 l 282 596 l 277 596 l 277 614 m 412 614 l 415 596 l 412 614 m 297 606 l 301 606 l 301 587 l 297 587 l 297 606 m 300 581 l 315 541 l 300 581 m 389 572 l 393 572 l 393 557 l 389 557 l 389 572 m 641 503 q 639 512 639 507 q 648 528 639 517 q 657 549 657 539 l 641 503 m 489 538 l 491 451 l 489 538 m 342 503 q 358 507 348 502 q 352 500 352 503 q 319 535 328 506 q 342 503 325 523 m 418 526 l 423 526 l 423 473 l 418 473 l 418 526 m 687 507 l 678 481 l 687 507 m 622 426 q 638 496 624 451 q 629 462 638 484 q 622 426 620 439 m 374 426 q 363 441 373 425 q 342 470 350 463 l 374 426 m 660 419 l 669 445 l 666 423 l 660 419 m 706 438 l 694 405 l 706 438 m 641 358 q 639 363 639 360 q 645 377 639 367 q 652 393 651 387 l 641 358 m 426 374 l 431 374 l 431 358 l 426 358 l 426 374 m 671 331 l 676 347 l 676 335 l 671 331 m 389 328 l 393 312 l 389 328 m 668 324 l 657 277 l 668 324 m 698 296 l 694 277 l 698 296 m 576 263 l 573 277 l 575 274 l 576 263 m 561 231 q 561 196 561 201 q 538 172 557 176 q 496 175 520 160 q 480 237 467 199 q 503 256 486 250 q 561 231 552 256 m 625 201 l 629 201 l 629 186 l 624 186 l 625 201 "},"s":{"x_min":20.078125,"x_max":842,"ha":862,"o":"m 782 1083 q 763 988 779 1057 q 749 892 749 928 q 726 829 733 871 q 710 762 716 775 q 590 822 612 811 q 460 851 518 851 q 373 830 413 851 l 361 810 q 571 671 424 671 q 659 630 581 671 q 842 329 842 535 q 821 208 842 271 q 759 105 797 131 q 616 26 729 56 q 446 0 523 0 q 20 127 234 0 q 60 297 24 195 l 79 294 q 90 352 80 297 q 121 391 98 393 q 169 364 144 378 q 212 341 205 341 q 222 348 218 341 q 234 351 227 355 l 234 348 q 436 279 354 279 q 499 290 462 279 q 545 322 545 303 q 532 360 545 323 q 448 429 513 413 q 336 449 391 439 q 135 630 212 491 q 53 895 72 746 q 102 947 59 911 q 104 980 104 950 q 129 1026 104 1025 q 143 1023 136 1023 q 189 1058 147 1023 q 295 1122 241 1099 q 468 1157 374 1157 q 782 1083 630 1157 m 471 1118 q 333 1096 393 1118 q 278 1066 317 1081 q 226 1039 239 1051 q 205 983 203 1019 l 198 1019 q 160 974 160 1019 q 162 947 160 966 q 164 921 164 928 q 159 895 164 905 q 156 983 157 908 l 156 1000 l 141 1000 q 129 938 129 977 q 136 875 129 906 q 129 860 129 869 q 133 846 129 856 q 138 831 138 837 l 133 820 q 103 902 126 849 q 169 653 110 759 q 357 483 236 532 q 416 529 395 494 q 396 559 415 545 q 369 588 373 578 l 373 591 q 441 562 387 572 l 390 594 q 377 616 390 604 q 357 634 358 633 l 360 637 q 463 581 415 591 q 474 642 468 601 q 354 763 396 676 q 319 931 319 837 q 330 955 319 946 l 332 936 l 335 937 q 347 931 344 937 q 337 916 337 927 q 340 903 337 916 q 357 911 364 911 q 360 908 360 911 l 343 892 q 347 871 343 876 q 441 890 390 890 q 588 856 496 890 q 675 822 680 822 q 688 836 685 822 q 693 859 691 858 q 617 897 665 884 q 535 914 577 905 q 557 918 539 918 q 629 902 590 918 q 698 875 664 888 q 700 888 697 879 q 703 900 703 897 q 663 923 691 910 q 623 950 635 937 l 633 952 q 676 937 649 952 q 716 921 703 923 l 720 957 q 643 983 695 969 q 664 988 654 988 q 694 980 675 988 q 723 972 713 972 l 723 978 q 731 1016 722 992 q 740 1053 740 1040 q 723 1066 740 1066 q 713 1073 716 1066 q 593 1102 654 1087 q 471 1118 523 1118 m 390 1083 q 362 1079 377 1082 q 340 1066 347 1076 q 362 1079 347 1076 q 390 1083 377 1082 m 332 1063 l 318 1053 l 332 1063 m 570 1048 l 554 1047 q 633 1038 587 1050 q 713 1020 674 1028 q 570 1048 614 1051 m 258 1041 l 261 1008 l 258 1041 m 376 1041 l 376 1040 q 367 1037 376 1037 l 360 1037 q 374 1041 367 1041 l 376 1041 m 402 1005 q 324 975 374 999 q 402 1005 367 1005 m 261 975 l 264 975 l 264 1001 l 261 1001 l 261 975 m 201 964 q 177 922 177 951 q 219 881 177 881 q 261 924 261 881 q 213 966 261 969 l 201 964 m 399 957 q 383 954 392 956 q 399 957 387 956 m 445 928 q 419 926 434 930 l 445 928 m 163 892 l 159 892 l 170 813 l 172 813 q 163 892 169 839 m 217 852 l 213 856 l 217 842 l 217 852 m 239 794 q 221 834 221 803 q 239 794 223 813 m 169 714 q 136 816 159 727 q 169 714 145 768 m 224 726 q 240 686 240 688 q 268 656 252 665 l 268 663 q 243 694 255 671 q 224 726 231 718 m 277 651 q 253 627 269 642 q 248 607 248 617 q 289 562 248 562 q 313 570 305 562 q 332 606 332 575 q 329 630 332 619 q 287 651 308 651 l 277 651 m 515 634 l 551 624 q 539 620 545 620 q 527 622 535 620 q 515 624 519 624 l 510 624 l 506 606 q 528 601 515 607 q 502 598 523 597 q 503 590 505 594 q 499 580 499 582 q 506 572 499 575 q 484 548 497 567 l 496 540 q 486 538 492 538 q 460 546 477 538 q 432 555 442 555 l 426 555 l 438 545 q 463 517 438 525 q 502 500 496 509 q 494 500 500 500 q 471 507 487 500 q 447 515 455 515 q 425 496 425 515 q 426 493 425 494 q 477 478 445 493 l 468 477 q 442 481 458 477 q 416 486 425 486 q 445 470 421 475 q 477 452 470 464 q 541 407 512 447 q 587 341 564 374 l 594 344 l 596 348 q 591 360 596 352 q 586 370 586 367 q 590 377 586 374 q 599 368 596 376 q 604 354 603 355 q 630 387 630 377 l 648 380 q 445 243 548 243 q 293 279 381 243 l 285 272 q 125 351 248 285 q 114 308 114 305 q 133 288 114 289 q 125 283 131 282 q 118 288 120 288 l 115 288 l 114 282 q 127 267 114 273 q 140 254 140 261 q 133 253 137 253 q 110 258 124 253 q 89 264 96 264 l 85 264 l 85 258 q 96 245 85 248 q 82 243 94 241 q 78 225 79 237 l 85 218 l 79 215 q 73 190 73 190 q 89 177 73 179 l 83 177 q 60 148 63 179 q 452 45 283 45 q 580 59 507 45 q 695 102 665 76 l 700 102 q 720 94 704 102 q 730 135 730 101 l 732 141 q 772 173 758 146 q 789 225 776 183 l 779 224 l 772 228 q 793 281 774 245 q 812 336 812 316 q 801 367 812 352 q 803 386 803 375 q 701 555 803 478 q 515 634 613 623 m 551 620 q 677 526 665 578 q 551 620 645 593 m 614 548 q 528 598 561 590 q 614 548 578 590 m 619 490 q 583 527 609 512 q 535 558 558 543 q 619 490 600 526 m 590 464 q 544 506 568 484 q 496 536 519 527 q 590 464 554 506 m 551 464 q 502 496 533 474 q 551 464 505 496 m 477 476 q 571 399 512 468 q 477 476 531 464 m 729 428 q 693 476 714 455 q 729 428 704 467 m 775 377 q 734 464 768 413 q 759 423 748 444 q 775 377 774 397 m 772 460 l 792 416 l 772 460 m 684 432 l 669 452 l 680 435 l 684 432 m 669 406 q 648 442 665 406 l 669 406 m 626 396 l 619 406 l 626 387 l 626 396 m 713 344 q 738 368 724 350 q 759 392 752 387 q 746 399 752 399 q 726 376 736 399 q 713 344 720 360 m 749 354 q 720 315 740 341 q 749 354 726 335 m 710 312 q 643 282 682 284 q 626 266 635 274 q 617 245 617 257 q 634 215 617 228 q 669 202 651 202 q 703 232 684 202 l 701 252 q 710 312 700 274 m 720 257 l 746 294 l 746 292 q 734 274 746 287 q 720 257 723 261 m 217 261 q 175 266 195 264 q 136 282 150 270 q 175 267 147 268 q 217 261 208 264 m 386 174 q 308 216 359 180 q 224 257 257 252 q 309 216 257 251 q 386 174 360 182 m 337 242 q 438 211 373 211 q 492 215 463 211 q 451 211 471 211 q 337 242 392 211 m 103 206 l 145 196 l 103 206 m 383 122 q 327 156 361 131 q 271 192 288 183 q 383 122 307 166 m 551 153 q 623 192 590 160 q 551 153 614 177 m 221 177 q 214 176 218 176 q 205 179 211 176 q 195 182 198 182 q 188 174 191 182 q 213 148 210 151 q 245 134 229 135 q 188 182 191 153 l 221 177 m 332 79 q 221 109 283 79 q 118 163 169 135 q 221 111 136 157 q 332 79 283 78 m 330 122 q 281 153 308 134 q 330 122 301 138 m 607 102 q 674 134 632 112 l 669 138 l 687 153 l 693 148 q 607 102 685 143 m 390 119 l 435 112 l 390 119 m 594 98 l 583 98 l 574 93 l 594 98 "},"B":{"x_min":22.1875,"x_max":908.46875,"ha":932,"o":"m 185 380 q 202 422 191 403 q 185 380 191 395 m 226 615 l 228 615 l 228 544 l 226 544 l 226 615 m 237 248 q 250 285 237 261 q 263 316 263 308 q 267 360 263 334 q 274 403 274 395 q 255 264 274 347 q 237 248 241 256 m 274 436 q 274 403 276 422 q 274 436 274 422 m 210 192 q 194 251 196 231 l 210 192 m 228 360 q 226 370 228 366 q 228 360 228 366 m 277 497 l 282 497 l 281 460 l 278 460 l 277 497 m 185 380 q 180 329 180 355 q 184 286 180 309 q 177 327 177 305 q 185 380 177 350 m 200 270 q 214 307 199 276 q 228 360 229 338 l 228 353 q 200 267 229 334 l 200 270 m 237 723 l 233 723 l 233 739 l 237 739 l 237 723 m 305 831 q 284 953 291 912 q 305 831 299 895 m 367 1073 q 373 1030 373 1030 l 373 1017 l 367 1073 m 836 393 q 843 366 840 374 q 833 384 833 383 q 836 393 833 389 m 843 366 q 843 351 847 358 q 843 366 844 357 m 376 1009 l 379 1009 l 379 749 l 376 749 l 376 1009 m 316 892 q 324 805 324 818 q 323 784 324 794 l 316 892 m 305 831 q 307 781 309 804 q 305 831 307 804 m 316 892 q 313 953 311 930 l 316 892 m 760 868 q 764 844 765 856 l 760 868 m 256 478 l 259 478 l 259 452 l 256 452 l 256 478 m 691 286 q 654 380 659 313 q 640 487 646 471 q 654 381 646 470 q 691 286 659 315 m 263 591 q 268 572 268 584 q 259 513 268 580 l 263 591 m 251 947 l 248 947 l 247 976 l 252 976 l 251 947 m 172 192 l 175 192 l 175 163 l 172 163 l 172 192 m 251 405 q 244 393 248 397 l 251 405 m 191 607 l 191 713 l 194 713 l 194 607 l 191 607 m 188 966 l 184 966 l 184 995 l 188 995 l 188 966 m 188 584 l 191 584 l 191 551 l 188 551 l 188 584 m 172 455 q 188 544 182 515 l 172 455 m 194 852 l 191 852 l 191 878 l 193 878 l 194 852 m 194 896 l 191 896 l 191 927 l 193 927 l 194 896 m 255 416 q 251 405 255 412 q 251 426 251 409 l 255 416 m 194 720 q 190 743 190 730 q 191 762 190 749 q 191 781 192 774 l 194 720 m 261 1003 q 274 1040 261 1024 q 308 1056 286 1056 q 354 1025 332 1056 q 355 1009 355 1009 q 312 953 355 969 q 263 990 279 960 l 261 1003 m 742 195 q 772 219 760 199 l 772 222 q 772 219 772 221 q 760 203 772 212 q 742 192 749 193 q 721 220 724 199 q 716 260 717 241 q 722 238 722 253 q 742 195 722 202 m 772 176 q 760 159 766 164 l 772 176 m 724 298 l 705 321 l 724 305 l 724 298 m 628 335 q 671 251 633 308 q 705 166 705 202 l 705 159 l 735 124 l 735 94 q 729 110 729 98 q 726 125 730 121 q 693 160 704 128 q 659 192 681 192 q 632 201 645 192 q 659 209 636 205 q 678 228 678 211 l 678 233 q 632 263 655 248 q 581 280 604 280 l 568 279 q 557 263 565 276 q 542 250 549 250 q 538 251 539 250 l 530 264 q 462 279 513 270 q 394 298 417 286 q 386 332 386 332 l 395 557 q 403 562 396 560 q 410 568 410 565 l 410 573 l 417 573 l 423 562 q 430 574 430 568 q 422 591 430 580 q 415 609 415 601 q 417 619 415 613 q 475 554 430 587 q 537 497 526 518 q 622 280 623 363 l 622 270 l 635 267 q 638 280 638 280 q 633 308 638 290 q 628 335 628 327 m 488 494 q 500 500 500 494 l 488 500 l 488 494 m 549 302 q 565 355 565 322 q 544 425 565 389 q 492 467 521 467 q 476 463 484 467 q 461 474 474 467 q 448 490 448 481 q 449 497 448 494 q 431 500 445 497 l 430 335 q 483 312 430 335 q 537 300 514 299 l 549 302 m 758 156 l 761 159 l 761 159 l 758 156 m 737 121 l 735 124 l 735 125 l 737 121 m 745 248 l 738 276 q 753 256 753 256 l 756 257 l 745 248 m 704 544 q 723 513 719 528 q 704 544 716 529 m 662 544 q 726 490 688 504 l 729 494 l 735 478 q 693 508 714 493 q 662 544 671 523 m 651 596 q 704 544 685 561 q 675 568 703 544 q 651 596 658 584 m 866 509 q 893 413 879 461 q 908 315 909 357 l 908 295 q 889 251 892 282 q 880 203 886 214 q 828 107 840 124 q 750 42 785 42 q 712 44 680 42 q 678 23 690 42 q 558 0 606 0 q 507 9 529 0 q 418 16 490 7 l 418 9 q 248 49 360 19 q 78 91 136 79 l 72 98 q 78 113 75 108 q 106 276 101 169 q 119 443 111 405 q 128 583 128 482 q 128 815 128 815 q 78 833 95 826 q 52 884 82 859 q 22 926 22 909 q 43 972 22 948 q 65 1007 65 995 q 59 1026 65 1016 q 88 1058 64 1036 q 109 1094 110 1075 l 109 1101 q 143 1126 120 1120 q 204 1127 159 1130 q 263 1136 243 1126 q 321 1147 283 1136 q 379 1158 359 1158 q 432 1135 409 1158 q 548 1149 500 1149 q 632 1132 603 1149 q 665 1102 643 1125 q 700 1086 679 1086 q 737 1036 716 1072 q 779 987 759 999 q 791 960 778 973 q 809 934 807 941 q 836 776 836 861 q 798 633 836 691 q 829 573 810 617 q 866 509 849 529 m 417 68 q 551 45 468 40 l 561 46 q 417 68 463 57 m 847 351 q 857 323 857 323 q 866 324 862 323 q 686 680 820 566 q 696 687 696 687 l 700 686 q 670 713 681 704 q 651 719 664 713 q 632 725 639 725 q 621 723 626 725 q 619 713 619 713 q 625 693 619 706 q 631 674 631 680 q 628 664 631 668 l 616 664 q 595 730 597 696 q 623 741 605 741 q 704 704 658 741 q 775 645 739 674 q 806 777 806 696 q 791 890 806 833 l 782 890 q 791 790 791 853 q 760 701 791 732 q 777 787 777 736 q 761 880 777 839 l 761 889 l 753 896 l 761 880 l 756 867 q 747 885 747 886 l 747 889 q 739 902 739 896 q 756 924 739 909 q 774 950 774 938 q 766 966 774 957 q 745 989 755 967 q 720 1010 734 1010 l 710 1009 q 710 1019 713 1013 q 707 1029 707 1026 l 707 1032 q 653 1073 691 1068 q 554 1114 617 1114 q 486 1108 529 1114 q 418 1100 438 1100 l 417 1092 q 449 1097 430 1097 q 477 1092 468 1097 q 447 1087 462 1090 q 419 1079 428 1084 l 470 1074 q 461 1071 467 1071 q 421 1054 419 1071 l 507 1051 q 418 1041 448 1044 q 431 1028 416 1028 q 455 1025 451 1028 q 429 1021 451 1022 q 414 1008 414 1021 l 412 1004 q 396 1060 398 1021 q 385 1119 391 1105 l 377 1121 q 367 1108 367 1121 q 364 1073 367 1076 q 360 1116 358 1102 q 340 1106 355 1110 q 320 1092 324 1102 q 302 1102 312 1102 q 282 1097 295 1102 q 261 1092 268 1092 l 258 1092 q 260 1060 255 1086 q 255 1030 263 1040 l 247 1033 l 244 980 q 237 1034 235 995 q 225 1089 238 1073 q 214 1091 214 1091 q 204 1082 204 1091 q 207 1063 204 1084 q 202 1044 208 1050 q 197 1070 199 1056 q 184 1086 195 1084 l 181 1022 q 172 1070 171 1060 l 172 1082 l 147 1082 l 135 1022 l 133 1024 l 132 1029 q 139 973 139 1000 q 139 938 139 964 q 138 905 138 916 q 113 1025 123 985 l 99 1014 q 107 996 107 1004 q 86 965 107 983 q 66 931 66 947 q 67 919 66 925 q 92 927 83 927 q 109 909 109 927 q 106 886 109 906 q 106 861 104 870 q 119 844 109 850 q 124 863 124 848 q 133 880 124 877 q 145 872 139 880 l 143 874 l 151 905 q 154 893 154 893 q 165 864 154 865 l 166 817 q 161 621 163 687 l 162 573 l 165 577 l 172 563 q 143 362 156 428 q 154 294 154 331 q 143 209 154 259 q 128 126 128 132 q 157 122 130 126 l 170 159 q 174 151 174 155 q 171 139 174 146 q 168 128 168 132 l 170 122 q 200 113 197 113 l 203 113 l 215 193 q 219 174 219 185 q 216 149 219 165 q 213 125 213 133 q 214 110 213 117 l 243 107 q 251 141 251 129 q 247 170 248 146 q 240 206 246 194 q 235 227 235 219 q 264 250 235 250 q 320 265 314 250 l 327 265 q 372 209 372 268 q 356 168 372 178 q 312 155 350 164 q 281 185 292 159 q 270 210 270 210 l 266 209 q 261 146 261 181 l 263 84 q 280 89 270 89 q 308 84 290 89 q 335 80 326 80 l 335 84 q 341 117 338 114 l 345 75 q 360 72 358 78 l 367 107 l 373 98 q 384 157 384 115 q 392 214 383 198 q 399 204 400 211 q 401 264 399 254 q 409 224 406 246 q 432 204 413 202 q 426 201 429 201 q 419 204 425 201 q 411 204 413 205 l 411 186 q 417 173 409 176 q 409 154 406 167 l 408 152 q 415 144 408 147 q 422 140 422 140 l 414 136 l 414 121 q 419 114 412 118 q 428 110 427 110 l 418 107 l 418 94 q 442 86 422 95 l 439 84 l 426 82 q 418 86 420 82 l 417 80 q 591 48 537 48 q 704 80 659 48 q 643 113 664 103 l 651 122 q 691 117 656 117 q 700 137 696 137 q 708 130 704 137 q 716 122 711 123 q 705 111 711 119 q 691 103 698 103 q 713 95 697 98 q 735 84 729 91 l 743 83 q 778 98 762 83 q 810 129 794 114 q 822 237 823 168 q 825 347 822 321 q 835 243 835 285 q 832 192 835 217 q 852 255 852 216 q 849 294 852 268 q 846 333 846 320 q 847 351 846 343 m 745 328 q 717 396 717 366 q 719 412 717 403 l 726 413 q 747 396 737 413 q 756 367 756 379 q 750 347 756 360 q 745 328 745 335 m 742 335 q 745 347 742 340 q 749 360 749 355 q 745 370 748 370 l 742 370 l 742 335 m 727 403 q 727 377 727 405 q 735 358 727 363 l 735 364 q 731 375 735 368 q 728 386 728 381 q 729 393 728 389 l 732 393 q 748 380 743 393 q 741 396 745 387 q 729 403 736 405 l 727 403 m 697 415 q 726 441 717 432 q 759 405 744 438 q 771 354 771 377 q 756 309 771 325 q 744 308 744 308 q 707 340 718 308 q 701 371 708 351 q 694 400 694 390 q 697 415 694 408 m 768 357 q 755 407 768 379 q 722 434 742 435 l 719 434 q 705 399 705 422 q 747 313 705 313 q 768 357 768 322 m 625 962 q 589 979 623 963 q 571 1017 571 988 q 584 1050 571 1036 q 616 1065 597 1065 q 664 1018 664 1065 q 651 987 664 1001 q 625 962 638 973 m 726 856 q 726 868 727 863 q 726 856 729 862 m 719 886 q 723 892 720 886 q 730 898 726 898 l 735 896 q 746 840 746 841 l 745 830 q 737 849 737 831 q 729 870 737 866 l 726 867 q 710 889 717 883 l 719 886 m 705 859 q 701 876 703 867 q 688 886 699 885 l 704 896 l 705 859 m 603 551 l 635 494 q 603 551 627 509 m 428 947 q 434 947 432 947 l 428 947 m 515 613 q 551 654 515 654 q 599 619 581 654 l 599 607 q 559 563 601 563 q 515 613 515 563 m 533 544 q 590 473 574 517 q 533 544 575 506 m 603 431 q 606 412 607 418 l 603 431 m 590 473 q 599 436 597 454 q 590 473 596 454 m 613 823 q 613 816 614 818 l 613 823 m 414 657 q 408 693 412 661 q 399 727 406 714 q 402 790 403 745 q 410 852 400 830 q 408 866 408 859 q 415 904 408 879 q 421 943 422 930 l 421 947 l 427 947 l 421 938 l 421 926 l 489 919 q 452 921 486 919 q 421 908 426 921 l 530 897 l 515 895 q 482 898 503 895 q 453 901 462 901 q 422 894 435 901 q 508 879 448 892 q 594 868 562 868 q 627 870 611 868 q 640 886 636 880 q 632 898 632 893 l 632 901 l 636 902 q 665 889 658 903 q 651 875 651 882 l 651 870 q 670 833 667 847 q 651 868 659 862 q 625 844 625 859 l 628 844 l 628 833 l 625 833 q 616 844 625 834 q 610 833 610 842 l 606 837 q 595 816 593 833 l 594 798 q 584 833 594 817 l 575 833 q 566 759 569 768 q 530 699 557 717 l 561 675 l 545 675 q 458 699 529 699 q 418 683 431 699 l 414 657 m 447 856 q 439 810 439 836 q 439 727 439 727 l 449 727 q 499 723 493 726 q 530 771 522 737 q 537 830 531 774 q 496 852 530 849 q 447 856 472 853 m 596 797 l 594 784 q 596 797 596 792 m 476 612 q 486 603 481 607 l 476 612 m 432 641 q 475 612 446 642 q 423 641 442 632 l 432 641 m 447 947 q 433 947 444 945 l 447 947 m 610 833 q 613 823 610 830 q 610 833 612 829 m 596 797 l 594 798 l 596 797 m 613 814 q 613 816 613 814 l 613 814 "},"":{"x_min":-1.453125,"x_max":863.78125,"ha":1158,"o":"m 863 15 q 857 2 863 8 q 846 -2 852 -2 l 8 -2 q 2 2 5 -1 q -1 15 -1 7 l -1 963 l 8 973 l 567 973 l 574 973 l 584 973 l 853 694 q 858 693 855 694 q 863 684 863 690 l 863 15 m 584 927 l 584 694 l 817 694 l 584 927 m 212 721 l 222 721 l 231 721 q 239 731 238 729 q 240 740 240 733 q 235 742 237 740 q 231 749 231 743 l 231 759 l 231 778 l 222 778 l 212 768 l 212 759 q 204 765 205 759 q 204 778 204 771 l 185 778 l 185 768 l 193 768 l 193 759 l 185 759 l 185 749 l 176 749 l 185 768 l 185 778 l 91 778 l 91 759 q 95 758 92 759 q 99 749 99 753 l 109 749 l 109 740 q 104 742 107 740 q 99 749 99 743 l 99 740 l 91 749 l 91 694 l 222 694 l 222 704 q 221 707 222 706 q 212 711 217 711 l 204 721 l 212 721 m 176 704 l 176 711 l 176 721 q 180 720 177 721 q 185 711 185 716 l 176 704 m 204 740 q 195 745 196 740 q 193 749 193 746 l 193 759 l 204 749 l 212 749 q 208 742 212 746 q 204 740 205 740 m 231 749 l 231 740 l 222 740 l 222 749 l 231 749 m 445 704 q 449 710 445 707 q 455 711 452 711 l 464 704 l 464 694 l 473 704 q 471 707 473 706 q 464 711 467 711 l 464 721 l 473 721 l 473 740 q 474 732 473 733 q 483 732 476 732 l 483 721 l 483 778 l 464 778 l 464 768 l 464 759 l 455 759 l 455 749 l 464 749 l 464 732 q 456 730 457 732 q 455 721 455 729 l 445 721 l 434 721 l 428 721 l 428 732 l 445 732 q 450 740 445 739 q 455 749 455 742 l 445 749 q 435 748 436 749 q 434 740 434 748 l 428 740 l 416 740 l 416 749 l 428 749 l 434 759 q 439 758 436 759 q 445 749 445 755 l 445 759 l 445 768 q 454 767 452 768 q 455 759 455 766 l 455 778 l 305 778 l 305 768 l 305 759 l 295 759 q 294 769 295 766 q 287 778 293 771 l 267 778 l 267 768 l 267 759 l 287 759 l 295 749 l 295 732 l 295 721 l 287 721 q 282 730 287 727 q 277 732 279 732 l 277 740 l 277 749 q 282 742 277 743 q 287 740 285 740 l 287 749 l 277 749 l 260 749 l 250 749 l 250 711 q 258 716 256 711 q 260 721 260 719 l 260 732 q 266 726 263 732 q 267 721 267 723 q 269 713 267 714 q 277 711 270 711 q 272 710 274 711 q 267 704 267 707 l 260 711 q 254 710 257 711 q 250 704 250 707 l 250 694 q 241 698 243 694 q 240 704 240 701 l 240 711 l 240 721 l 231 721 l 231 711 l 231 694 l 240 694 l 240 461 q 243 460 247 461 q 240 452 240 460 l 240 442 l 250 442 l 260 442 l 277 442 l 287 442 l 277 452 l 287 452 l 295 452 l 305 442 l 315 442 l 324 452 l 315 452 q 319 460 315 457 q 324 461 321 461 q 333 460 331 461 q 342 452 335 460 l 342 694 l 455 694 l 455 704 l 445 704 m 231 768 q 245 758 238 761 q 260 749 253 756 l 260 778 l 250 778 q 240 769 243 771 q 231 768 238 768 m 240 538 l 250 538 l 260 544 l 267 544 l 267 538 q 256 522 258 526 q 250 516 253 517 l 240 538 m 250 507 l 260 507 l 260 516 l 260 507 l 250 507 m 277 470 q 265 471 270 470 q 260 480 260 473 q 263 481 261 480 q 267 489 267 486 q 276 493 273 489 q 277 499 277 496 q 272 506 277 503 q 267 507 269 507 l 267 516 q 277 512 274 516 q 287 507 280 507 l 287 489 l 287 480 l 277 480 l 277 470 m 324 470 q 316 474 318 470 q 315 480 315 477 l 305 470 l 295 461 l 295 470 l 295 480 q 302 486 298 483 q 309 493 306 490 q 315 499 313 496 q 323 484 322 491 q 324 470 324 477 m 315 555 q 306 557 308 555 q 305 565 305 558 q 306 568 305 567 q 309 571 308 570 q 315 572 311 572 l 315 555 m 315 526 q 306 528 308 526 q 305 538 305 529 q 306 543 305 542 q 315 544 308 544 l 315 526 m 332 516 q 324 523 325 516 q 324 538 324 529 q 332 526 331 529 q 332 516 332 523 m 332 442 l 342 442 l 332 442 m 370 694 q 366 701 367 697 q 363 707 364 704 q 361 711 361 710 l 370 711 l 379 711 q 377 708 379 708 q 374 706 376 707 q 370 704 371 704 l 370 694 m 502 544 l 510 544 l 519 544 l 529 544 l 529 565 l 529 572 l 519 583 q 520 592 519 590 q 529 601 522 594 l 510 601 q 509 597 510 599 q 502 593 506 593 l 502 583 q 493 588 494 583 q 491 601 491 594 l 473 601 l 473 593 l 483 593 l 483 583 l 473 583 l 473 572 l 464 572 l 473 593 l 473 601 l 379 601 l 379 583 l 389 583 l 389 572 l 406 572 q 405 569 406 570 q 402 567 403 568 q 399 565 400 565 q 393 567 396 565 q 389 572 389 568 l 389 565 l 379 572 l 379 516 l 510 516 l 519 526 q 510 536 512 535 q 502 538 509 538 l 491 544 l 502 544 m 464 526 l 464 538 l 464 544 l 473 544 l 473 538 l 464 526 m 491 565 q 484 568 487 565 q 483 572 483 570 l 483 583 q 491 581 490 583 q 491 572 491 580 l 502 572 q 500 566 502 567 q 491 565 499 565 m 529 572 l 519 572 q 520 566 519 567 q 529 565 522 565 l 519 565 q 511 566 512 565 q 510 572 510 567 l 529 572 m 743 538 l 752 526 q 756 525 753 526 q 762 516 762 522 l 762 526 l 762 538 q 753 538 755 538 q 752 544 752 539 l 762 544 l 762 555 q 766 557 763 555 q 769 559 768 558 q 771 565 771 561 l 771 555 l 771 544 l 771 601 l 762 601 q 761 597 762 599 q 752 593 758 593 l 752 583 l 743 583 q 745 577 743 580 q 752 572 746 572 l 762 572 q 756 567 758 570 q 753 561 755 564 q 752 555 752 558 q 748 554 749 555 q 743 544 743 551 l 735 544 l 724 544 l 713 544 l 713 555 l 735 555 q 742 565 742 562 q 743 572 743 567 l 735 572 q 726 572 727 572 q 724 565 724 571 l 713 565 l 707 565 l 707 572 l 713 572 l 724 583 l 735 583 l 735 572 l 735 583 q 735 591 735 590 q 743 593 736 593 l 743 583 l 743 601 l 594 601 l 594 593 l 594 583 l 584 583 l 584 601 l 557 601 l 557 593 l 557 583 l 584 583 l 584 572 l 584 555 l 584 544 q 571 554 577 551 q 567 555 568 555 l 567 565 q 574 572 574 565 l 574 565 l 584 572 l 567 572 l 546 572 l 538 572 l 538 538 l 546 538 l 546 544 q 548 549 546 546 q 557 555 551 555 l 557 544 q 558 538 557 539 q 567 538 559 538 l 557 526 q 551 536 557 533 q 546 538 548 538 l 538 526 l 538 516 l 529 526 q 536 532 533 526 q 538 538 538 535 l 529 544 l 529 538 l 529 516 l 529 286 l 538 286 l 529 276 l 529 264 l 538 264 l 546 276 l 546 264 l 574 264 q 575 270 574 267 q 584 276 578 276 l 574 276 l 584 276 l 594 276 l 594 264 l 603 264 l 603 276 l 612 276 l 603 276 q 612 285 610 283 q 622 286 614 286 l 630 276 l 630 516 l 743 516 l 743 526 l 735 526 l 743 538 m 529 593 q 541 583 536 585 q 546 572 546 580 l 546 601 l 538 601 q 533 594 538 599 q 529 593 531 593 m 529 360 l 538 360 l 546 368 l 557 368 l 557 360 q 547 347 549 353 q 538 341 545 341 l 529 360 m 538 331 l 546 331 l 546 341 q 555 340 554 341 q 557 331 557 338 l 546 331 l 538 331 m 567 295 q 558 299 559 295 q 557 303 557 300 l 557 313 q 565 318 562 313 q 567 322 567 319 q 565 330 567 329 q 557 331 564 331 q 558 340 557 338 q 567 341 559 341 l 574 331 q 578 319 574 324 l 584 313 q 575 312 577 313 q 574 303 574 311 l 567 295 m 612 295 q 607 302 612 298 q 603 303 604 303 l 594 295 l 584 286 l 584 295 q 585 299 584 296 q 588 302 587 300 q 594 303 590 303 q 599 310 597 306 q 601 316 600 313 q 603 322 603 319 q 611 308 610 315 q 612 295 612 302 m 603 377 l 603 387 l 603 397 l 603 377 m 603 360 l 603 368 l 612 368 q 611 359 612 361 q 603 350 610 357 l 603 360 m 622 341 q 613 347 614 341 q 612 360 612 353 l 622 360 l 622 341 m 622 264 l 630 264 l 630 276 l 622 276 l 622 264 m 658 516 q 656 523 658 519 q 653 531 655 528 q 649 538 651 535 l 658 538 l 668 538 q 667 528 668 529 q 658 526 665 526 l 658 516 m 99 228 l 99 219 l 91 219 l 91 228 l 99 228 l 99 219 l 99 228 l 82 228 l 82 201 l 91 201 l 82 201 l 82 118 l 99 118 l 99 125 l 99 118 l 120 118 l 120 201 l 176 201 l 176 209 l 176 219 q 167 214 170 219 q 166 209 166 211 l 166 219 l 176 219 l 166 219 l 166 228 l 176 228 l 176 219 l 185 219 l 176 209 l 185 209 l 185 219 q 177 224 179 219 q 176 228 176 225 l 185 228 l 185 219 l 193 219 l 193 209 l 193 228 l 166 228 l 156 228 l 120 228 l 109 228 l 99 228 m 99 190 l 91 190 l 99 190 m 109 201 q 108 205 109 202 q 99 209 104 209 l 109 209 l 109 201 m 127 154 l 185 154 l 185 163 l 185 154 l 193 154 l 193 182 l 176 182 l 166 182 l 127 182 l 127 154 m 166 219 l 156 219 l 166 219 l 156 219 l 166 219 q 160 211 166 214 q 156 209 157 209 l 166 209 l 166 219 m 166 201 l 166 209 l 166 201 m 176 209 l 176 201 l 176 209 m 185 209 l 185 201 l 193 201 l 193 209 l 185 209 m 185 173 l 193 163 l 185 163 l 185 173 m 193 201 l 193 209 l 193 201 m 267 118 l 267 125 l 267 118 l 277 118 l 277 125 l 267 125 l 277 125 l 287 125 l 287 118 l 305 118 q 313 121 311 118 q 315 125 315 122 l 324 125 l 332 125 l 342 136 l 342 163 l 342 154 q 337 156 340 154 q 332 163 332 157 l 342 163 l 342 173 l 342 163 l 332 163 q 332 172 332 170 q 324 173 331 173 l 332 173 l 332 163 l 332 173 l 342 173 l 332 173 l 324 173 q 331 177 328 173 q 332 182 332 179 l 332 190 l 332 201 l 342 201 l 342 190 l 342 209 l 332 209 q 337 211 334 209 q 342 219 342 214 l 332 219 l 342 219 l 332 219 q 328 227 332 222 q 324 228 325 228 l 305 228 l 267 228 l 267 219 l 267 228 l 260 228 l 250 228 l 240 228 l 250 228 l 240 228 l 240 219 l 240 228 l 231 228 q 223 227 224 228 q 222 219 222 227 l 212 219 l 212 209 l 204 209 l 204 201 l 204 190 l 212 190 l 204 190 l 204 146 q 211 140 208 146 q 212 136 212 137 q 217 127 212 128 q 222 125 219 125 l 231 125 q 237 121 234 122 q 250 118 243 118 l 260 118 l 260 125 l 267 125 l 267 118 m 212 201 l 222 201 l 222 190 l 212 190 l 212 201 m 212 209 l 222 201 l 212 201 l 212 209 m 212 182 l 212 190 l 222 182 l 212 182 m 240 163 l 231 163 l 240 163 l 240 173 l 231 163 l 231 173 l 240 173 l 240 201 l 315 201 l 315 146 l 287 146 l 277 146 l 287 146 l 277 146 l 267 146 q 263 144 264 146 q 260 136 260 141 l 260 146 l 240 146 l 240 154 l 231 154 l 231 163 l 240 163 m 250 125 l 250 136 l 250 125 m 250 146 l 250 136 l 250 146 m 260 201 l 260 209 l 260 201 m 260 136 l 260 125 l 260 136 m 260 146 l 267 146 l 260 146 m 324 182 l 324 173 l 315 182 l 324 182 m 324 163 l 315 163 l 324 163 m 324 201 l 324 190 l 324 201 l 315 201 l 324 201 m 324 146 q 316 150 318 146 q 315 154 315 151 l 324 154 l 324 146 m 315 125 l 324 125 l 315 125 m 332 209 l 332 201 l 324 201 l 324 209 l 332 209 m 332 209 l 324 209 l 332 209 m 332 190 l 324 190 l 332 190 m 332 154 l 332 146 q 328 153 332 149 q 324 154 325 154 l 332 154 m 332 219 l 332 209 l 332 219 m 332 182 l 332 173 l 342 173 l 342 182 l 332 182 l 342 182 l 342 173 l 342 190 l 332 190 l 332 182 m 351 136 l 351 118 l 361 118 l 361 125 l 361 136 l 361 125 l 370 125 l 370 118 l 379 118 l 379 125 l 370 125 l 379 125 l 379 146 l 379 136 l 379 125 q 374 134 379 130 q 370 136 371 136 l 379 136 l 370 136 l 370 146 l 379 146 l 370 146 l 370 154 l 379 154 l 379 146 l 379 154 l 379 163 l 379 154 l 379 163 l 379 201 l 399 190 l 399 182 l 406 182 l 406 173 l 445 118 l 502 118 l 502 125 l 502 228 l 473 228 l 473 154 l 455 173 l 445 173 l 445 182 l 434 182 l 428 182 l 434 190 l 428 190 l 428 182 l 434 182 l 434 173 q 433 181 434 180 q 428 182 432 182 l 416 182 l 416 190 l 406 190 l 406 201 l 416 201 l 416 190 q 426 192 425 190 q 428 201 428 193 l 428 190 l 428 201 l 428 209 l 428 201 l 416 201 l 416 209 l 416 201 l 416 209 l 428 209 l 406 228 l 399 228 l 399 219 l 389 228 l 351 228 l 351 219 l 351 146 l 351 136 m 361 163 l 351 163 l 351 154 q 355 157 353 156 q 361 154 361 160 l 351 154 l 351 146 l 361 154 l 361 146 l 370 146 l 370 154 l 361 154 l 361 163 l 361 173 q 355 172 358 173 q 351 163 351 169 l 361 163 m 361 201 l 361 209 l 361 201 m 361 118 l 361 125 l 361 118 m 370 118 l 370 125 l 361 125 l 361 118 l 370 118 m 379 228 q 371 227 371 228 q 370 219 370 227 l 379 219 l 379 228 l 379 228 m 379 125 l 379 118 l 379 125 m 389 219 l 399 219 l 389 219 m 399 219 l 399 209 l 399 219 m 399 219 l 406 219 l 399 219 m 399 201 l 406 201 l 399 201 m 406 219 l 406 209 l 406 219 m 416 219 l 416 209 l 406 209 l 416 209 l 416 219 m 434 182 l 434 190 l 434 201 l 428 201 l 434 201 l 434 190 l 434 182 m 434 173 l 445 173 l 434 173 m 455 125 l 455 118 l 455 125 m 491 228 l 483 228 l 491 228 l 491 228 m 502 190 l 502 182 l 502 173 l 491 173 l 491 182 l 491 173 l 491 182 l 491 190 l 502 190 m 546 209 l 557 209 l 557 219 l 557 228 l 546 228 l 546 219 l 546 228 l 538 228 l 546 228 l 546 219 l 538 219 l 538 228 l 510 228 l 510 219 l 519 219 l 510 219 l 510 201 l 557 201 q 555 209 557 208 q 546 209 554 209 m 538 201 l 538 209 l 538 201 m 622 201 q 622 209 622 208 q 630 209 623 209 l 630 201 l 630 209 l 630 219 l 630 209 l 640 209 l 640 228 l 630 228 l 630 219 l 630 209 l 622 209 q 626 218 622 215 q 630 219 627 219 l 622 219 l 612 219 l 622 219 l 622 228 q 626 227 623 228 q 630 219 630 222 l 630 228 l 584 228 l 584 219 l 574 219 l 574 228 l 567 228 l 567 219 l 574 219 l 574 209 l 567 209 q 570 211 568 209 q 572 214 571 212 q 574 219 574 215 l 567 219 l 567 209 l 567 201 l 567 209 l 567 201 l 557 201 q 558 209 557 208 q 567 209 559 209 l 557 209 l 557 201 l 557 125 l 567 125 l 557 125 l 557 118 l 567 118 l 567 125 l 567 118 l 574 118 l 574 125 q 583 125 581 125 q 584 118 584 124 l 584 125 l 594 125 l 594 201 l 630 201 l 622 201 m 557 228 q 561 221 557 222 q 567 219 564 219 l 567 228 l 557 228 m 557 154 l 567 154 l 567 146 l 557 154 m 567 136 q 570 137 568 136 q 572 140 571 138 q 574 146 574 141 l 567 146 l 574 146 l 574 136 l 567 136 m 574 125 l 574 136 l 584 136 l 574 125 m 584 154 l 584 163 l 584 154 m 584 154 l 584 146 l 584 154 m 584 154 l 584 146 l 584 154 m 584 118 l 594 118 l 594 125 l 584 125 l 584 118 m 603 209 l 603 201 l 603 209 m 771 173 q 766 180 771 176 q 762 182 763 182 l 752 190 l 668 190 l 668 201 l 695 201 l 695 209 l 695 219 l 695 209 l 695 219 l 707 219 l 707 209 l 713 209 l 707 209 l 713 209 l 713 201 l 735 201 l 735 209 l 743 209 l 743 201 l 752 201 l 752 209 l 752 201 l 771 201 l 771 219 l 762 219 l 771 219 l 771 228 l 724 228 l 713 228 l 713 219 l 707 219 l 707 228 l 695 228 l 668 228 q 659 227 661 228 q 649 219 656 227 l 649 209 q 645 204 646 206 q 640 190 640 199 l 640 182 q 648 177 643 182 q 649 173 649 175 l 658 173 l 658 182 l 668 182 l 668 173 l 668 182 l 677 182 l 668 173 l 677 173 q 676 164 677 166 q 668 163 675 163 l 668 173 l 658 173 l 658 163 l 668 163 l 685 163 l 743 163 l 743 146 l 685 146 l 677 146 l 685 146 q 681 144 682 146 q 677 136 677 141 l 677 146 l 668 146 q 669 137 668 138 q 677 136 669 136 l 668 136 l 668 125 l 677 136 l 677 125 l 668 125 l 668 118 l 707 118 l 707 125 l 707 118 l 743 118 l 743 125 l 743 118 q 757 125 750 124 q 771 125 763 125 l 771 136 l 771 154 l 771 173 m 649 190 l 640 190 q 645 199 640 196 q 649 201 646 201 l 649 190 m 649 136 l 649 125 q 650 134 649 133 q 658 136 651 136 l 658 125 l 649 125 l 658 125 l 668 136 l 668 146 l 658 146 l 649 146 l 649 125 l 649 136 m 649 118 l 658 118 q 653 124 658 120 q 649 125 651 125 l 649 118 m 658 209 l 649 209 q 653 211 651 209 q 656 214 655 212 q 658 219 658 215 l 658 209 m 658 136 l 658 146 l 658 136 l 658 136 m 658 136 l 668 136 l 658 136 l 658 136 m 658 125 l 668 125 l 658 125 l 658 118 l 668 118 l 668 125 l 658 125 m 668 190 l 668 201 l 658 201 l 658 190 l 668 190 m 677 182 l 685 173 l 677 173 l 677 182 m 685 136 l 685 125 l 685 136 l 685 146 l 685 136 l 695 136 l 685 136 m 685 201 l 685 209 l 685 201 m 685 182 l 695 182 l 685 182 m 707 125 q 697 127 698 125 q 695 136 695 128 l 707 136 l 707 125 m 713 219 q 723 218 721 219 q 724 209 724 217 l 724 219 l 735 219 l 735 209 l 735 219 l 743 219 l 743 209 l 735 209 l 724 209 l 724 201 q 714 210 716 208 q 713 219 713 212 m 713 173 l 713 182 l 713 173 m 724 173 l 713 173 l 724 173 m 735 228 l 735 219 l 735 228 m 735 173 l 735 182 l 743 182 l 735 182 l 735 173 m 743 182 l 752 182 l 743 182 m 743 163 l 752 163 l 743 163 m 752 136 l 752 125 l 752 136 m 752 209 l 752 219 l 752 209 m 752 182 l 762 182 l 752 182 m 752 219 l 762 219 l 752 219 m 771 209 l 762 209 l 762 201 q 763 209 762 208 q 771 209 763 209 m 762 182 l 762 173 l 762 182 "},"?":{"x_min":21.6875,"x_max":888,"ha":910,"o":"m 807 1051 q 850 996 834 1036 q 880 931 869 944 q 888 854 888 892 q 768 579 888 705 q 685 523 760 572 q 626 449 633 489 q 597 387 605 426 q 584 314 590 349 l 538 316 q 381 298 457 317 q 382 322 382 310 q 379 360 382 335 q 376 398 376 385 q 391 453 376 430 l 400 446 l 400 337 q 552 358 450 348 q 596 477 573 417 q 684 560 619 537 q 751 609 711 570 q 806 676 791 647 l 811 676 q 861 873 860 800 q 850 896 860 883 l 838 873 q 838 923 838 871 q 831 981 838 963 l 820 919 q 823 947 820 928 q 827 977 827 967 q 811 1012 827 1002 q 798 994 801 1012 q 792 968 794 970 l 795 968 l 795 938 l 792 938 q 794 952 794 945 q 786 986 794 964 q 781 1023 779 1009 q 755 1067 772 1038 q 749 1028 749 1060 l 750 1042 q 665 1099 752 1099 q 607 1086 632 1099 q 457 1118 541 1118 q 221 1051 326 1118 l 237 1051 q 135 973 179 1035 q 65 861 99 918 l 76 850 l 111 880 q 83 845 98 871 q 95 838 88 838 q 122 850 102 838 q 190 900 146 880 q 91 796 172 879 q 21 861 41 814 q 46 903 36 877 q 65 947 65 945 q 238 1107 117 1051 q 473 1157 345 1157 q 596 1146 513 1157 q 716 1125 680 1135 q 807 1051 791 1102 m 304 1074 l 311 1077 l 330 1077 l 304 1074 m 584 1067 l 553 1070 l 580 1070 l 584 1067 m 248 1054 l 273 1067 l 279 1067 l 248 1054 m 716 1009 q 665 950 716 950 q 635 965 648 950 q 622 999 622 980 q 635 1028 622 1018 q 665 1042 639 1031 q 716 1009 700 1042 m 572 1031 q 566 1031 570 1031 q 551 1033 560 1031 q 535 1035 541 1035 q 527 1035 531 1035 l 572 1031 m 749 1015 l 755 1015 l 755 968 l 749 968 l 749 1015 m 561 996 l 547 997 q 514 994 534 997 q 481 990 489 990 l 488 989 q 515 994 498 989 q 541 1000 533 1000 q 561 996 551 1000 m 508 947 l 501 949 q 486 946 495 949 q 472 943 478 943 l 465 944 q 486 947 473 948 q 508 947 507 947 m 515 755 q 430 682 472 719 q 358 600 379 639 q 372 588 368 585 q 457 665 397 622 q 385 583 408 645 q 350 473 368 528 l 358 465 q 392 510 372 478 q 424 554 413 541 q 373 483 398 519 q 346 403 346 441 q 350 373 346 387 l 372 358 q 346 329 355 329 q 331 337 340 329 q 320 345 321 344 q 310 406 310 374 q 325 502 310 438 q 339 600 340 565 q 433 711 353 636 q 501 840 498 775 q 460 855 488 855 q 380 840 447 855 q 253 711 278 772 q 189 743 239 723 q 130 781 148 761 q 146 816 139 798 q 172 843 156 839 q 149 801 163 829 l 169 788 l 172 794 q 194 774 176 776 l 230 813 q 203 769 218 800 l 234 755 q 469 894 347 894 q 515 889 492 894 l 522 881 q 553 939 527 885 q 515 755 548 885 m 788 928 l 785 908 l 788 928 m 345 908 l 360 917 l 353 908 l 345 908 m 688 878 l 691 901 q 688 878 687 889 m 325 897 l 307 881 l 325 897 m 241 824 l 283 871 l 287 871 l 241 824 m 501 623 l 488 616 l 501 623 m 626 251 l 626 88 l 605 76 q 631 6 625 59 q 476 -1 564 -1 q 382 0 452 -1 q 289 0 323 0 q 297 57 289 18 q 305 116 305 95 q 323 138 313 122 l 307 146 q 315 170 315 155 q 310 200 315 180 q 306 229 306 220 q 330 252 306 252 q 350 250 337 252 l 357 242 q 415 238 385 238 q 516 248 453 238 q 618 261 591 259 l 626 251 m 596 220 q 441 200 518 200 q 334 211 382 200 q 332 201 332 205 q 345 189 332 194 q 360 181 359 184 q 334 177 358 178 q 339 156 333 168 q 541 135 369 142 q 334 132 508 132 q 333 78 333 110 q 358 60 333 59 q 337 56 347 59 q 323 45 323 53 q 326 33 323 45 q 461 24 400 24 q 594 39 536 24 l 594 52 l 539 58 q 572 60 546 62 q 582 72 582 68 l 581 77 q 484 77 585 77 q 400 85 432 77 l 400 88 q 608 104 469 90 q 603 121 603 110 q 605 137 603 127 q 605 153 605 149 q 584 181 605 178 q 600 195 600 187 q 596 220 600 192 m 388 173 l 485 165 l 388 173 "},"H":{"x_min":21.890625,"x_max":952.5625,"ha":974,"o":"m 389 1133 q 411 907 411 1050 q 404 827 411 882 q 399 743 397 772 l 400 717 q 436 713 416 713 q 486 717 455 713 q 536 721 522 721 q 595 1122 547 921 l 734 1105 q 765 1076 739 1076 q 789 1102 777 1076 l 789 1105 l 807 1107 q 952 1053 872 1109 q 886 504 886 784 q 940 54 886 257 l 886 46 l 886 40 q 877 30 886 37 q 729 18 819 29 q 581 0 588 0 q 557 201 578 59 q 536 404 538 330 l 396 404 q 369 28 376 283 l 360 28 q 318 22 345 29 q 277 15 290 15 q 248 23 261 15 q 136 19 194 19 q 24 23 79 19 q 21 49 21 36 q 29 97 21 51 q 46 234 36 143 q 87 713 87 561 q 30 1105 87 935 q 123 1120 66 1108 q 214 1139 191 1136 q 250 1158 224 1158 q 287 1152 262 1158 q 325 1149 312 1147 q 389 1133 347 1147 m 249 1118 q 263 1000 263 1003 q 260 962 263 981 l 253 962 q 201 1098 241 1010 q 187 1088 187 1098 q 190 1075 187 1084 q 194 1062 194 1066 l 191 1053 q 181 1075 188 1055 q 167 1089 175 1089 q 156 1087 167 1089 l 153 1045 l 141 1078 q 120 1082 128 1082 q 109 1074 109 1082 q 115 1052 109 1066 q 121 1029 121 1037 q 113 1013 121 1020 l 97 1075 l 85 1072 q 125 735 125 922 q 101 396 125 597 q 64 58 83 227 l 86 58 q 94 85 88 76 q 97 58 99 79 l 125 58 q 125 69 125 58 q 129 76 125 75 q 132 63 132 76 l 133 58 q 155 55 145 58 l 164 69 l 169 58 l 187 58 q 215 179 194 98 q 226 162 226 173 q 223 145 226 156 q 220 128 220 134 q 222 121 220 123 q 225 175 225 128 q 241 209 225 202 q 243 185 243 198 q 241 138 243 169 q 239 91 239 107 q 241 51 239 68 l 269 51 l 273 136 q 276 68 273 130 l 278 55 l 282 53 q 304 62 284 53 l 307 179 l 314 173 q 311 117 309 149 l 311 58 q 334 66 329 58 q 352 389 338 230 l 325 411 l 323 399 l 323 405 q 306 422 323 415 q 288 435 290 428 l 285 380 l 279 383 q 279 433 279 382 q 299 463 279 459 q 422 449 352 449 q 532 455 463 449 l 416 457 l 408 466 q 460 475 428 473 q 513 473 486 473 l 532 475 q 506 489 528 486 q 474 494 479 491 q 502 498 487 498 q 529 494 516 498 q 540 523 540 510 q 536 536 540 523 l 481 540 q 505 549 490 549 q 531 547 518 549 l 540 549 l 540 554 l 551 560 q 556 546 556 553 q 553 532 556 541 q 551 518 551 522 l 551 512 l 556 517 q 572 505 557 515 q 629 35 573 351 l 644 34 q 695 46 671 32 q 688 88 688 89 q 692 108 688 99 l 703 46 l 723 46 q 742 51 733 44 l 740 56 l 745 66 q 749 51 753 62 q 788 58 762 52 l 788 68 q 782 110 789 82 q 776 153 776 139 q 781 182 776 169 q 800 57 785 140 q 814 56 804 57 q 828 55 823 55 q 851 88 851 55 q 850 140 851 147 q 840 166 840 140 q 833 201 840 178 q 827 237 827 225 q 830 256 827 248 q 847 186 849 238 q 855 163 855 182 q 874 133 871 156 q 877 96 875 115 l 890 104 q 840 524 840 295 q 910 1029 840 799 q 869 1059 899 1052 q 811 1072 840 1066 l 819 1063 q 799 933 809 998 q 787 801 787 855 q 788 761 787 780 q 796 784 786 767 q 801 772 801 778 q 793 757 801 765 q 785 742 785 744 q 777 823 777 780 q 784 930 777 861 q 791 1033 791 1000 l 781 1033 q 769 1013 776 1026 l 763 1017 l 765 1024 q 752 1040 765 1040 l 745 1040 l 722 959 q 721 971 721 965 q 725 998 721 979 q 729 1024 729 1016 q 726 1040 729 1024 q 680 784 690 911 l 680 804 q 691 937 680 856 q 706 1072 704 1052 q 679 1076 692 1076 q 656 1068 662 1076 l 652 1078 l 633 1078 q 563 612 575 875 l 560 612 l 555 621 l 468 630 q 502 637 480 637 q 538 637 520 637 l 551 638 l 551 643 q 544 660 552 649 q 435 665 507 658 q 493 672 454 673 q 548 676 532 671 l 544 687 l 493 687 q 341 672 406 688 q 329 683 338 683 q 317 679 325 683 q 305 676 309 676 q 299 678 302 676 q 293 692 300 691 q 274 694 292 694 q 270 701 270 694 q 272 709 270 701 l 353 717 q 367 786 360 752 q 378 857 378 833 q 368 984 378 899 q 359 1111 359 1068 l 323 1114 l 320 1059 q 315 1100 315 1068 q 301 1118 315 1118 q 283 1118 281 1118 q 311 888 311 977 q 299 768 311 825 q 297 924 299 846 q 283 1078 296 1016 q 261 1123 274 1123 q 249 1118 257 1123 m 323 1040 l 325 1006 l 323 1040 m 633 968 q 645 1040 636 991 q 633 968 640 1016 m 199 1036 l 208 1001 l 199 1036 m 840 1033 l 835 1001 l 840 1033 m 830 858 q 867 1026 843 913 q 830 858 855 969 m 883 1006 l 886 1006 l 886 1020 l 883 1020 l 883 1006 m 764 998 l 770 998 l 770 1013 l 764 1013 l 764 998 m 165 990 l 169 990 l 168 1010 l 165 1010 l 165 990 m 831 974 l 835 974 l 836 992 l 830 992 l 831 974 m 215 959 q 211 987 215 959 l 215 948 l 215 959 m 169 978 l 171 948 q 169 978 172 959 m 338 940 q 331 978 338 940 l 338 929 l 338 940 m 800 784 q 807 877 802 848 q 827 968 812 929 q 800 784 810 922 m 719 959 l 715 932 l 719 959 m 134 943 l 136 893 q 134 943 136 904 m 175 916 l 180 916 l 179 940 l 176 940 l 175 916 m 349 881 l 341 920 l 341 865 l 349 881 m 712 893 l 715 893 l 715 920 l 712 920 l 712 893 m 179 907 l 183 877 q 179 907 184 888 m 706 846 l 712 846 l 712 877 l 706 877 l 706 846 m 187 869 l 192 827 l 187 869 m 156 687 l 158 724 q 144 862 159 782 q 156 687 160 771 m 338 827 l 341 827 l 341 846 l 338 846 l 338 827 m 618 830 l 614 738 l 618 830 m 609 725 l 606 575 l 609 725 m 278 682 q 273 675 273 681 q 280 658 273 668 q 287 646 287 648 q 283 639 287 643 q 280 633 280 635 q 287 628 280 628 q 298 632 292 628 q 307 636 304 636 q 310 648 310 642 q 295 666 310 656 q 278 682 280 675 m 675 667 q 644 621 644 651 q 648 602 644 611 q 670 566 671 593 q 673 521 667 531 q 686 536 681 521 q 695 554 690 551 q 715 580 695 569 q 739 606 736 592 q 742 619 742 612 q 723 655 742 641 q 684 669 704 669 l 675 667 m 156 563 l 162 563 l 162 660 l 156 660 l 156 563 m 304 588 q 281 579 294 579 q 241 588 274 579 q 240 594 240 589 q 244 602 240 597 q 248 612 248 608 q 247 618 248 615 q 222 597 222 611 q 231 570 222 588 q 240 541 240 552 q 235 524 240 533 l 234 530 q 237 543 234 534 q 241 555 241 552 q 259 536 255 549 q 262 505 263 524 q 259 476 259 476 l 260 463 q 264 508 258 479 q 273 507 267 507 q 299 521 286 507 q 289 535 293 524 q 283 549 286 546 l 303 554 q 287 552 296 552 q 250 575 267 552 q 279 579 263 579 q 307 575 296 579 q 347 545 314 545 q 395 588 395 545 q 380 623 395 608 q 345 639 366 639 q 316 622 328 639 q 304 588 304 605 m 652 540 q 648 563 652 540 l 652 527 l 652 540 m 153 521 l 156 521 l 156 552 l 153 552 l 153 521 m 694 361 q 685 433 688 385 q 675 505 682 482 q 685 433 682 482 q 694 361 688 385 m 695 502 l 692 505 l 694 489 l 695 502 m 274 489 l 272 483 q 280 473 272 473 l 282 473 l 285 474 l 285 477 q 283 483 285 478 q 278 489 280 489 l 274 489 m 804 489 l 806 403 l 804 489 m 256 443 l 254 372 l 256 443 m 609 397 l 614 397 l 615 422 l 609 422 l 609 397 m 320 357 l 323 357 l 323 389 l 320 389 l 320 357 m 620 298 q 622 312 622 305 q 616 342 622 322 q 615 380 611 363 q 613 366 613 373 q 618 334 613 357 q 620 298 623 311 m 811 350 l 816 350 l 816 372 l 811 372 l 811 350 m 701 325 l 703 325 l 703 350 l 700 350 l 701 325 m 314 344 l 311 267 l 314 344 m 663 306 l 668 276 q 663 306 668 286 m 630 267 l 629 267 q 624 285 624 276 q 626 292 624 289 q 630 267 630 263 m 773 267 l 769 272 l 772 256 l 773 267 m 192 237 l 187 209 l 192 237 m 675 221 l 680 221 l 680 237 l 675 237 l 675 221 m 636 231 l 640 207 q 636 231 642 218 m 777 182 l 781 182 l 781 231 l 777 231 l 777 182 m 113 207 l 101 140 q 113 207 113 166 m 134 76 q 153 207 136 117 l 153 198 q 143 141 153 178 q 134 85 134 105 l 134 76 m 182 201 l 180 170 l 182 201 m 680 201 l 685 154 q 680 201 685 167 m 645 154 l 647 154 l 648 198 l 645 198 l 645 154 m 726 186 l 730 159 l 726 186 m 276 140 l 281 140 l 279 167 l 278 167 l 276 140 m 175 143 l 180 143 l 179 159 l 176 159 l 175 143 m 688 112 l 692 112 l 692 143 l 687 143 l 688 112 m 733 115 l 739 115 l 739 143 l 733 143 l 733 115 m 97 88 l 101 88 l 101 121 l 97 121 l 97 88 m 652 88 q 648 121 652 88 l 652 76 l 652 88 m 739 88 l 742 69 l 739 88 "},"c":{"x_min":20,"x_max":821.296875,"ha":842,"o":"m 598 1147 q 802 913 680 1089 q 766 839 799 876 q 706 778 737 808 q 643 745 705 777 q 575 710 581 714 q 534 779 555 745 q 472 819 508 819 q 366 741 421 819 q 312 605 312 664 q 345 448 312 539 q 436 339 385 339 q 513 372 466 339 q 569 433 560 405 q 608 399 586 425 q 644 360 637 366 q 656 362 650 362 q 686 331 676 362 l 689 334 q 758 268 715 314 q 821 204 801 221 l 821 192 q 670 60 746 127 q 481 0 588 0 q 375 15 437 0 q 272 41 325 28 q 213 63 244 62 q 180 86 202 70 q 167 107 180 86 q 148 115 160 118 q 48 309 85 165 q 20 535 20 425 q 137 919 20 746 q 455 1158 258 1100 q 598 1147 576 1146 m 418 1114 l 414 1114 q 392 1107 405 1114 q 374 1099 380 1101 q 293 1050 333 1075 q 229 982 247 1018 l 253 975 q 250 950 251 957 q 235 931 245 936 l 231 940 q 233 950 233 944 q 225 961 233 960 q 217 968 217 962 l 204 968 q 98 774 141 895 q 55 557 55 654 q 130 204 55 333 q 154 162 143 182 q 188 133 172 134 q 178 151 186 139 q 170 172 170 163 q 173 181 170 172 q 221 104 186 153 l 231 104 q 239 111 238 104 q 242 126 242 126 q 316 60 264 75 l 316 82 q 293 118 293 111 q 294 126 293 123 q 345 79 322 88 q 356 75 351 75 q 382 86 368 75 q 366 130 379 102 q 374 133 371 133 q 381 123 377 133 q 390 113 385 114 q 392 127 392 118 q 389 145 392 133 q 385 162 385 157 l 407 163 q 447 144 434 163 q 473 178 475 160 q 499 162 482 176 l 462 123 l 473 118 q 442 108 466 113 q 414 94 418 104 l 431 89 q 419 82 431 82 q 408 73 407 82 l 403 79 l 385 63 l 426 60 l 414 53 q 435 47 420 53 q 456 42 450 42 q 465 46 462 42 l 465 42 q 507 38 486 38 q 632 84 567 38 q 735 175 669 108 q 758 192 747 182 q 768 211 768 201 q 763 220 768 218 q 750 218 758 220 q 739 215 741 215 q 735 217 737 215 l 748 230 q 742 241 748 236 q 732 250 732 250 q 686 207 731 250 q 634 181 657 179 l 630 181 q 725 266 664 207 l 692 269 l 696 276 l 686 292 l 673 279 l 667 283 q 673 299 673 288 q 667 324 673 302 q 611 269 632 298 l 611 272 q 626 300 611 283 q 641 324 641 317 q 564 266 615 305 l 562 269 q 627 331 582 291 q 603 357 622 344 q 575 378 579 372 l 512 331 q 450 302 491 324 q 464 308 456 302 q 476 314 472 314 q 483 310 481 314 q 455 292 476 304 l 465 286 q 462 276 462 281 q 472 252 462 268 q 483 230 482 237 q 475 227 479 227 q 452 241 465 227 q 432 260 439 256 q 398 301 426 263 q 359 332 378 329 q 283 561 283 420 q 279 578 283 567 q 276 595 276 589 l 275 599 l 283 587 l 283 609 q 330 798 278 683 q 340 840 335 820 q 366 869 346 866 q 375 890 375 877 q 366 923 375 903 l 371 923 q 378 927 374 923 q 385 931 382 931 q 392 927 390 931 l 385 920 l 395 910 q 401 878 401 876 q 390 853 401 863 l 403 853 q 382 840 403 850 q 366 795 378 824 q 470 853 382 808 l 465 853 q 450 863 457 853 q 431 872 443 874 q 429 883 431 875 q 427 897 427 891 q 440 913 427 905 l 447 910 q 443 902 443 907 q 447 897 443 901 q 450 889 450 894 q 601 759 511 875 l 611 769 q 550 865 590 816 l 553 869 q 601 811 579 845 q 624 794 608 808 q 648 779 640 779 q 667 791 657 779 q 627 840 647 826 q 615 856 625 843 q 608 876 605 869 q 588 898 601 895 q 557 900 585 900 q 520 956 520 900 q 572 1000 520 1000 q 614 960 614 1000 q 611 933 614 955 q 611 905 609 916 l 598 911 l 590 905 l 601 894 l 611 897 q 649 853 622 879 q 686 814 676 827 l 748 889 q 686 982 718 950 q 653 1037 669 1001 q 765 910 696 982 q 574 1114 673 1075 l 574 1109 q 556 1102 570 1102 q 535 1056 533 1102 q 517 1076 518 1059 q 507 1099 515 1093 l 502 1099 q 477 1093 494 1099 q 452 1088 460 1088 q 440 1089 444 1088 q 462 1107 443 1093 q 476 1128 476 1118 l 476 1131 q 444 1127 475 1131 q 418 1114 427 1124 m 517 1011 q 505 1025 505 1012 q 509 1037 505 1025 l 517 1011 m 473 985 l 470 949 q 498 930 486 930 l 502 931 q 484 955 492 943 q 480 985 476 968 l 473 985 m 276 956 q 209 924 255 930 q 180 853 182 920 l 187 858 q 218 839 202 839 q 252 853 232 839 q 290 868 273 868 q 305 865 297 868 l 305 872 q 252 920 262 891 l 261 923 l 262 931 q 286 946 267 946 q 305 927 305 946 l 312 931 l 313 937 l 309 946 l 316 952 q 305 949 310 949 q 289 952 299 949 q 276 956 280 956 m 366 939 l 345 939 l 345 927 l 366 939 m 627 927 l 649 905 l 627 927 m 414 916 l 411 916 l 403 910 l 414 916 m 616 905 l 661 858 l 616 905 m 557 897 l 583 872 q 580 868 580 871 q 593 852 580 862 l 593 852 q 585 865 585 852 q 587 869 585 868 l 591 869 q 557 897 580 878 m 411 884 l 418 889 l 402 884 l 411 884 m 447 858 l 440 858 l 382 821 l 447 858 m 283 853 l 258 795 q 283 853 275 820 m 312 834 l 304 817 l 312 834 m 242 759 l 225 716 l 242 759 m 301 749 l 294 736 l 301 749 m 273 743 q 265 727 267 729 q 264 729 264 729 l 265 733 l 273 736 l 273 743 m 178 693 l 173 664 l 178 693 m 239 649 q 233 610 233 636 l 233 599 q 253 535 251 575 q 253 465 253 500 q 254 494 253 477 q 254 522 254 515 q 229 601 254 577 q 239 649 231 617 m 206 632 q 198 600 198 616 q 217 546 198 580 q 237 490 237 512 q 232 465 237 478 q 236 490 236 478 q 218 548 236 513 q 200 603 200 583 q 206 632 200 617 m 273 606 l 261 619 l 273 599 l 273 606 m 159 570 l 162 570 l 162 601 l 159 601 l 159 570 m 86 561 l 89 561 l 89 575 l 86 575 l 86 561 m 159 557 q 192 481 172 541 q 159 557 186 526 m 196 396 l 199 396 l 199 465 l 196 465 l 196 396 m 154 380 l 153 387 q 152 415 149 402 l 154 383 q 154 380 156 380 m 199 357 l 203 357 l 203 371 l 199 371 l 199 357 m 112 364 l 115 354 l 112 364 m 125 315 l 130 298 l 125 315 m 276 243 l 276 231 q 312 185 271 185 q 365 235 367 185 l 365 243 q 319 274 346 274 q 276 243 297 274 m 206 214 l 216 185 l 206 214 m 736 214 l 733 214 l 719 199 l 736 214 m 162 204 l 170 185 l 162 204 m 220 175 l 216 175 l 235 126 l 240 126 l 240 133 q 229 154 234 139 q 220 175 225 169 m 491 130 q 475 123 476 124 q 476 123 475 123 l 481 123 l 491 130 m 418 123 l 418 115 l 431 115 q 420 124 420 124 l 418 123 "},"q":{"x_min":22,"x_max":858,"ha":878,"o":"m 628 583 l 628 548 l 623 548 l 623 583 l 628 583 m 623 541 l 623 520 l 621 520 l 621 541 l 623 541 m 648 807 q 570 937 629 897 q 623 884 596 921 q 649 818 649 847 q 648 807 649 813 m 493 923 q 613 752 589 878 q 493 923 583 862 m 616 496 l 613 491 l 616 513 l 616 496 m 562 997 q 527 961 562 961 q 483 998 483 961 q 520 1042 483 1042 q 560 1021 546 1042 q 562 997 562 1023 m 157 568 q 159 561 159 565 q 147 531 159 552 q 121 577 121 535 q 126 593 121 585 q 140 533 114 554 l 153 544 l 157 568 m 178 680 q 182 719 176 691 l 178 680 m 609 467 q 660 423 660 467 q 638 386 660 400 q 616 331 619 353 q 604 372 610 351 q 581 400 597 393 q 574 419 574 409 q 586 454 574 429 q 595 460 587 454 q 609 467 603 467 m 545 950 q 570 937 558 946 l 545 950 m 305 1028 q 279 995 289 1005 q 305 1028 294 1020 m 655 368 q 685 467 680 421 q 655 368 678 409 m 777 489 l 775 471 l 777 489 m 739 348 q 774 464 762 426 q 739 348 766 416 m 704 383 q 735 503 733 470 q 704 383 736 458 m 700 368 l 698 368 l 704 383 l 700 368 m 680 250 q 648 285 664 267 q 609 309 628 305 q 601 316 607 312 q 595 324 595 321 l 596 327 q 607 316 600 316 q 620 319 612 316 q 628 319 626 321 q 636 306 632 316 q 657 279 639 296 q 680 250 674 261 m 651 162 q 631 190 633 179 q 640 176 635 188 q 651 162 645 164 m 690 348 l 690 353 q 698 368 690 366 l 690 348 m 645 112 q 555 218 570 192 q 645 112 615 147 m 382 257 q 337 289 349 263 q 373 261 363 261 q 382 264 378 261 l 382 257 m 521 309 q 486 344 512 315 q 446 371 466 366 q 488 345 466 368 q 521 309 503 328 m 189 428 q 173 470 182 448 q 165 512 163 493 q 189 428 178 455 m 506 434 q 521 410 516 422 l 506 434 m 648 237 l 727 144 l 727 141 l 648 237 m 784 277 q 824 247 789 270 q 852 209 852 230 q 831 162 852 191 q 801 117 804 124 l 784 117 q 786 107 786 111 q 765 72 786 91 q 734 44 737 47 q 703 17 731 41 q 668 0 682 0 l 658 1 q 610 46 648 13 q 568 95 581 73 q 432 58 510 58 q 389 60 400 58 q 110 273 211 97 q 22 622 22 428 q 29 738 22 681 q 42 793 39 774 q 315 1150 98 1017 q 334 1156 324 1156 q 374 1136 360 1156 q 408 1142 386 1136 q 439 1149 429 1149 l 451 1147 q 478 1157 458 1159 q 571 1113 561 1118 q 609 1123 578 1114 q 648 1130 632 1130 q 798 921 739 1052 q 858 667 858 790 q 784 277 858 413 m 811 191 q 690 327 742 283 l 690 331 q 693 344 690 341 l 722 327 l 735 344 q 739 338 739 343 q 734 329 739 335 q 727 319 729 322 q 749 306 746 305 q 803 460 782 359 q 822 623 822 547 q 638 1088 822 911 q 610 1088 638 1088 q 592 1076 596 1088 q 550 1095 558 1085 q 516 1108 542 1096 q 482 1117 496 1117 q 456 1091 460 1117 q 441 1098 447 1089 q 369 1073 406 1098 q 308 1028 338 1050 l 305 1031 q 365 1082 326 1060 q 438 1113 383 1091 l 404 1113 q 365 1095 381 1113 q 308 1066 328 1072 q 153 859 178 959 l 150 864 q 260 1034 168 950 q 354 1113 306 1073 q 273 1073 315 1113 q 209 1005 241 1040 q 71 618 71 875 q 111 363 71 460 q 269 155 155 260 q 459 96 325 104 l 451 120 q 185 307 311 113 l 189 310 q 288 195 239 252 q 419 133 353 133 q 444 135 431 133 l 441 148 q 359 181 417 150 q 297 232 297 213 l 298 240 q 434 159 341 187 l 438 171 q 493 100 477 126 l 543 137 q 503 233 508 195 q 563 162 535 204 q 668 43 631 81 q 685 58 682 46 q 680 66 681 61 q 682 71 680 69 l 697 61 l 710 78 l 665 130 q 658 141 664 133 q 652 153 652 149 q 655 159 652 157 q 722 85 717 89 q 749 110 742 101 l 727 137 q 733 140 730 140 q 741 132 736 140 q 749 123 746 124 q 736 151 748 133 q 724 179 724 169 q 732 195 724 188 q 788 162 784 162 q 798 178 790 162 l 735 247 l 739 250 q 774 216 753 241 q 808 183 795 191 l 811 191 m 645 113 q 680 71 668 88 l 645 113 m 506 434 q 459 467 489 451 q 454 454 454 454 q 473 427 454 442 q 493 400 492 412 q 472 419 490 403 q 447 431 459 431 q 434 428 440 431 l 427 418 q 501 371 457 418 q 473 396 496 374 q 443 413 457 413 q 431 410 437 413 q 427 396 427 396 q 441 371 427 380 l 444 371 q 454 331 441 357 q 466 292 466 305 l 444 309 l 441 306 q 417 348 424 334 l 379 316 l 406 351 q 304 578 304 371 q 379 926 304 743 l 354 950 q 299 889 325 930 q 259 817 279 853 q 301 895 281 856 q 357 960 327 940 l 357 968 q 367 988 365 968 q 391 989 369 989 q 407 1005 407 988 q 414 1031 407 1030 q 397 975 408 988 q 384 972 388 979 q 375 957 379 965 q 413 930 386 941 q 456 908 451 911 q 592 617 592 820 q 560 450 592 513 q 508 463 538 448 q 459 489 483 476 l 456 478 l 456 471 q 506 434 483 461 m 413 502 q 443 523 413 523 q 492 504 466 523 q 535 471 514 487 q 559 610 559 532 q 532 761 559 684 q 441 876 498 858 q 431 878 436 878 q 363 752 394 878 q 342 590 342 652 q 392 410 342 483 q 392 445 389 439 q 420 461 396 451 l 420 467 q 414 478 421 473 q 413 502 413 471 m 445 371 l 444 371 l 444 371 l 445 371 m 199 612 q 183 639 192 625 q 175 665 173 653 l 175 674 q 199 612 189 632 m 175 541 q 165 512 165 528 l 165 513 q 178 549 163 533 l 175 541 m 199 612 q 204 584 207 599 q 199 612 204 599 m 147 632 q 181 567 181 583 q 178 549 181 552 q 170 594 181 578 q 136 627 163 604 q 149 664 146 640 q 153 701 152 682 q 153 681 153 694 q 155 661 155 667 q 147 632 155 642 m 410 1059 l 409 1059 l 410 1059 m 203 584 q 200 555 203 575 q 198 525 198 535 q 214 465 198 502 q 234 408 231 425 q 211 471 231 423 q 194 538 194 510 q 198 562 194 548 q 203 584 202 577 m 410 1059 q 325 991 367 1024 q 252 901 279 953 q 410 1059 310 1013 m 441 1070 q 411 1059 424 1059 q 441 1070 425 1066 m 326 257 q 417 218 357 222 q 446 240 421 219 q 479 254 464 254 q 424 195 434 209 q 402 209 415 196 q 376 222 388 222 l 372 222 q 346 237 370 222 q 326 257 330 245 "},"b":{"x_min":22.1875,"x_max":908.46875,"ha":932,"o":"m 185 380 q 202 422 191 403 q 185 380 191 395 m 226 615 l 228 615 l 228 544 l 226 544 l 226 615 m 237 248 q 250 285 237 261 q 263 316 263 308 q 267 360 263 334 q 274 403 274 395 q 255 264 274 347 q 237 248 241 256 m 274 436 q 274 403 276 422 q 274 436 274 422 m 210 192 q 194 251 196 231 l 210 192 m 228 360 q 226 370 228 366 q 228 360 228 366 m 277 497 l 282 497 l 281 460 l 278 460 l 277 497 m 185 380 q 180 329 180 355 q 184 286 180 309 q 177 327 177 305 q 185 380 177 350 m 200 270 q 214 307 199 276 q 228 360 229 338 l 228 353 q 200 267 229 334 l 200 270 m 237 723 l 233 723 l 233 739 l 237 739 l 237 723 m 305 831 q 284 953 291 912 q 305 831 299 895 m 367 1073 q 373 1030 373 1030 l 373 1017 l 367 1073 m 836 393 q 843 366 840 374 q 833 384 833 383 q 836 393 833 389 m 843 366 q 843 351 847 358 q 843 366 844 357 m 376 1009 l 379 1009 l 379 749 l 376 749 l 376 1009 m 316 892 q 324 805 324 818 q 323 784 324 794 l 316 892 m 305 831 q 307 781 309 804 q 305 831 307 804 m 316 892 q 313 953 311 930 l 316 892 m 760 868 q 764 844 765 856 l 760 868 m 256 478 l 259 478 l 259 452 l 256 452 l 256 478 m 691 286 q 654 380 659 313 q 640 487 646 471 q 654 381 646 470 q 691 286 659 315 m 263 591 q 268 572 268 584 q 259 513 268 580 l 263 591 m 251 947 l 248 947 l 247 976 l 252 976 l 251 947 m 172 192 l 175 192 l 175 163 l 172 163 l 172 192 m 251 405 q 244 393 248 397 l 251 405 m 191 607 l 191 713 l 194 713 l 194 607 l 191 607 m 188 966 l 184 966 l 184 995 l 188 995 l 188 966 m 188 584 l 191 584 l 191 551 l 188 551 l 188 584 m 172 455 q 188 544 182 515 l 172 455 m 194 852 l 191 852 l 191 878 l 193 878 l 194 852 m 194 896 l 191 896 l 191 927 l 193 927 l 194 896 m 255 416 q 251 405 255 412 q 251 426 251 409 l 255 416 m 194 720 q 190 743 190 730 q 191 762 190 749 q 191 781 192 774 l 194 720 m 261 1003 q 274 1040 261 1024 q 308 1056 286 1056 q 354 1025 332 1056 q 355 1009 355 1009 q 312 953 355 969 q 263 990 279 960 l 261 1003 m 742 195 q 772 219 760 199 l 772 222 q 772 219 772 221 q 760 203 772 212 q 742 192 749 193 q 721 220 724 199 q 716 260 717 241 q 722 238 722 253 q 742 195 722 202 m 772 176 q 760 159 766 164 l 772 176 m 724 298 l 705 321 l 724 305 l 724 298 m 628 335 q 671 251 633 308 q 705 166 705 202 l 705 159 l 735 124 l 735 94 q 729 110 729 98 q 726 125 730 121 q 693 160 704 128 q 659 192 681 192 q 632 201 645 192 q 659 209 636 205 q 678 228 678 211 l 678 233 q 632 263 655 248 q 581 280 604 280 l 568 279 q 557 263 565 276 q 542 250 549 250 q 538 251 539 250 l 530 264 q 462 279 513 270 q 394 298 417 286 q 386 332 386 332 l 395 557 q 403 562 396 560 q 410 568 410 565 l 410 573 l 417 573 l 423 562 q 430 574 430 568 q 422 591 430 580 q 415 609 415 601 q 417 619 415 613 q 475 554 430 587 q 537 497 526 518 q 622 280 623 363 l 622 270 l 635 267 q 638 280 638 280 q 633 308 638 290 q 628 335 628 327 m 488 494 q 500 500 500 494 l 488 500 l 488 494 m 549 302 q 565 355 565 322 q 544 425 565 389 q 492 467 521 467 q 476 463 484 467 q 461 474 474 467 q 448 490 448 481 q 449 497 448 494 q 431 500 445 497 l 430 335 q 483 312 430 335 q 537 300 514 299 l 549 302 m 758 156 l 761 159 l 761 159 l 758 156 m 737 121 l 735 124 l 735 125 l 737 121 m 745 248 l 738 276 q 753 256 753 256 l 756 257 l 745 248 m 704 544 q 723 513 719 528 q 704 544 716 529 m 662 544 q 726 490 688 504 l 729 494 l 735 478 q 693 508 714 493 q 662 544 671 523 m 651 596 q 704 544 685 561 q 675 568 703 544 q 651 596 658 584 m 866 509 q 893 413 879 461 q 908 315 909 357 l 908 295 q 889 251 892 282 q 880 203 886 214 q 828 107 840 124 q 750 42 785 42 q 712 44 680 42 q 678 23 690 42 q 558 0 606 0 q 507 9 529 0 q 418 16 490 7 l 418 9 q 248 49 360 19 q 78 91 136 79 l 72 98 q 78 113 75 108 q 106 276 101 169 q 119 443 111 405 q 128 583 128 482 q 128 815 128 815 q 78 833 95 826 q 52 884 82 859 q 22 926 22 909 q 43 972 22 948 q 65 1007 65 995 q 59 1026 65 1016 q 88 1058 64 1036 q 109 1094 110 1075 l 109 1101 q 143 1126 120 1120 q 204 1127 159 1130 q 263 1136 243 1126 q 321 1147 283 1136 q 379 1158 359 1158 q 432 1135 409 1158 q 548 1149 500 1149 q 632 1132 603 1149 q 665 1102 643 1125 q 700 1086 679 1086 q 737 1036 716 1072 q 779 987 759 999 q 791 960 778 973 q 809 934 807 941 q 836 776 836 861 q 798 633 836 691 q 829 573 810 617 q 866 509 849 529 m 417 68 q 551 45 468 40 l 561 46 q 417 68 463 57 m 847 351 q 857 323 857 323 q 866 324 862 323 q 686 680 820 566 q 696 687 696 687 l 700 686 q 670 713 681 704 q 651 719 664 713 q 632 725 639 725 q 621 723 626 725 q 619 713 619 713 q 625 693 619 706 q 631 674 631 680 q 628 664 631 668 l 616 664 q 595 730 597 696 q 623 741 605 741 q 704 704 658 741 q 775 645 739 674 q 806 777 806 696 q 791 890 806 833 l 782 890 q 791 790 791 853 q 760 701 791 732 q 777 787 777 736 q 761 880 777 839 l 761 889 l 753 896 l 761 880 l 756 867 q 747 885 747 886 l 747 889 q 739 902 739 896 q 756 924 739 909 q 774 950 774 938 q 766 966 774 957 q 745 989 755 967 q 720 1010 734 1010 l 710 1009 q 710 1019 713 1013 q 707 1029 707 1026 l 707 1032 q 653 1073 691 1068 q 554 1114 617 1114 q 486 1108 529 1114 q 418 1100 438 1100 l 417 1092 q 449 1097 430 1097 q 477 1092 468 1097 q 447 1087 462 1090 q 419 1079 428 1084 l 470 1074 q 461 1071 467 1071 q 421 1054 419 1071 l 507 1051 q 418 1041 448 1044 q 431 1028 416 1028 q 455 1025 451 1028 q 429 1021 451 1022 q 414 1008 414 1021 l 412 1004 q 396 1060 398 1021 q 385 1119 391 1105 l 377 1121 q 367 1108 367 1121 q 364 1073 367 1076 q 360 1116 358 1102 q 340 1106 355 1110 q 320 1092 324 1102 q 302 1102 312 1102 q 282 1097 295 1102 q 261 1092 268 1092 l 258 1092 q 260 1060 255 1086 q 255 1030 263 1040 l 247 1033 l 244 980 q 237 1034 235 995 q 225 1089 238 1073 q 214 1091 214 1091 q 204 1082 204 1091 q 207 1063 204 1084 q 202 1044 208 1050 q 197 1070 199 1056 q 184 1086 195 1084 l 181 1022 q 172 1070 171 1060 l 172 1082 l 147 1082 l 135 1022 l 133 1024 l 132 1029 q 139 973 139 1000 q 139 938 139 964 q 138 905 138 916 q 113 1025 123 985 l 99 1014 q 107 996 107 1004 q 86 965 107 983 q 66 931 66 947 q 67 919 66 925 q 92 927 83 927 q 109 909 109 927 q 106 886 109 906 q 106 861 104 870 q 119 844 109 850 q 124 863 124 848 q 133 880 124 877 q 145 872 139 880 l 143 874 l 151 905 q 154 893 154 893 q 165 864 154 865 l 166 817 q 161 621 163 687 l 162 573 l 165 577 l 172 563 q 143 362 156 428 q 154 294 154 331 q 143 209 154 259 q 128 126 128 132 q 157 122 130 126 l 170 159 q 174 151 174 155 q 171 139 174 146 q 168 128 168 132 l 170 122 q 200 113 197 113 l 203 113 l 215 193 q 219 174 219 185 q 216 149 219 165 q 213 125 213 133 q 214 110 213 117 l 243 107 q 251 141 251 129 q 247 170 248 146 q 240 206 246 194 q 235 227 235 219 q 264 250 235 250 q 320 265 314 250 l 327 265 q 372 209 372 268 q 356 168 372 178 q 312 155 350 164 q 281 185 292 159 q 270 210 270 210 l 266 209 q 261 146 261 181 l 263 84 q 280 89 270 89 q 308 84 290 89 q 335 80 326 80 l 335 84 q 341 117 338 114 l 345 75 q 360 72 358 78 l 367 107 l 373 98 q 384 157 384 115 q 392 214 383 198 q 399 204 400 211 q 401 264 399 254 q 409 224 406 246 q 432 204 413 202 q 426 201 429 201 q 419 204 425 201 q 411 204 413 205 l 411 186 q 417 173 409 176 q 409 154 406 167 l 408 152 q 415 144 408 147 q 422 140 422 140 l 414 136 l 414 121 q 419 114 412 118 q 428 110 427 110 l 418 107 l 418 94 q 442 86 422 95 l 439 84 l 426 82 q 418 86 420 82 l 417 80 q 591 48 537 48 q 704 80 659 48 q 643 113 664 103 l 651 122 q 691 117 656 117 q 700 137 696 137 q 708 130 704 137 q 716 122 711 123 q 705 111 711 119 q 691 103 698 103 q 713 95 697 98 q 735 84 729 91 l 743 83 q 778 98 762 83 q 810 129 794 114 q 822 237 823 168 q 825 347 822 321 q 835 243 835 285 q 832 192 835 217 q 852 255 852 216 q 849 294 852 268 q 846 333 846 320 q 847 351 846 343 m 745 328 q 717 396 717 366 q 719 412 717 403 l 726 413 q 747 396 737 413 q 756 367 756 379 q 750 347 756 360 q 745 328 745 335 m 742 335 q 745 347 742 340 q 749 360 749 355 q 745 370 748 370 l 742 370 l 742 335 m 727 403 q 727 377 727 405 q 735 358 727 363 l 735 364 q 731 375 735 368 q 728 386 728 381 q 729 393 728 389 l 732 393 q 748 380 743 393 q 741 396 745 387 q 729 403 736 405 l 727 403 m 697 415 q 726 441 717 432 q 759 405 744 438 q 771 354 771 377 q 756 309 771 325 q 744 308 744 308 q 707 340 718 308 q 701 371 708 351 q 694 400 694 390 q 697 415 694 408 m 768 357 q 755 407 768 379 q 722 434 742 435 l 719 434 q 705 399 705 422 q 747 313 705 313 q 768 357 768 322 m 625 962 q 589 979 623 963 q 571 1017 571 988 q 584 1050 571 1036 q 616 1065 597 1065 q 664 1018 664 1065 q 651 987 664 1001 q 625 962 638 973 m 726 856 q 726 868 727 863 q 726 856 729 862 m 719 886 q 723 892 720 886 q 730 898 726 898 l 735 896 q 746 840 746 841 l 745 830 q 737 849 737 831 q 729 870 737 866 l 726 867 q 710 889 717 883 l 719 886 m 705 859 q 701 876 703 867 q 688 886 699 885 l 704 896 l 705 859 m 603 551 l 635 494 q 603 551 627 509 m 428 947 q 434 947 432 947 l 428 947 m 515 613 q 551 654 515 654 q 599 619 581 654 l 599 607 q 559 563 601 563 q 515 613 515 563 m 533 544 q 590 473 574 517 q 533 544 575 506 m 603 431 q 606 412 607 418 l 603 431 m 590 473 q 599 436 597 454 q 590 473 596 454 m 613 823 q 613 816 614 818 l 613 823 m 414 657 q 408 693 412 661 q 399 727 406 714 q 402 790 403 745 q 410 852 400 830 q 408 866 408 859 q 415 904 408 879 q 421 943 422 930 l 421 947 l 427 947 l 421 938 l 421 926 l 489 919 q 452 921 486 919 q 421 908 426 921 l 530 897 l 515 895 q 482 898 503 895 q 453 901 462 901 q 422 894 435 901 q 508 879 448 892 q 594 868 562 868 q 627 870 611 868 q 640 886 636 880 q 632 898 632 893 l 632 901 l 636 902 q 665 889 658 903 q 651 875 651 882 l 651 870 q 670 833 667 847 q 651 868 659 862 q 625 844 625 859 l 628 844 l 628 833 l 625 833 q 616 844 625 834 q 610 833 610 842 l 606 837 q 595 816 593 833 l 594 798 q 584 833 594 817 l 575 833 q 566 759 569 768 q 530 699 557 717 l 561 675 l 545 675 q 458 699 529 699 q 418 683 431 699 l 414 657 m 447 856 q 439 810 439 836 q 439 727 439 727 l 449 727 q 499 723 493 726 q 530 771 522 737 q 537 830 531 774 q 496 852 530 849 q 447 856 472 853 m 596 797 l 594 784 q 596 797 596 792 m 476 612 q 486 603 481 607 l 476 612 m 432 641 q 475 612 446 642 q 423 641 442 632 l 432 641 m 447 947 q 433 947 444 945 l 447 947 m 610 833 q 613 823 610 830 q 610 833 612 829 m 596 797 l 594 798 l 596 797 m 613 814 q 613 816 613 814 l 613 814 "},"D":{"x_min":24.109375,"x_max":938,"ha":962,"o":"m 404 183 q 397 111 401 144 q 404 183 398 137 m 408 332 q 412 280 412 308 q 404 183 412 250 q 408 332 409 260 m 408 387 q 399 431 399 409 q 409 493 399 438 l 408 387 m 408 1086 l 413 1086 l 412 1063 l 409 1063 l 408 1086 m 333 694 q 334 727 333 708 l 333 694 m 408 551 q 409 493 413 525 l 408 551 m 342 865 q 346 826 346 846 q 334 727 346 839 l 342 865 m 806 680 q 795 719 795 714 l 795 724 l 806 680 m 288 930 q 329 972 288 972 q 377 924 377 972 q 331 881 377 881 q 288 930 288 881 m 782 580 q 779 564 780 571 q 782 580 780 577 m 804 846 q 773 894 791 859 q 741 943 756 928 q 804 846 783 902 m 749 616 q 750 612 749 614 q 749 616 749 614 m 760 542 q 779 564 773 551 q 765 542 776 548 l 760 542 m 750 612 q 749 580 750 591 q 750 612 749 584 m 742 546 q 750 544 746 545 q 742 546 745 544 m 782 580 l 785 599 l 788 588 l 782 580 m 761 542 q 750 544 758 539 l 761 542 m 323 332 l 323 302 l 318 302 l 318 332 l 323 332 m 309 84 l 312 84 l 312 69 l 308 69 l 309 84 m 236 293 l 238 289 q 230 269 238 283 l 236 293 m 370 1001 l 367 1001 l 367 1025 l 368 1025 l 370 1001 m 228 264 l 228 264 l 228 264 l 228 266 l 230 269 l 228 264 m 333 1083 l 330 1083 l 330 1099 l 333 1099 l 333 1083 m 333 1072 q 339 1032 339 1032 l 339 1021 l 333 1072 m 233 998 q 236 966 237 978 l 233 998 m 156 1067 q 159 1047 160 1056 l 156 1067 m 217 329 q 204 277 213 305 l 217 329 m 204 278 q 150 111 179 187 q 204 278 186 223 m 275 519 l 272 519 l 272 542 l 275 542 l 275 519 m 291 406 q 287 334 291 403 q 268 266 284 287 l 245 186 l 244 195 q 262 302 243 238 q 291 406 288 393 m 242 302 q 245 324 240 313 l 242 302 m 309 865 l 308 752 l 295 876 l 309 865 m 265 219 q 305 254 265 254 q 348 216 348 254 q 337 184 348 198 q 310 170 326 170 q 265 219 265 170 m 762 620 q 770 609 769 620 l 760 620 l 762 620 m 253 858 l 256 858 l 256 843 l 253 843 l 253 858 m 245 939 l 242 939 l 242 959 l 244 959 l 245 939 m 245 931 l 253 881 q 253 869 253 881 l 245 931 m 694 321 q 760 448 743 396 q 733 385 749 406 q 710 341 730 372 q 691 297 691 311 l 691 291 l 679 321 l 663 314 l 682 324 q 661 343 677 343 q 630 333 650 343 q 602 321 611 323 q 540 297 582 307 q 478 275 494 284 l 465 256 q 462 262 465 256 q 454 266 458 268 l 450 259 l 442 272 q 435 202 435 249 q 426 132 435 155 q 435 444 435 273 q 430 749 435 545 q 426 1056 426 953 q 437 956 431 1018 q 449 999 437 957 q 452 984 449 992 q 463 977 456 976 l 453 970 l 456 950 q 487 947 466 947 q 517 943 507 947 l 517 948 q 504 975 517 967 q 516 987 513 975 q 536 1000 518 1000 q 566 994 546 1000 l 540 994 l 540 988 q 555 940 540 970 q 578 892 576 905 q 677 567 677 743 q 629 349 677 448 q 639 346 639 346 q 661 354 648 346 q 679 365 675 363 l 694 321 m 463 923 q 537 916 471 924 l 528 931 q 477 943 506 944 l 463 943 l 463 923 m 463 895 q 500 889 476 896 q 535 882 523 882 q 548 884 542 882 q 512 907 541 904 q 466 911 489 909 l 463 895 m 479 313 q 548 337 525 329 q 614 451 588 354 q 633 590 633 528 q 548 834 633 743 l 466 846 l 479 313 m 827 542 q 786 467 802 519 q 827 542 799 523 m 765 305 q 772 322 766 313 l 765 305 m 779 341 q 772 322 779 332 l 779 341 m 786 467 q 769 418 778 434 q 786 467 780 449 m 718 190 q 769 248 754 226 q 636 163 740 171 q 622 131 623 134 q 586 122 613 122 q 543 155 567 122 l 543 168 q 555 200 543 186 q 587 215 568 215 q 633 186 604 215 l 633 178 q 657 174 644 174 q 707 190 688 174 l 695 198 q 707 219 699 200 q 730 245 715 238 l 727 248 l 741 275 l 746 272 q 727 241 744 261 q 711 208 711 222 q 718 190 711 198 m 596 104 l 591 102 l 596 104 m 774 606 l 774 601 q 771 609 771 604 l 774 606 m 596 104 q 606 108 601 105 q 596 104 601 105 m 691 196 q 695 198 693 198 q 691 196 694 196 m 769 483 q 760 448 766 467 l 769 483 m 793 649 q 765 721 769 687 q 793 649 782 672 m 773 512 q 806 609 811 558 q 809 585 809 596 q 793 533 809 564 q 769 483 773 494 q 773 512 772 499 m 757 1060 q 894 827 845 976 q 938 558 938 697 q 881 283 938 412 q 702 77 816 139 q 633 41 708 58 q 538 28 573 28 q 461 31 512 28 q 384 35 410 35 q 342 17 359 35 q 316 0 326 0 q 264 15 309 0 q 215 34 219 30 q 199 26 192 26 l 190 26 q 128 52 179 40 q 59 69 67 65 q 96 139 79 91 q 121 217 108 178 q 172 614 172 344 q 163 784 172 700 q 132 770 151 784 q 102 756 113 756 q 90 760 96 756 q 77 857 92 818 q 97 867 80 859 q 109 885 110 873 q 103 886 106 886 q 93 883 100 886 q 83 881 86 881 l 74 881 q 24 1074 51 1015 q 109 1095 96 1086 q 102 1113 110 1106 l 113 1127 l 247 1127 q 257 1113 251 1113 q 272 1133 272 1113 q 350 1149 311 1140 q 426 1158 399 1158 q 513 1144 454 1158 q 602 1127 578 1128 q 618 1145 614 1145 q 628 1141 624 1145 q 702 1103 646 1118 q 757 1060 750 1090 m 65 1041 q 73 1031 73 1030 l 73 1028 q 101 1034 75 1028 q 122 1047 120 1037 l 112 1048 q 89 1045 104 1048 q 65 1041 70 1041 m 81 1025 q 73 1021 75 1024 q 81 1005 78 1009 q 109 1014 85 1009 q 128 1028 128 1018 l 121 1030 q 105 1027 115 1030 q 91 1024 95 1024 l 81 1025 m 112 826 q 138 836 114 827 q 156 853 156 842 l 156 858 q 108 846 127 858 l 112 826 m 141 865 l 151 869 l 152 886 q 143 902 148 896 l 142 902 l 136 901 l 141 865 m 159 816 q 159 827 159 814 q 156 834 159 833 q 131 823 146 823 q 115 814 115 823 q 120 795 115 818 l 159 816 m 749 139 q 895 587 895 320 q 848 855 895 729 q 694 1074 795 999 q 702 1051 702 1057 q 687 1025 702 1035 l 621 1111 l 586 1079 q 605 1048 585 1067 q 626 1018 626 1028 q 621 1005 626 1011 q 578 1013 608 1014 q 536 1017 548 1012 q 563 1025 542 1025 q 597 1025 598 1025 l 594 1032 l 505 1041 q 529 1048 512 1048 q 548 1047 533 1048 q 566 1047 559 1047 q 552 1072 552 1056 q 569 1100 552 1088 q 531 1103 556 1100 q 493 1107 506 1107 q 457 1099 471 1107 q 484 1094 466 1093 q 509 1090 502 1095 q 496 1083 503 1083 q 482 1085 492 1083 q 467 1087 473 1087 q 457 1086 463 1087 q 456 1074 456 1074 q 471 1062 456 1064 q 490 1053 487 1060 q 445 1047 460 1045 q 427 1127 441 1095 q 403 1099 412 1127 q 400 1108 402 1101 q 393 1115 398 1115 l 388 1114 l 385 1021 q 361 1114 383 1064 l 361 1032 q 358 1048 358 1040 q 334 1111 358 1111 l 330 1111 l 327 1099 q 317 1107 324 1107 q 300 1105 297 1107 l 291 1032 q 281 1050 285 1037 q 272 1067 278 1063 q 291 970 289 998 l 281 959 q 259 1029 279 984 q 236 1100 238 1075 q 214 1095 214 1098 q 217 1078 214 1089 q 221 1062 221 1067 q 217 1047 221 1053 l 202 1099 l 184 1095 q 192 1066 185 1087 q 198 1032 198 1045 q 194 1014 198 1022 q 168 1095 176 1067 q 153 1089 153 1095 q 150 1067 153 1070 l 141 1090 l 143 1014 q 86 989 97 1007 q 94 973 86 978 q 113 966 94 972 q 97 959 106 959 l 93 959 q 99 937 93 959 q 109 922 101 922 q 125 922 123 922 q 132 908 126 921 l 136 908 q 149 921 149 908 q 120 939 149 928 q 143 971 139 949 q 163 918 158 955 q 172 862 167 872 l 176 874 q 183 852 177 868 q 187 827 189 836 l 187 819 q 201 805 197 819 q 206 779 204 791 q 210 604 210 677 q 120 92 210 328 l 129 88 q 147 104 143 95 q 152 94 152 101 q 152 85 152 85 q 159 81 152 81 l 168 76 q 184 93 178 85 q 202 70 192 70 q 214 107 208 77 q 233 139 220 132 q 242 111 242 127 q 237 85 242 103 q 233 56 233 67 q 244 55 244 55 q 263 80 259 55 q 272 116 268 110 q 277 98 277 107 q 274 79 277 93 q 271 59 271 66 q 272 49 271 53 q 280 49 275 49 q 288 48 286 48 q 302 65 290 48 q 309 49 309 55 l 314 48 q 365 158 340 48 q 388 291 385 240 q 391 255 391 274 q 383 176 391 229 q 376 97 376 123 q 377 70 376 83 l 396 70 q 424 74 412 70 q 444 153 437 102 q 454 235 452 227 q 463 224 463 235 q 463 205 463 203 q 474 202 474 202 q 492 208 480 202 q 511 214 503 214 q 524 208 516 214 q 476 196 502 195 l 466 196 l 466 162 q 503 167 483 167 q 537 163 524 167 q 463 151 483 155 l 461 143 q 466 129 461 135 q 479 123 470 123 l 468 119 l 463 120 l 463 100 l 470 100 q 500 95 496 98 q 489 92 489 92 q 463 81 461 92 q 534 74 497 74 q 627 84 575 74 q 699 123 699 98 q 699 132 699 127 l 688 135 q 706 143 698 132 q 717 153 714 153 q 727 151 723 153 l 727 148 l 718 142 l 717 132 q 721 123 717 124 l 749 139 m 793 649 q 806 609 805 633 q 793 649 804 626 m 451 1025 q 450 1000 453 1010 q 451 1025 451 1024 m 498 975 q 472 978 489 972 l 498 975 m 464 978 q 471 978 467 978 l 464 978 m 449 258 q 451 251 451 256 l 449 258 m 785 600 l 785 599 l 784 601 l 785 600 m 753 830 q 785 765 782 785 q 753 830 762 817 m 779 620 l 780 613 l 776 623 l 779 620 m 694 895 q 737 862 726 876 q 746 844 740 854 q 694 895 723 881 m 727 606 q 733 581 733 581 l 733 567 l 727 606 m 776 600 l 779 604 q 757 567 776 571 q 749 580 752 570 q 760 570 754 571 q 773 601 773 575 l 776 600 m 779 606 l 779 604 l 779 604 l 779 606 m 780 613 l 783 601 l 779 604 l 780 613 m 750 643 q 776 623 767 643 q 752 640 762 640 q 741 636 746 640 l 730 616 l 728 619 q 736 635 728 626 q 750 643 743 643 m 718 1017 q 752 976 744 994 l 718 1017 m 734 957 q 722 923 734 940 q 692 907 709 907 q 660 920 685 907 q 639 959 639 950 q 655 989 639 976 q 689 1003 672 1003 q 733 971 717 1003 l 734 957 m 702 691 q 681 795 707 736 q 635 892 658 843 q 679 807 657 849 q 705 714 705 753 q 702 691 705 703 m 518 100 q 584 101 561 101 q 518 100 579 100 m 758 970 q 752 976 755 972 l 758 970 m 769 862 q 730 908 757 888 q 769 862 752 896 m 714 489 q 714 522 716 504 q 714 489 717 500 m 709 481 q 694 426 710 452 l 709 481 m 714 522 q 694 574 701 557 q 714 522 711 532 "},"I":{"x_min":18.359375,"x_max":401.125,"ha":420,"o":"m 401 1135 q 391 868 401 1027 q 374 605 382 736 q 370 304 368 485 q 374 3 374 3 q 351 7 367 3 q 326 11 335 11 q 303 0 312 11 l 190 0 q 163 15 185 14 q 127 15 180 15 q 18 47 74 15 q 69 714 69 534 q 37 1086 69 932 q 33 1099 37 1089 q 29 1112 29 1108 q 37 1126 29 1120 l 55 1126 q 154 1137 105 1124 q 174 1126 169 1124 q 202 1158 176 1158 q 250 1148 219 1158 q 300 1138 281 1138 q 350 1135 310 1138 q 401 1135 382 1132 m 197 1117 q 191 897 180 976 l 182 892 q 164 996 173 922 q 143 1099 156 1062 q 128 1090 131 1097 q 128 1074 127 1085 q 131 1058 131 1061 q 127 1045 131 1058 q 119 1074 125 1046 q 108 1093 115 1093 q 96 1090 108 1093 l 90 1078 l 87 1087 l 79 1087 q 105 735 105 929 q 92 401 105 601 q 69 67 80 235 l 87 64 l 96 83 q 99 60 101 78 q 111 57 106 57 q 128 68 122 57 q 138 90 134 80 q 141 74 144 84 q 138 55 138 60 q 163 51 147 57 q 187 222 187 158 q 186 256 187 239 l 196 268 q 210 171 210 229 q 210 73 210 122 l 211 37 l 222 35 q 250 38 231 35 q 280 39 268 41 q 294 71 291 48 q 299 106 297 89 q 320 76 317 106 q 334 48 323 47 l 342 48 l 342 84 q 338 225 342 133 q 334 365 334 322 q 348 731 334 498 q 367 1099 364 993 l 338 1098 l 339 1090 q 331 1063 339 1090 l 328 1103 l 299 1103 l 299 1096 q 292 1078 300 1083 q 253 1113 286 1107 q 197 1117 225 1114 m 96 1059 l 99 1059 l 99 1077 l 96 1077 l 96 1059 m 289 1066 q 257 1006 283 1043 q 225 949 230 969 l 229 949 q 253 996 229 969 q 280 1038 277 1022 q 292 999 294 1028 q 294 990 293 998 q 300 982 296 982 l 300 982 q 293 1022 300 995 q 289 1066 287 1050 m 130 843 q 139 910 139 873 q 134 977 139 933 q 130 1044 130 1021 q 139 936 139 988 q 130 843 139 884 m 289 953 q 328 811 325 908 q 289 953 328 920 m 225 843 q 208 765 223 842 q 198 687 198 719 q 225 599 198 635 q 265 629 251 601 q 283 678 267 633 l 283 688 q 287 733 281 704 q 293 775 293 762 q 263 827 293 814 q 232 701 236 797 q 252 681 248 681 q 266 704 266 681 q 265 719 266 707 q 265 733 263 727 q 248 684 265 684 l 244 685 q 237 732 237 707 q 264 824 237 781 q 277 817 273 824 q 289 804 284 805 l 289 768 q 277 674 289 726 q 232 603 261 603 q 219 612 226 603 q 211 623 212 622 q 201 706 201 664 q 259 891 201 820 q 239 868 246 888 q 225 843 232 847 m 211 486 q 232 493 218 486 q 250 502 245 500 q 282 554 269 519 q 303 612 292 583 q 274 532 289 572 q 214 484 251 484 q 159 542 178 484 q 148 633 148 584 q 190 863 148 701 q 149 643 149 724 q 163 552 149 604 q 211 486 182 486 m 127 830 l 124 800 l 127 830 m 319 674 q 331 797 323 714 q 319 674 328 755 m 316 665 l 308 619 l 316 665 m 157 474 q 192 381 174 428 q 213 286 210 327 l 216 340 l 210 337 q 184 405 205 361 q 157 474 163 449 m 257 467 l 243 439 l 257 467 m 236 415 l 232 400 l 236 415 m 229 392 l 225 373 l 229 392 m 253 340 l 257 340 l 257 361 l 253 361 l 253 340 m 250 328 l 241 258 l 250 328 m 241 183 l 244 183 l 244 250 l 242 250 l 241 183 m 310 192 l 316 192 l 316 219 l 310 219 l 310 192 m 269 105 l 271 105 l 272 153 l 269 153 l 269 105 m 237 82 l 242 82 l 241 128 l 237 128 l 237 82 "},"G":{"x_min":20,"x_max":869.03125,"ha":890,"o":"m 501 1131 q 523 1137 510 1131 q 544 1143 536 1143 q 554 1139 547 1143 q 591 1110 564 1129 q 657 1076 624 1092 q 715 1032 699 1055 q 777 946 747 988 q 823 854 815 893 q 810 858 816 858 q 789 840 800 858 q 767 822 779 822 q 755 825 763 822 q 701 800 741 810 q 647 771 661 790 q 531 728 576 755 q 461 843 508 767 q 354 715 389 835 q 330 529 330 631 q 382 348 330 412 q 410 345 396 345 q 541 405 488 345 l 542 438 q 446 447 457 447 q 477 606 447 464 q 845 667 600 623 l 847 629 q 840 521 848 589 q 811 432 828 432 q 790 438 816 432 q 788 415 788 427 q 869 136 788 358 q 858 109 869 118 q 835 91 847 99 q 694 49 785 69 q 550 13 589 26 l 543 46 q 348 0 461 0 q 301 17 331 0 q 255 34 271 34 q 244 32 250 34 q 20 546 20 191 q 41 752 20 661 q 60 816 50 774 q 69 833 67 823 q 70 854 70 854 q 116 947 82 891 q 180 1032 151 1003 q 231 1059 200 1037 q 277 1087 262 1081 q 369 1130 323 1108 q 463 1158 431 1158 q 486 1144 478 1158 q 501 1131 494 1131 m 423 1098 q 326 1068 377 1096 q 241 1013 283 1040 q 267 981 241 997 q 238 956 258 969 l 230 962 q 231 972 231 966 q 218 981 231 979 q 199 985 201 985 q 84 652 102 872 l 71 657 q 65 547 65 599 q 108 292 65 417 q 252 82 160 146 q 260 94 260 92 l 259 98 q 216 159 222 129 q 245 126 225 153 q 277 101 263 104 q 296 124 290 106 q 305 121 301 121 q 327 139 316 121 l 318 146 l 322 155 l 329 147 l 344 155 q 357 136 345 149 l 333 127 q 331 119 331 124 q 341 101 331 106 q 335 98 338 98 q 327 100 332 98 q 319 103 322 103 q 315 101 316 103 l 315 82 q 401 64 348 64 q 454 69 429 64 q 401 56 432 56 q 341 61 381 56 q 306 78 329 69 l 296 72 q 374 38 322 38 q 432 43 396 38 q 490 53 475 52 q 494 59 494 56 q 491 67 494 62 q 487 75 487 72 q 511 91 487 88 q 541 101 535 94 q 536 120 541 110 q 528 116 533 120 q 520 113 523 113 q 514 117 516 113 q 555 133 536 133 q 554 165 554 132 q 562 188 554 181 q 579 61 565 179 l 581 64 q 589 62 584 62 q 596 75 595 62 q 601 91 598 88 q 604 72 605 88 l 608 71 q 619 76 612 71 q 631 81 626 81 q 636 79 635 81 q 668 104 665 79 q 666 150 666 91 q 670 169 666 163 q 694 127 686 160 q 711 82 701 94 q 798 101 759 105 l 801 169 q 815 150 811 168 q 819 124 818 127 l 828 136 q 786 278 818 179 q 748 419 756 367 q 743 440 746 429 q 730 450 741 451 l 737 457 l 743 454 q 787 468 759 479 q 801 562 787 479 l 791 565 l 801 570 l 804 596 l 798 594 q 791 600 792 594 l 810 606 q 804 626 811 615 q 655 594 742 606 q 501 577 578 586 l 501 565 l 536 562 q 498 551 523 560 q 517 539 497 547 l 495 532 q 490 513 495 529 l 501 510 l 490 502 q 482 484 487 496 l 487 476 q 655 457 488 476 l 629 444 l 628 298 q 622 438 620 419 l 604 438 l 602 415 q 604 372 601 399 q 608 327 608 340 q 600 279 608 299 l 591 438 l 582 438 q 570 320 582 322 l 565 256 q 562 282 562 259 q 559 298 562 282 q 561 283 561 292 q 556 244 561 272 q 551 207 551 215 l 546 207 q 544 221 545 208 l 544 226 l 514 228 q 533 239 523 233 q 543 252 543 244 q 541 260 543 252 q 522 252 535 256 l 514 256 q 533 269 523 262 q 543 293 543 276 q 540 318 543 302 q 537 341 537 334 q 419 298 491 293 l 423 292 l 423 285 q 416 270 423 275 q 441 269 419 267 l 451 263 q 420 259 438 259 l 394 260 q 399 267 399 262 l 397 273 q 298 532 298 341 q 390 853 298 751 q 389 859 389 856 q 410 873 389 873 l 419 872 l 419 869 l 423 868 q 442 876 423 868 q 438 881 439 881 q 430 876 435 881 q 423 871 426 871 l 419 872 l 416 879 q 436 891 436 894 l 435 895 l 432 895 q 381 866 381 895 q 355 842 367 865 q 334 808 341 814 q 330 827 330 817 q 340 865 330 840 q 350 904 350 889 q 312 914 350 927 q 297 949 295 926 l 297 959 l 315 959 l 308 952 q 332 944 318 944 q 354 947 340 944 q 376 950 368 950 l 386 949 l 341 933 q 360 911 345 924 l 360 917 q 435 943 386 923 q 422 954 433 952 q 409 959 410 957 q 422 972 422 960 q 417 989 422 978 q 413 1007 413 1001 q 416 1015 413 1007 q 432 986 425 1008 q 452 954 438 963 q 493 862 456 910 q 559 784 526 823 l 572 790 q 541 835 566 807 q 509 879 516 863 l 515 885 q 552 837 520 879 q 591 794 584 794 q 600 794 595 794 l 601 803 q 585 829 601 805 q 569 866 569 852 q 596 829 581 859 q 625 800 611 800 q 636 803 625 800 q 623 833 636 816 q 602 862 605 853 l 607 866 q 652 808 630 845 l 661 813 q 642 847 659 827 q 626 881 626 868 q 629 895 626 888 q 619 918 629 904 q 609 943 609 933 q 610 952 609 943 q 655 879 642 917 q 689 847 665 863 l 699 853 q 653 930 676 891 q 600 999 626 973 l 602 1004 q 708 858 654 956 l 718 858 q 692 907 711 884 l 696 917 l 737 866 l 753 866 l 756 876 l 764 869 l 772 888 q 664 1041 727 970 q 664 1028 664 1043 q 661 1022 664 1024 q 601 1072 630 1047 q 532 1101 565 1101 q 528 1085 528 1092 q 537 1065 528 1082 q 547 1032 547 1048 q 530 1004 547 1018 q 513 972 513 989 q 506 954 513 954 q 443 1038 443 1024 q 465 1080 443 1066 q 514 1089 487 1095 q 468 1110 503 1110 q 423 1098 441 1110 m 211 967 q 182 910 196 939 q 166 850 166 876 q 168 824 166 837 q 214 804 190 804 l 225 805 q 249 824 231 813 q 252 847 252 836 q 214 895 252 895 q 198 892 209 895 q 182 889 188 889 l 176 891 l 211 967 m 331 967 l 322 967 l 318 962 l 331 967 m 409 954 l 397 954 l 390 952 l 409 954 m 555 888 q 530 917 543 891 q 501 949 517 943 q 506 950 504 950 q 532 924 519 950 q 555 888 549 892 m 693 926 q 682 940 690 930 q 693 926 685 936 m 482 936 l 487 926 l 482 936 m 371 911 q 379 902 374 910 q 387 894 383 894 q 417 903 397 894 q 437 921 437 912 q 435 930 437 921 q 371 911 413 921 m 753 885 l 730 907 l 753 876 l 753 885 m 153 904 l 143 872 l 153 904 m 131 839 l 117 790 l 131 839 m 153 829 q 135 736 151 803 q 122 642 121 677 l 124 622 q 153 829 134 691 m 185 797 q 158 651 155 736 l 159 614 q 185 797 161 732 m 216 784 l 206 749 l 216 784 m 280 633 l 286 633 l 286 664 l 280 664 l 280 633 m 278 593 l 280 593 l 280 619 l 277 619 l 278 593 m 162 544 q 159 606 159 552 l 157 596 q 159 575 157 588 q 162 555 162 562 l 162 544 m 743 593 l 759 591 l 763 591 q 779 596 773 591 l 773 597 q 761 594 769 597 q 748 591 753 591 l 743 593 m 642 585 q 609 576 630 585 q 569 570 588 567 l 602 570 l 591 555 q 591 535 591 555 q 644 494 591 494 q 672 508 660 494 q 684 538 684 522 q 682 551 684 538 q 642 585 660 585 m 241 465 l 245 465 l 245 487 l 241 487 l 241 465 m 655 449 q 655 416 653 436 q 658 384 658 389 q 641 355 658 357 q 655 285 657 332 q 685 251 663 263 l 715 256 q 722 234 724 251 l 721 243 q 733 269 721 256 q 753 292 751 289 q 772 206 761 264 q 757 287 772 208 q 734 367 748 337 q 743 319 743 350 q 718 338 735 327 q 690 386 691 348 q 685 449 685 448 q 690 407 685 438 q 694 360 695 376 l 693 341 q 656 384 656 341 q 657 407 656 392 q 659 428 659 422 q 655 449 659 441 m 722 423 q 724 421 722 422 l 721 428 q 718 445 718 436 l 718 449 l 722 423 m 102 435 q 121 332 108 418 q 159 237 131 269 q 124 331 135 263 q 102 435 112 413 m 270 371 l 254 402 l 270 367 l 270 371 m 188 280 q 231 241 188 241 q 279 286 281 241 l 277 298 q 231 324 261 324 q 188 280 188 324 m 308 300 q 371 221 337 250 l 371 225 q 363 245 363 232 q 376 260 363 257 q 339 276 360 261 q 308 300 312 298 m 648 244 l 652 244 l 652 260 l 647 260 l 648 244 m 363 199 q 358 198 361 198 q 356 204 357 198 q 353 209 355 209 q 359 206 354 208 q 364 202 364 204 l 363 199 m 258 169 l 244 188 q 258 169 251 176 m 546 154 l 540 154 l 520 143 l 546 154 "},"z":{"x_min":20.296875,"x_max":822.453125,"ha":844,"o":"m 756 1146 q 770 982 766 1088 q 780 819 773 866 q 750 784 764 809 q 724 743 731 751 q 433 354 621 622 q 570 334 491 334 q 672 340 608 334 q 772 345 744 345 q 782 302 772 329 q 793 258 793 274 q 792 243 793 251 q 744 238 780 243 q 696 235 715 235 l 677 237 l 677 240 q 727 253 702 245 q 760 283 760 264 q 753 295 760 290 l 740 295 q 753 302 747 293 q 741 323 754 323 q 721 319 737 323 q 701 319 708 316 q 552 298 583 298 q 447 326 488 298 q 439 325 445 325 q 410 328 429 325 q 382 331 391 331 q 271 319 375 331 l 264 327 l 255 318 l 280 354 l 267 330 l 311 330 l 342 362 l 327 342 q 342 335 333 335 q 361 340 348 335 q 381 345 374 346 q 537 556 423 395 q 701 763 633 691 q 726 796 702 776 q 750 833 750 815 q 744 859 750 841 q 735 885 737 882 q 701 860 725 875 q 717 909 702 877 q 735 953 732 940 q 727 1011 731 963 q 708 1061 722 1048 l 717 1067 l 717 1074 q 701 1086 718 1079 q 715 1097 715 1090 q 714 1106 715 1102 l 705 1115 q 646 1116 676 1116 q 439 1099 576 1116 q 232 1081 301 1081 q 67 1102 165 1081 q 63 1061 65 1099 q 220 1039 142 1041 q 70 1058 131 1045 l 70 1015 l 294 1011 l 78 1006 q 74 983 76 1003 l 81 976 l 103 976 q 213 971 141 971 q 51 947 158 964 q 37 1051 39 984 q 28 1158 34 1130 q 269 1123 133 1123 q 481 1135 340 1123 q 693 1147 622 1147 q 756 1146 725 1147 m 552 1073 q 567 1079 567 1079 l 639 1079 l 552 1073 m 614 1047 l 616 1040 q 601 1011 616 1025 q 575 983 587 996 q 585 1024 575 986 q 591 1067 593 1047 q 601 1056 597 1067 q 614 1047 604 1044 m 701 1058 q 681 1054 693 1060 q 701 1039 682 1052 q 714 1021 714 1029 q 708 1006 714 1015 q 700 1003 706 1006 q 690 999 694 999 l 685 1000 q 674 1054 685 1039 q 701 1058 678 1058 m 633 1051 l 642 1054 l 653 1054 l 633 1051 m 555 1031 q 395 1020 502 1027 q 552 1034 448 1022 l 555 1031 m 513 976 q 443 889 478 932 q 381 798 403 839 q 351 729 371 773 q 75 336 261 557 q 72 327 72 331 q 82 311 72 313 q 126 344 105 320 q 161 389 144 366 l 106 316 l 165 316 l 207 363 q 186 321 199 345 l 204 315 q 172 304 191 307 q 135 299 152 300 q 97 276 116 287 q 70 243 75 260 q 84 237 76 237 q 105 243 92 237 q 126 249 119 249 q 72 221 72 243 q 87 201 72 212 l 99 201 q 81 185 81 202 q 84 163 81 177 q 88 141 88 148 l 115 141 q 85 108 85 144 q 85 93 85 103 q 86 79 86 83 q 81 59 86 64 l 139 59 q 440 47 287 60 q 473 34 453 34 q 504 38 483 34 q 534 43 524 43 l 776 43 q 783 63 783 48 q 783 89 783 90 l 771 102 q 713 98 750 98 l 679 98 q 627 94 647 98 q 703 97 647 98 q 780 105 753 95 q 756 120 776 115 q 735 134 737 124 q 780 144 753 147 q 784 163 784 153 q 764 204 784 186 l 753 204 q 770 217 755 205 q 789 225 780 225 q 799 224 789 225 q 809 112 805 192 q 822 3 812 42 q 705 0 767 0 q 454 8 621 0 q 203 17 287 17 q 43 11 117 17 q 43 89 43 11 q 24 251 43 199 q 20 264 20 261 q 31 283 20 272 q 42 301 42 294 q 31 317 42 307 q 82 401 42 349 q 145 482 145 482 q 333 807 277 676 q 82 775 231 807 q 67 925 73 837 q 82 932 75 924 q 95 940 90 940 q 102 932 97 940 l 100 927 q 108 903 100 916 q 115 880 115 889 l 141 880 l 135 882 q 115 869 122 882 l 118 830 l 136 830 q 261 840 186 828 q 387 857 368 856 l 433 905 q 406 908 427 911 q 436 917 420 912 q 456 935 452 922 q 413 940 436 940 q 356 936 394 940 q 300 933 319 933 l 472 947 q 501 983 485 957 l 437 983 q 491 989 465 989 q 513 986 503 989 l 513 976 m 421 980 q 402 976 413 976 q 421 980 402 976 m 655 899 q 630 857 655 870 q 614 850 625 850 q 598 854 609 850 q 583 859 587 857 q 559 896 578 860 q 604 946 559 946 q 655 899 655 946 m 334 893 q 358 901 358 901 l 374 901 l 334 893 m 205 889 q 183 885 196 885 l 157 885 q 178 887 164 883 q 196 890 192 890 l 205 889 m 528 763 l 528 768 q 520 782 528 778 l 489 763 q 528 782 520 782 l 528 763 m 434 716 q 481 759 447 733 l 434 716 m 421 693 l 415 677 l 421 693 m 169 402 l 202 444 q 169 402 190 425 m 374 405 l 363 389 l 374 405 m 708 288 q 674 282 704 284 q 708 288 685 286 m 591 270 q 607 276 607 276 l 633 276 l 591 270 m 221 256 q 154 252 215 254 l 160 252 q 221 256 189 252 m 296 169 q 272 125 296 144 q 237 127 254 125 q 208 144 215 130 q 201 166 201 151 q 244 219 201 201 q 296 169 296 208 m 745 201 q 669 195 720 199 l 681 195 q 733 202 698 199 l 745 201 "}}}
